G75*
%MOIN*%
%OFA0B0*%
%FSLAX25Y25*%
%IPPOS*%
%LPD*%
%AMOC8*
5,1,8,0,0,1.08239X$1,22.5*
%
%ADD10C,0.00600*%
%ADD11C,0.00300*%
%ADD12C,0.00000*%
%ADD13C,0.00400*%
%ADD14C,0.00100*%
D10*
X0034342Y0021933D02*
X0034342Y0076933D01*
X0114342Y0076933D01*
X0114342Y0021933D01*
X0034342Y0021933D01*
D11*
X0059314Y0067083D02*
X0060136Y0069550D01*
X0060958Y0067083D01*
X0061781Y0070783D01*
X0064216Y0070783D02*
X0065450Y0067083D01*
X0065141Y0068008D02*
X0063291Y0068008D01*
X0062983Y0067083D02*
X0064216Y0070783D01*
X0067182Y0069241D02*
X0068313Y0068625D01*
X0067902Y0067083D02*
X0067821Y0067085D01*
X0067741Y0067090D01*
X0067661Y0067100D01*
X0067581Y0067113D01*
X0067502Y0067130D01*
X0067424Y0067150D01*
X0067347Y0067174D01*
X0067271Y0067202D01*
X0067197Y0067233D01*
X0067124Y0067267D01*
X0067053Y0067305D01*
X0066983Y0067346D01*
X0066916Y0067390D01*
X0066850Y0067437D01*
X0066787Y0067488D01*
X0066727Y0067541D01*
X0066669Y0067597D01*
X0068313Y0068624D02*
X0068359Y0068595D01*
X0068402Y0068563D01*
X0068444Y0068529D01*
X0068483Y0068491D01*
X0068520Y0068452D01*
X0068554Y0068410D01*
X0068586Y0068365D01*
X0068614Y0068319D01*
X0068639Y0068271D01*
X0068662Y0068222D01*
X0068680Y0068171D01*
X0068696Y0068119D01*
X0068708Y0068067D01*
X0068717Y0068013D01*
X0068722Y0067959D01*
X0068724Y0067905D01*
X0068722Y0067849D01*
X0068716Y0067793D01*
X0068707Y0067738D01*
X0068694Y0067683D01*
X0068677Y0067630D01*
X0068656Y0067578D01*
X0068632Y0067527D01*
X0068604Y0067478D01*
X0068574Y0067431D01*
X0068540Y0067386D01*
X0068503Y0067344D01*
X0068463Y0067304D01*
X0068421Y0067267D01*
X0068376Y0067233D01*
X0068329Y0067203D01*
X0068280Y0067175D01*
X0068229Y0067151D01*
X0068177Y0067130D01*
X0068124Y0067113D01*
X0068069Y0067100D01*
X0068014Y0067091D01*
X0067958Y0067085D01*
X0067902Y0067083D01*
X0068518Y0070475D02*
X0068456Y0070519D01*
X0068392Y0070560D01*
X0068326Y0070598D01*
X0068257Y0070632D01*
X0068188Y0070664D01*
X0068117Y0070691D01*
X0068044Y0070715D01*
X0067971Y0070736D01*
X0067896Y0070753D01*
X0067821Y0070766D01*
X0067745Y0070775D01*
X0067669Y0070781D01*
X0067593Y0070783D01*
X0067537Y0070781D01*
X0067481Y0070775D01*
X0067426Y0070766D01*
X0067371Y0070753D01*
X0067318Y0070736D01*
X0067266Y0070715D01*
X0067215Y0070691D01*
X0067166Y0070663D01*
X0067119Y0070633D01*
X0067074Y0070599D01*
X0067032Y0070562D01*
X0066992Y0070522D01*
X0066955Y0070480D01*
X0066921Y0070435D01*
X0066891Y0070388D01*
X0066863Y0070339D01*
X0066839Y0070288D01*
X0066818Y0070236D01*
X0066801Y0070183D01*
X0066788Y0070128D01*
X0066779Y0070073D01*
X0066773Y0070017D01*
X0066771Y0069961D01*
X0066773Y0069907D01*
X0066778Y0069853D01*
X0066787Y0069799D01*
X0066799Y0069747D01*
X0066815Y0069695D01*
X0066833Y0069644D01*
X0066856Y0069595D01*
X0066881Y0069547D01*
X0066909Y0069501D01*
X0066941Y0069456D01*
X0066975Y0069414D01*
X0067012Y0069375D01*
X0067051Y0069337D01*
X0067093Y0069303D01*
X0067136Y0069271D01*
X0067182Y0069242D01*
X0072171Y0068008D02*
X0074021Y0068008D01*
X0074329Y0067083D02*
X0073096Y0070783D01*
X0071863Y0067083D01*
X0077743Y0067083D02*
X0077743Y0070783D01*
X0078976Y0068728D01*
X0080209Y0070783D01*
X0080209Y0067083D01*
X0082035Y0067083D02*
X0082035Y0070783D01*
X0083680Y0070783D01*
X0083269Y0069139D02*
X0082035Y0069139D01*
X0082035Y0067083D02*
X0083680Y0067083D01*
X0086553Y0068624D02*
X0086599Y0068595D01*
X0086642Y0068563D01*
X0086684Y0068529D01*
X0086723Y0068491D01*
X0086760Y0068452D01*
X0086794Y0068410D01*
X0086826Y0068365D01*
X0086854Y0068319D01*
X0086879Y0068271D01*
X0086902Y0068222D01*
X0086920Y0068171D01*
X0086936Y0068119D01*
X0086948Y0068067D01*
X0086957Y0068013D01*
X0086962Y0067959D01*
X0086964Y0067905D01*
X0086962Y0067849D01*
X0086956Y0067793D01*
X0086947Y0067738D01*
X0086934Y0067683D01*
X0086917Y0067630D01*
X0086896Y0067578D01*
X0086872Y0067527D01*
X0086844Y0067478D01*
X0086814Y0067431D01*
X0086780Y0067386D01*
X0086743Y0067344D01*
X0086703Y0067304D01*
X0086661Y0067267D01*
X0086616Y0067233D01*
X0086569Y0067203D01*
X0086520Y0067175D01*
X0086469Y0067151D01*
X0086417Y0067130D01*
X0086364Y0067113D01*
X0086309Y0067100D01*
X0086254Y0067091D01*
X0086198Y0067085D01*
X0086142Y0067083D01*
X0086553Y0068625D02*
X0085422Y0069241D01*
X0085833Y0070783D02*
X0085909Y0070781D01*
X0085985Y0070775D01*
X0086061Y0070766D01*
X0086136Y0070753D01*
X0086211Y0070736D01*
X0086284Y0070715D01*
X0086357Y0070691D01*
X0086428Y0070664D01*
X0086497Y0070632D01*
X0086566Y0070598D01*
X0086632Y0070560D01*
X0086696Y0070519D01*
X0086758Y0070475D01*
X0085422Y0069242D02*
X0085376Y0069271D01*
X0085333Y0069303D01*
X0085291Y0069337D01*
X0085252Y0069375D01*
X0085215Y0069414D01*
X0085181Y0069456D01*
X0085149Y0069501D01*
X0085121Y0069547D01*
X0085096Y0069595D01*
X0085073Y0069644D01*
X0085055Y0069695D01*
X0085039Y0069747D01*
X0085027Y0069799D01*
X0085018Y0069853D01*
X0085013Y0069907D01*
X0085011Y0069961D01*
X0085013Y0070017D01*
X0085019Y0070073D01*
X0085028Y0070128D01*
X0085041Y0070183D01*
X0085058Y0070236D01*
X0085079Y0070288D01*
X0085103Y0070339D01*
X0085131Y0070388D01*
X0085161Y0070435D01*
X0085195Y0070480D01*
X0085232Y0070522D01*
X0085272Y0070562D01*
X0085314Y0070599D01*
X0085359Y0070633D01*
X0085406Y0070663D01*
X0085455Y0070691D01*
X0085506Y0070715D01*
X0085558Y0070736D01*
X0085611Y0070753D01*
X0085666Y0070766D01*
X0085721Y0070775D01*
X0085777Y0070781D01*
X0085833Y0070783D01*
X0084909Y0067597D02*
X0084967Y0067541D01*
X0085027Y0067488D01*
X0085090Y0067437D01*
X0085156Y0067390D01*
X0085223Y0067346D01*
X0085293Y0067305D01*
X0085364Y0067267D01*
X0085437Y0067233D01*
X0085511Y0067202D01*
X0085587Y0067174D01*
X0085664Y0067150D01*
X0085742Y0067130D01*
X0085821Y0067113D01*
X0085901Y0067100D01*
X0085981Y0067090D01*
X0086061Y0067085D01*
X0086142Y0067083D01*
X0088782Y0069241D02*
X0089913Y0068625D01*
X0089502Y0067083D02*
X0089421Y0067085D01*
X0089341Y0067090D01*
X0089261Y0067100D01*
X0089181Y0067113D01*
X0089102Y0067130D01*
X0089024Y0067150D01*
X0088947Y0067174D01*
X0088871Y0067202D01*
X0088797Y0067233D01*
X0088724Y0067267D01*
X0088653Y0067305D01*
X0088583Y0067346D01*
X0088516Y0067390D01*
X0088450Y0067437D01*
X0088387Y0067488D01*
X0088327Y0067541D01*
X0088269Y0067597D01*
X0089913Y0068624D02*
X0089959Y0068595D01*
X0090002Y0068563D01*
X0090044Y0068529D01*
X0090083Y0068491D01*
X0090120Y0068452D01*
X0090154Y0068410D01*
X0090186Y0068365D01*
X0090214Y0068319D01*
X0090239Y0068271D01*
X0090262Y0068222D01*
X0090280Y0068171D01*
X0090296Y0068119D01*
X0090308Y0068067D01*
X0090317Y0068013D01*
X0090322Y0067959D01*
X0090324Y0067905D01*
X0090322Y0067849D01*
X0090316Y0067793D01*
X0090307Y0067738D01*
X0090294Y0067683D01*
X0090277Y0067630D01*
X0090256Y0067578D01*
X0090232Y0067527D01*
X0090204Y0067478D01*
X0090174Y0067431D01*
X0090140Y0067386D01*
X0090103Y0067344D01*
X0090063Y0067304D01*
X0090021Y0067267D01*
X0089976Y0067233D01*
X0089929Y0067203D01*
X0089880Y0067175D01*
X0089829Y0067151D01*
X0089777Y0067130D01*
X0089724Y0067113D01*
X0089669Y0067100D01*
X0089614Y0067091D01*
X0089558Y0067085D01*
X0089502Y0067083D01*
X0090118Y0070475D02*
X0090056Y0070519D01*
X0089992Y0070560D01*
X0089926Y0070598D01*
X0089857Y0070632D01*
X0089788Y0070664D01*
X0089717Y0070691D01*
X0089644Y0070715D01*
X0089571Y0070736D01*
X0089496Y0070753D01*
X0089421Y0070766D01*
X0089345Y0070775D01*
X0089269Y0070781D01*
X0089193Y0070783D01*
X0089137Y0070781D01*
X0089081Y0070775D01*
X0089026Y0070766D01*
X0088971Y0070753D01*
X0088918Y0070736D01*
X0088866Y0070715D01*
X0088815Y0070691D01*
X0088766Y0070663D01*
X0088719Y0070633D01*
X0088674Y0070599D01*
X0088632Y0070562D01*
X0088592Y0070522D01*
X0088555Y0070480D01*
X0088521Y0070435D01*
X0088491Y0070388D01*
X0088463Y0070339D01*
X0088439Y0070288D01*
X0088418Y0070236D01*
X0088401Y0070183D01*
X0088388Y0070128D01*
X0088379Y0070073D01*
X0088373Y0070017D01*
X0088371Y0069961D01*
X0088373Y0069907D01*
X0088378Y0069853D01*
X0088387Y0069799D01*
X0088399Y0069747D01*
X0088415Y0069695D01*
X0088433Y0069644D01*
X0088456Y0069595D01*
X0088481Y0069547D01*
X0088509Y0069501D01*
X0088541Y0069456D01*
X0088575Y0069414D01*
X0088612Y0069375D01*
X0088651Y0069337D01*
X0088693Y0069303D01*
X0088736Y0069271D01*
X0088782Y0069242D01*
X0059314Y0067083D02*
X0058492Y0070783D01*
D12*
X0046192Y0065988D02*
X0046194Y0066122D01*
X0046200Y0066256D01*
X0046210Y0066390D01*
X0046224Y0066524D01*
X0046242Y0066657D01*
X0046263Y0066789D01*
X0046289Y0066921D01*
X0046319Y0067052D01*
X0046352Y0067182D01*
X0046389Y0067310D01*
X0046431Y0067438D01*
X0046475Y0067565D01*
X0046524Y0067690D01*
X0046576Y0067813D01*
X0046632Y0067935D01*
X0046692Y0068056D01*
X0046755Y0068174D01*
X0046821Y0068291D01*
X0046891Y0068405D01*
X0046964Y0068518D01*
X0047041Y0068628D01*
X0047121Y0068736D01*
X0047204Y0068841D01*
X0047290Y0068944D01*
X0047379Y0069044D01*
X0047471Y0069142D01*
X0047566Y0069237D01*
X0047664Y0069329D01*
X0047764Y0069418D01*
X0047867Y0069504D01*
X0047972Y0069587D01*
X0048080Y0069667D01*
X0048190Y0069744D01*
X0048303Y0069817D01*
X0048417Y0069887D01*
X0048534Y0069953D01*
X0048652Y0070016D01*
X0048773Y0070076D01*
X0048895Y0070132D01*
X0049018Y0070184D01*
X0049143Y0070233D01*
X0049270Y0070277D01*
X0049398Y0070319D01*
X0049526Y0070356D01*
X0049656Y0070389D01*
X0049787Y0070419D01*
X0049919Y0070445D01*
X0050051Y0070466D01*
X0050184Y0070484D01*
X0050318Y0070498D01*
X0050452Y0070508D01*
X0050586Y0070514D01*
X0050720Y0070516D01*
X0050854Y0070514D01*
X0050988Y0070508D01*
X0051122Y0070498D01*
X0051256Y0070484D01*
X0051389Y0070466D01*
X0051521Y0070445D01*
X0051653Y0070419D01*
X0051784Y0070389D01*
X0051914Y0070356D01*
X0052042Y0070319D01*
X0052170Y0070277D01*
X0052297Y0070233D01*
X0052422Y0070184D01*
X0052545Y0070132D01*
X0052667Y0070076D01*
X0052788Y0070016D01*
X0052906Y0069953D01*
X0053023Y0069887D01*
X0053137Y0069817D01*
X0053250Y0069744D01*
X0053360Y0069667D01*
X0053468Y0069587D01*
X0053573Y0069504D01*
X0053676Y0069418D01*
X0053776Y0069329D01*
X0053874Y0069237D01*
X0053969Y0069142D01*
X0054061Y0069044D01*
X0054150Y0068944D01*
X0054236Y0068841D01*
X0054319Y0068736D01*
X0054399Y0068628D01*
X0054476Y0068518D01*
X0054549Y0068405D01*
X0054619Y0068291D01*
X0054685Y0068174D01*
X0054748Y0068056D01*
X0054808Y0067935D01*
X0054864Y0067813D01*
X0054916Y0067690D01*
X0054965Y0067565D01*
X0055009Y0067438D01*
X0055051Y0067310D01*
X0055088Y0067182D01*
X0055121Y0067052D01*
X0055151Y0066921D01*
X0055177Y0066789D01*
X0055198Y0066657D01*
X0055216Y0066524D01*
X0055230Y0066390D01*
X0055240Y0066256D01*
X0055246Y0066122D01*
X0055248Y0065988D01*
X0055246Y0065854D01*
X0055240Y0065720D01*
X0055230Y0065586D01*
X0055216Y0065452D01*
X0055198Y0065319D01*
X0055177Y0065187D01*
X0055151Y0065055D01*
X0055121Y0064924D01*
X0055088Y0064794D01*
X0055051Y0064666D01*
X0055009Y0064538D01*
X0054965Y0064411D01*
X0054916Y0064286D01*
X0054864Y0064163D01*
X0054808Y0064041D01*
X0054748Y0063920D01*
X0054685Y0063802D01*
X0054619Y0063685D01*
X0054549Y0063571D01*
X0054476Y0063458D01*
X0054399Y0063348D01*
X0054319Y0063240D01*
X0054236Y0063135D01*
X0054150Y0063032D01*
X0054061Y0062932D01*
X0053969Y0062834D01*
X0053874Y0062739D01*
X0053776Y0062647D01*
X0053676Y0062558D01*
X0053573Y0062472D01*
X0053468Y0062389D01*
X0053360Y0062309D01*
X0053250Y0062232D01*
X0053137Y0062159D01*
X0053023Y0062089D01*
X0052906Y0062023D01*
X0052788Y0061960D01*
X0052667Y0061900D01*
X0052545Y0061844D01*
X0052422Y0061792D01*
X0052297Y0061743D01*
X0052170Y0061699D01*
X0052042Y0061657D01*
X0051914Y0061620D01*
X0051784Y0061587D01*
X0051653Y0061557D01*
X0051521Y0061531D01*
X0051389Y0061510D01*
X0051256Y0061492D01*
X0051122Y0061478D01*
X0050988Y0061468D01*
X0050854Y0061462D01*
X0050720Y0061460D01*
X0050586Y0061462D01*
X0050452Y0061468D01*
X0050318Y0061478D01*
X0050184Y0061492D01*
X0050051Y0061510D01*
X0049919Y0061531D01*
X0049787Y0061557D01*
X0049656Y0061587D01*
X0049526Y0061620D01*
X0049398Y0061657D01*
X0049270Y0061699D01*
X0049143Y0061743D01*
X0049018Y0061792D01*
X0048895Y0061844D01*
X0048773Y0061900D01*
X0048652Y0061960D01*
X0048534Y0062023D01*
X0048417Y0062089D01*
X0048303Y0062159D01*
X0048190Y0062232D01*
X0048080Y0062309D01*
X0047972Y0062389D01*
X0047867Y0062472D01*
X0047764Y0062558D01*
X0047664Y0062647D01*
X0047566Y0062739D01*
X0047471Y0062834D01*
X0047379Y0062932D01*
X0047290Y0063032D01*
X0047204Y0063135D01*
X0047121Y0063240D01*
X0047041Y0063348D01*
X0046964Y0063458D01*
X0046891Y0063571D01*
X0046821Y0063685D01*
X0046755Y0063802D01*
X0046692Y0063920D01*
X0046632Y0064041D01*
X0046576Y0064163D01*
X0046524Y0064286D01*
X0046475Y0064411D01*
X0046431Y0064538D01*
X0046389Y0064666D01*
X0046352Y0064794D01*
X0046319Y0064924D01*
X0046289Y0065055D01*
X0046263Y0065187D01*
X0046242Y0065319D01*
X0046224Y0065452D01*
X0046210Y0065586D01*
X0046200Y0065720D01*
X0046194Y0065854D01*
X0046192Y0065988D01*
X0036436Y0047933D02*
X0036438Y0048086D01*
X0036444Y0048240D01*
X0036454Y0048393D01*
X0036468Y0048545D01*
X0036486Y0048698D01*
X0036508Y0048849D01*
X0036533Y0049000D01*
X0036563Y0049151D01*
X0036597Y0049301D01*
X0036634Y0049449D01*
X0036675Y0049597D01*
X0036720Y0049743D01*
X0036769Y0049889D01*
X0036822Y0050033D01*
X0036878Y0050175D01*
X0036938Y0050316D01*
X0037002Y0050456D01*
X0037069Y0050594D01*
X0037140Y0050730D01*
X0037215Y0050864D01*
X0037292Y0050996D01*
X0037374Y0051126D01*
X0037458Y0051254D01*
X0037546Y0051380D01*
X0037637Y0051503D01*
X0037731Y0051624D01*
X0037829Y0051742D01*
X0037929Y0051858D01*
X0038033Y0051971D01*
X0038139Y0052082D01*
X0038248Y0052190D01*
X0038360Y0052295D01*
X0038474Y0052396D01*
X0038592Y0052495D01*
X0038711Y0052591D01*
X0038833Y0052684D01*
X0038958Y0052773D01*
X0039085Y0052860D01*
X0039214Y0052942D01*
X0039345Y0053022D01*
X0039478Y0053098D01*
X0039613Y0053171D01*
X0039750Y0053240D01*
X0039889Y0053305D01*
X0040029Y0053367D01*
X0040171Y0053425D01*
X0040314Y0053480D01*
X0040459Y0053531D01*
X0040605Y0053578D01*
X0040752Y0053621D01*
X0040900Y0053660D01*
X0041049Y0053696D01*
X0041199Y0053727D01*
X0041350Y0053755D01*
X0041501Y0053779D01*
X0041654Y0053799D01*
X0041806Y0053815D01*
X0041959Y0053827D01*
X0042112Y0053835D01*
X0042265Y0053839D01*
X0042419Y0053839D01*
X0042572Y0053835D01*
X0042725Y0053827D01*
X0042878Y0053815D01*
X0043030Y0053799D01*
X0043183Y0053779D01*
X0043334Y0053755D01*
X0043485Y0053727D01*
X0043635Y0053696D01*
X0043784Y0053660D01*
X0043932Y0053621D01*
X0044079Y0053578D01*
X0044225Y0053531D01*
X0044370Y0053480D01*
X0044513Y0053425D01*
X0044655Y0053367D01*
X0044795Y0053305D01*
X0044934Y0053240D01*
X0045071Y0053171D01*
X0045206Y0053098D01*
X0045339Y0053022D01*
X0045470Y0052942D01*
X0045599Y0052860D01*
X0045726Y0052773D01*
X0045851Y0052684D01*
X0045973Y0052591D01*
X0046092Y0052495D01*
X0046210Y0052396D01*
X0046324Y0052295D01*
X0046436Y0052190D01*
X0046545Y0052082D01*
X0046651Y0051971D01*
X0046755Y0051858D01*
X0046855Y0051742D01*
X0046953Y0051624D01*
X0047047Y0051503D01*
X0047138Y0051380D01*
X0047226Y0051254D01*
X0047310Y0051126D01*
X0047392Y0050996D01*
X0047469Y0050864D01*
X0047544Y0050730D01*
X0047615Y0050594D01*
X0047682Y0050456D01*
X0047746Y0050316D01*
X0047806Y0050175D01*
X0047862Y0050033D01*
X0047915Y0049889D01*
X0047964Y0049743D01*
X0048009Y0049597D01*
X0048050Y0049449D01*
X0048087Y0049301D01*
X0048121Y0049151D01*
X0048151Y0049000D01*
X0048176Y0048849D01*
X0048198Y0048698D01*
X0048216Y0048545D01*
X0048230Y0048393D01*
X0048240Y0048240D01*
X0048246Y0048086D01*
X0048248Y0047933D01*
X0048246Y0047780D01*
X0048240Y0047626D01*
X0048230Y0047473D01*
X0048216Y0047321D01*
X0048198Y0047168D01*
X0048176Y0047017D01*
X0048151Y0046866D01*
X0048121Y0046715D01*
X0048087Y0046565D01*
X0048050Y0046417D01*
X0048009Y0046269D01*
X0047964Y0046123D01*
X0047915Y0045977D01*
X0047862Y0045833D01*
X0047806Y0045691D01*
X0047746Y0045550D01*
X0047682Y0045410D01*
X0047615Y0045272D01*
X0047544Y0045136D01*
X0047469Y0045002D01*
X0047392Y0044870D01*
X0047310Y0044740D01*
X0047226Y0044612D01*
X0047138Y0044486D01*
X0047047Y0044363D01*
X0046953Y0044242D01*
X0046855Y0044124D01*
X0046755Y0044008D01*
X0046651Y0043895D01*
X0046545Y0043784D01*
X0046436Y0043676D01*
X0046324Y0043571D01*
X0046210Y0043470D01*
X0046092Y0043371D01*
X0045973Y0043275D01*
X0045851Y0043182D01*
X0045726Y0043093D01*
X0045599Y0043006D01*
X0045470Y0042924D01*
X0045339Y0042844D01*
X0045206Y0042768D01*
X0045071Y0042695D01*
X0044934Y0042626D01*
X0044795Y0042561D01*
X0044655Y0042499D01*
X0044513Y0042441D01*
X0044370Y0042386D01*
X0044225Y0042335D01*
X0044079Y0042288D01*
X0043932Y0042245D01*
X0043784Y0042206D01*
X0043635Y0042170D01*
X0043485Y0042139D01*
X0043334Y0042111D01*
X0043183Y0042087D01*
X0043030Y0042067D01*
X0042878Y0042051D01*
X0042725Y0042039D01*
X0042572Y0042031D01*
X0042419Y0042027D01*
X0042265Y0042027D01*
X0042112Y0042031D01*
X0041959Y0042039D01*
X0041806Y0042051D01*
X0041654Y0042067D01*
X0041501Y0042087D01*
X0041350Y0042111D01*
X0041199Y0042139D01*
X0041049Y0042170D01*
X0040900Y0042206D01*
X0040752Y0042245D01*
X0040605Y0042288D01*
X0040459Y0042335D01*
X0040314Y0042386D01*
X0040171Y0042441D01*
X0040029Y0042499D01*
X0039889Y0042561D01*
X0039750Y0042626D01*
X0039613Y0042695D01*
X0039478Y0042768D01*
X0039345Y0042844D01*
X0039214Y0042924D01*
X0039085Y0043006D01*
X0038958Y0043093D01*
X0038833Y0043182D01*
X0038711Y0043275D01*
X0038592Y0043371D01*
X0038474Y0043470D01*
X0038360Y0043571D01*
X0038248Y0043676D01*
X0038139Y0043784D01*
X0038033Y0043895D01*
X0037929Y0044008D01*
X0037829Y0044124D01*
X0037731Y0044242D01*
X0037637Y0044363D01*
X0037546Y0044486D01*
X0037458Y0044612D01*
X0037374Y0044740D01*
X0037292Y0044870D01*
X0037215Y0045002D01*
X0037140Y0045136D01*
X0037069Y0045272D01*
X0037002Y0045410D01*
X0036938Y0045550D01*
X0036878Y0045691D01*
X0036822Y0045833D01*
X0036769Y0045977D01*
X0036720Y0046123D01*
X0036675Y0046269D01*
X0036634Y0046417D01*
X0036597Y0046565D01*
X0036563Y0046715D01*
X0036533Y0046866D01*
X0036508Y0047017D01*
X0036486Y0047168D01*
X0036468Y0047321D01*
X0036454Y0047473D01*
X0036444Y0047626D01*
X0036438Y0047780D01*
X0036436Y0047933D01*
X0093436Y0065988D02*
X0093438Y0066122D01*
X0093444Y0066256D01*
X0093454Y0066390D01*
X0093468Y0066524D01*
X0093486Y0066657D01*
X0093507Y0066789D01*
X0093533Y0066921D01*
X0093563Y0067052D01*
X0093596Y0067182D01*
X0093633Y0067310D01*
X0093675Y0067438D01*
X0093719Y0067565D01*
X0093768Y0067690D01*
X0093820Y0067813D01*
X0093876Y0067935D01*
X0093936Y0068056D01*
X0093999Y0068174D01*
X0094065Y0068291D01*
X0094135Y0068405D01*
X0094208Y0068518D01*
X0094285Y0068628D01*
X0094365Y0068736D01*
X0094448Y0068841D01*
X0094534Y0068944D01*
X0094623Y0069044D01*
X0094715Y0069142D01*
X0094810Y0069237D01*
X0094908Y0069329D01*
X0095008Y0069418D01*
X0095111Y0069504D01*
X0095216Y0069587D01*
X0095324Y0069667D01*
X0095434Y0069744D01*
X0095547Y0069817D01*
X0095661Y0069887D01*
X0095778Y0069953D01*
X0095896Y0070016D01*
X0096017Y0070076D01*
X0096139Y0070132D01*
X0096262Y0070184D01*
X0096387Y0070233D01*
X0096514Y0070277D01*
X0096642Y0070319D01*
X0096770Y0070356D01*
X0096900Y0070389D01*
X0097031Y0070419D01*
X0097163Y0070445D01*
X0097295Y0070466D01*
X0097428Y0070484D01*
X0097562Y0070498D01*
X0097696Y0070508D01*
X0097830Y0070514D01*
X0097964Y0070516D01*
X0098098Y0070514D01*
X0098232Y0070508D01*
X0098366Y0070498D01*
X0098500Y0070484D01*
X0098633Y0070466D01*
X0098765Y0070445D01*
X0098897Y0070419D01*
X0099028Y0070389D01*
X0099158Y0070356D01*
X0099286Y0070319D01*
X0099414Y0070277D01*
X0099541Y0070233D01*
X0099666Y0070184D01*
X0099789Y0070132D01*
X0099911Y0070076D01*
X0100032Y0070016D01*
X0100150Y0069953D01*
X0100267Y0069887D01*
X0100381Y0069817D01*
X0100494Y0069744D01*
X0100604Y0069667D01*
X0100712Y0069587D01*
X0100817Y0069504D01*
X0100920Y0069418D01*
X0101020Y0069329D01*
X0101118Y0069237D01*
X0101213Y0069142D01*
X0101305Y0069044D01*
X0101394Y0068944D01*
X0101480Y0068841D01*
X0101563Y0068736D01*
X0101643Y0068628D01*
X0101720Y0068518D01*
X0101793Y0068405D01*
X0101863Y0068291D01*
X0101929Y0068174D01*
X0101992Y0068056D01*
X0102052Y0067935D01*
X0102108Y0067813D01*
X0102160Y0067690D01*
X0102209Y0067565D01*
X0102253Y0067438D01*
X0102295Y0067310D01*
X0102332Y0067182D01*
X0102365Y0067052D01*
X0102395Y0066921D01*
X0102421Y0066789D01*
X0102442Y0066657D01*
X0102460Y0066524D01*
X0102474Y0066390D01*
X0102484Y0066256D01*
X0102490Y0066122D01*
X0102492Y0065988D01*
X0102490Y0065854D01*
X0102484Y0065720D01*
X0102474Y0065586D01*
X0102460Y0065452D01*
X0102442Y0065319D01*
X0102421Y0065187D01*
X0102395Y0065055D01*
X0102365Y0064924D01*
X0102332Y0064794D01*
X0102295Y0064666D01*
X0102253Y0064538D01*
X0102209Y0064411D01*
X0102160Y0064286D01*
X0102108Y0064163D01*
X0102052Y0064041D01*
X0101992Y0063920D01*
X0101929Y0063802D01*
X0101863Y0063685D01*
X0101793Y0063571D01*
X0101720Y0063458D01*
X0101643Y0063348D01*
X0101563Y0063240D01*
X0101480Y0063135D01*
X0101394Y0063032D01*
X0101305Y0062932D01*
X0101213Y0062834D01*
X0101118Y0062739D01*
X0101020Y0062647D01*
X0100920Y0062558D01*
X0100817Y0062472D01*
X0100712Y0062389D01*
X0100604Y0062309D01*
X0100494Y0062232D01*
X0100381Y0062159D01*
X0100267Y0062089D01*
X0100150Y0062023D01*
X0100032Y0061960D01*
X0099911Y0061900D01*
X0099789Y0061844D01*
X0099666Y0061792D01*
X0099541Y0061743D01*
X0099414Y0061699D01*
X0099286Y0061657D01*
X0099158Y0061620D01*
X0099028Y0061587D01*
X0098897Y0061557D01*
X0098765Y0061531D01*
X0098633Y0061510D01*
X0098500Y0061492D01*
X0098366Y0061478D01*
X0098232Y0061468D01*
X0098098Y0061462D01*
X0097964Y0061460D01*
X0097830Y0061462D01*
X0097696Y0061468D01*
X0097562Y0061478D01*
X0097428Y0061492D01*
X0097295Y0061510D01*
X0097163Y0061531D01*
X0097031Y0061557D01*
X0096900Y0061587D01*
X0096770Y0061620D01*
X0096642Y0061657D01*
X0096514Y0061699D01*
X0096387Y0061743D01*
X0096262Y0061792D01*
X0096139Y0061844D01*
X0096017Y0061900D01*
X0095896Y0061960D01*
X0095778Y0062023D01*
X0095661Y0062089D01*
X0095547Y0062159D01*
X0095434Y0062232D01*
X0095324Y0062309D01*
X0095216Y0062389D01*
X0095111Y0062472D01*
X0095008Y0062558D01*
X0094908Y0062647D01*
X0094810Y0062739D01*
X0094715Y0062834D01*
X0094623Y0062932D01*
X0094534Y0063032D01*
X0094448Y0063135D01*
X0094365Y0063240D01*
X0094285Y0063348D01*
X0094208Y0063458D01*
X0094135Y0063571D01*
X0094065Y0063685D01*
X0093999Y0063802D01*
X0093936Y0063920D01*
X0093876Y0064041D01*
X0093820Y0064163D01*
X0093768Y0064286D01*
X0093719Y0064411D01*
X0093675Y0064538D01*
X0093633Y0064666D01*
X0093596Y0064794D01*
X0093563Y0064924D01*
X0093533Y0065055D01*
X0093507Y0065187D01*
X0093486Y0065319D01*
X0093468Y0065452D01*
X0093454Y0065586D01*
X0093444Y0065720D01*
X0093438Y0065854D01*
X0093436Y0065988D01*
X0100436Y0047933D02*
X0100438Y0048086D01*
X0100444Y0048240D01*
X0100454Y0048393D01*
X0100468Y0048545D01*
X0100486Y0048698D01*
X0100508Y0048849D01*
X0100533Y0049000D01*
X0100563Y0049151D01*
X0100597Y0049301D01*
X0100634Y0049449D01*
X0100675Y0049597D01*
X0100720Y0049743D01*
X0100769Y0049889D01*
X0100822Y0050033D01*
X0100878Y0050175D01*
X0100938Y0050316D01*
X0101002Y0050456D01*
X0101069Y0050594D01*
X0101140Y0050730D01*
X0101215Y0050864D01*
X0101292Y0050996D01*
X0101374Y0051126D01*
X0101458Y0051254D01*
X0101546Y0051380D01*
X0101637Y0051503D01*
X0101731Y0051624D01*
X0101829Y0051742D01*
X0101929Y0051858D01*
X0102033Y0051971D01*
X0102139Y0052082D01*
X0102248Y0052190D01*
X0102360Y0052295D01*
X0102474Y0052396D01*
X0102592Y0052495D01*
X0102711Y0052591D01*
X0102833Y0052684D01*
X0102958Y0052773D01*
X0103085Y0052860D01*
X0103214Y0052942D01*
X0103345Y0053022D01*
X0103478Y0053098D01*
X0103613Y0053171D01*
X0103750Y0053240D01*
X0103889Y0053305D01*
X0104029Y0053367D01*
X0104171Y0053425D01*
X0104314Y0053480D01*
X0104459Y0053531D01*
X0104605Y0053578D01*
X0104752Y0053621D01*
X0104900Y0053660D01*
X0105049Y0053696D01*
X0105199Y0053727D01*
X0105350Y0053755D01*
X0105501Y0053779D01*
X0105654Y0053799D01*
X0105806Y0053815D01*
X0105959Y0053827D01*
X0106112Y0053835D01*
X0106265Y0053839D01*
X0106419Y0053839D01*
X0106572Y0053835D01*
X0106725Y0053827D01*
X0106878Y0053815D01*
X0107030Y0053799D01*
X0107183Y0053779D01*
X0107334Y0053755D01*
X0107485Y0053727D01*
X0107635Y0053696D01*
X0107784Y0053660D01*
X0107932Y0053621D01*
X0108079Y0053578D01*
X0108225Y0053531D01*
X0108370Y0053480D01*
X0108513Y0053425D01*
X0108655Y0053367D01*
X0108795Y0053305D01*
X0108934Y0053240D01*
X0109071Y0053171D01*
X0109206Y0053098D01*
X0109339Y0053022D01*
X0109470Y0052942D01*
X0109599Y0052860D01*
X0109726Y0052773D01*
X0109851Y0052684D01*
X0109973Y0052591D01*
X0110092Y0052495D01*
X0110210Y0052396D01*
X0110324Y0052295D01*
X0110436Y0052190D01*
X0110545Y0052082D01*
X0110651Y0051971D01*
X0110755Y0051858D01*
X0110855Y0051742D01*
X0110953Y0051624D01*
X0111047Y0051503D01*
X0111138Y0051380D01*
X0111226Y0051254D01*
X0111310Y0051126D01*
X0111392Y0050996D01*
X0111469Y0050864D01*
X0111544Y0050730D01*
X0111615Y0050594D01*
X0111682Y0050456D01*
X0111746Y0050316D01*
X0111806Y0050175D01*
X0111862Y0050033D01*
X0111915Y0049889D01*
X0111964Y0049743D01*
X0112009Y0049597D01*
X0112050Y0049449D01*
X0112087Y0049301D01*
X0112121Y0049151D01*
X0112151Y0049000D01*
X0112176Y0048849D01*
X0112198Y0048698D01*
X0112216Y0048545D01*
X0112230Y0048393D01*
X0112240Y0048240D01*
X0112246Y0048086D01*
X0112248Y0047933D01*
X0112246Y0047780D01*
X0112240Y0047626D01*
X0112230Y0047473D01*
X0112216Y0047321D01*
X0112198Y0047168D01*
X0112176Y0047017D01*
X0112151Y0046866D01*
X0112121Y0046715D01*
X0112087Y0046565D01*
X0112050Y0046417D01*
X0112009Y0046269D01*
X0111964Y0046123D01*
X0111915Y0045977D01*
X0111862Y0045833D01*
X0111806Y0045691D01*
X0111746Y0045550D01*
X0111682Y0045410D01*
X0111615Y0045272D01*
X0111544Y0045136D01*
X0111469Y0045002D01*
X0111392Y0044870D01*
X0111310Y0044740D01*
X0111226Y0044612D01*
X0111138Y0044486D01*
X0111047Y0044363D01*
X0110953Y0044242D01*
X0110855Y0044124D01*
X0110755Y0044008D01*
X0110651Y0043895D01*
X0110545Y0043784D01*
X0110436Y0043676D01*
X0110324Y0043571D01*
X0110210Y0043470D01*
X0110092Y0043371D01*
X0109973Y0043275D01*
X0109851Y0043182D01*
X0109726Y0043093D01*
X0109599Y0043006D01*
X0109470Y0042924D01*
X0109339Y0042844D01*
X0109206Y0042768D01*
X0109071Y0042695D01*
X0108934Y0042626D01*
X0108795Y0042561D01*
X0108655Y0042499D01*
X0108513Y0042441D01*
X0108370Y0042386D01*
X0108225Y0042335D01*
X0108079Y0042288D01*
X0107932Y0042245D01*
X0107784Y0042206D01*
X0107635Y0042170D01*
X0107485Y0042139D01*
X0107334Y0042111D01*
X0107183Y0042087D01*
X0107030Y0042067D01*
X0106878Y0042051D01*
X0106725Y0042039D01*
X0106572Y0042031D01*
X0106419Y0042027D01*
X0106265Y0042027D01*
X0106112Y0042031D01*
X0105959Y0042039D01*
X0105806Y0042051D01*
X0105654Y0042067D01*
X0105501Y0042087D01*
X0105350Y0042111D01*
X0105199Y0042139D01*
X0105049Y0042170D01*
X0104900Y0042206D01*
X0104752Y0042245D01*
X0104605Y0042288D01*
X0104459Y0042335D01*
X0104314Y0042386D01*
X0104171Y0042441D01*
X0104029Y0042499D01*
X0103889Y0042561D01*
X0103750Y0042626D01*
X0103613Y0042695D01*
X0103478Y0042768D01*
X0103345Y0042844D01*
X0103214Y0042924D01*
X0103085Y0043006D01*
X0102958Y0043093D01*
X0102833Y0043182D01*
X0102711Y0043275D01*
X0102592Y0043371D01*
X0102474Y0043470D01*
X0102360Y0043571D01*
X0102248Y0043676D01*
X0102139Y0043784D01*
X0102033Y0043895D01*
X0101929Y0044008D01*
X0101829Y0044124D01*
X0101731Y0044242D01*
X0101637Y0044363D01*
X0101546Y0044486D01*
X0101458Y0044612D01*
X0101374Y0044740D01*
X0101292Y0044870D01*
X0101215Y0045002D01*
X0101140Y0045136D01*
X0101069Y0045272D01*
X0101002Y0045410D01*
X0100938Y0045550D01*
X0100878Y0045691D01*
X0100822Y0045833D01*
X0100769Y0045977D01*
X0100720Y0046123D01*
X0100675Y0046269D01*
X0100634Y0046417D01*
X0100597Y0046565D01*
X0100563Y0046715D01*
X0100533Y0046866D01*
X0100508Y0047017D01*
X0100486Y0047168D01*
X0100468Y0047321D01*
X0100454Y0047473D01*
X0100444Y0047626D01*
X0100438Y0047780D01*
X0100436Y0047933D01*
D13*
X0070860Y0102133D02*
X0068305Y0102133D01*
X0069583Y0102133D02*
X0069583Y0106733D01*
X0068305Y0105711D01*
X0066586Y0106733D02*
X0065564Y0106733D01*
X0065502Y0106731D01*
X0065441Y0106726D01*
X0065380Y0106716D01*
X0065319Y0106703D01*
X0065260Y0106687D01*
X0065202Y0106667D01*
X0065145Y0106643D01*
X0065089Y0106616D01*
X0065035Y0106586D01*
X0064983Y0106552D01*
X0064934Y0106515D01*
X0064886Y0106476D01*
X0064841Y0106434D01*
X0064799Y0106389D01*
X0064759Y0106341D01*
X0064723Y0106292D01*
X0064689Y0106240D01*
X0064659Y0106186D01*
X0064632Y0106130D01*
X0064608Y0106073D01*
X0064588Y0106015D01*
X0064572Y0105956D01*
X0064559Y0105895D01*
X0064549Y0105834D01*
X0064544Y0105773D01*
X0064542Y0105711D01*
X0064542Y0103155D01*
X0064544Y0103093D01*
X0064549Y0103032D01*
X0064559Y0102971D01*
X0064572Y0102910D01*
X0064588Y0102851D01*
X0064608Y0102793D01*
X0064632Y0102736D01*
X0064659Y0102680D01*
X0064689Y0102626D01*
X0064723Y0102574D01*
X0064759Y0102525D01*
X0064799Y0102477D01*
X0064841Y0102432D01*
X0064886Y0102390D01*
X0064934Y0102350D01*
X0064983Y0102314D01*
X0065035Y0102280D01*
X0065089Y0102250D01*
X0065145Y0102223D01*
X0065202Y0102199D01*
X0065260Y0102179D01*
X0065319Y0102163D01*
X0065380Y0102150D01*
X0065441Y0102140D01*
X0065502Y0102135D01*
X0065564Y0102133D01*
X0066586Y0102133D01*
D14*
X0066181Y0033483D02*
X0066681Y0031983D01*
X0066556Y0032358D02*
X0065806Y0032358D01*
X0065681Y0031983D02*
X0066181Y0033483D01*
X0067253Y0033483D02*
X0067253Y0031983D01*
X0067669Y0031983D01*
X0067707Y0031985D01*
X0067746Y0031990D01*
X0067783Y0031999D01*
X0067820Y0032011D01*
X0067855Y0032027D01*
X0067889Y0032045D01*
X0067920Y0032067D01*
X0067950Y0032092D01*
X0067977Y0032119D01*
X0068002Y0032149D01*
X0068024Y0032180D01*
X0068042Y0032214D01*
X0068058Y0032249D01*
X0068070Y0032286D01*
X0068079Y0032323D01*
X0068084Y0032362D01*
X0068086Y0032400D01*
X0068086Y0033066D01*
X0068084Y0033104D01*
X0068079Y0033143D01*
X0068070Y0033180D01*
X0068058Y0033217D01*
X0068042Y0033252D01*
X0068024Y0033286D01*
X0068002Y0033317D01*
X0067977Y0033347D01*
X0067950Y0033374D01*
X0067920Y0033399D01*
X0067889Y0033421D01*
X0067855Y0033439D01*
X0067820Y0033455D01*
X0067783Y0033467D01*
X0067746Y0033476D01*
X0067707Y0033481D01*
X0067669Y0033483D01*
X0067253Y0033483D01*
X0068741Y0033150D02*
X0069157Y0033483D01*
X0069157Y0031983D01*
X0068741Y0031983D02*
X0069574Y0031983D01*
X0064808Y0032650D02*
X0064392Y0032650D01*
X0064808Y0032649D02*
X0064848Y0032651D01*
X0064887Y0032657D01*
X0064925Y0032666D01*
X0064963Y0032679D01*
X0064999Y0032695D01*
X0065033Y0032715D01*
X0065066Y0032738D01*
X0065096Y0032764D01*
X0065123Y0032793D01*
X0065148Y0032824D01*
X0065169Y0032858D01*
X0065187Y0032893D01*
X0065202Y0032930D01*
X0065213Y0032968D01*
X0065221Y0033007D01*
X0065225Y0033046D01*
X0065225Y0033086D01*
X0065221Y0033125D01*
X0065213Y0033164D01*
X0065202Y0033202D01*
X0065187Y0033239D01*
X0065169Y0033275D01*
X0065148Y0033308D01*
X0065123Y0033339D01*
X0065096Y0033368D01*
X0065066Y0033394D01*
X0065033Y0033417D01*
X0064999Y0033437D01*
X0064963Y0033453D01*
X0064925Y0033466D01*
X0064887Y0033475D01*
X0064848Y0033481D01*
X0064808Y0033483D01*
X0064392Y0033483D01*
X0064392Y0031983D01*
X0059574Y0032316D02*
X0058741Y0032316D01*
X0059074Y0033483D01*
X0059324Y0032650D02*
X0059324Y0031983D01*
X0058086Y0032400D02*
X0058086Y0033066D01*
X0058084Y0033104D01*
X0058079Y0033143D01*
X0058070Y0033180D01*
X0058058Y0033217D01*
X0058042Y0033252D01*
X0058024Y0033286D01*
X0058002Y0033317D01*
X0057977Y0033347D01*
X0057950Y0033374D01*
X0057920Y0033399D01*
X0057889Y0033421D01*
X0057855Y0033439D01*
X0057820Y0033455D01*
X0057783Y0033467D01*
X0057746Y0033476D01*
X0057707Y0033481D01*
X0057669Y0033483D01*
X0057253Y0033483D01*
X0057253Y0031983D01*
X0057669Y0031983D01*
X0057707Y0031985D01*
X0057746Y0031990D01*
X0057783Y0031999D01*
X0057820Y0032011D01*
X0057855Y0032027D01*
X0057889Y0032045D01*
X0057920Y0032067D01*
X0057950Y0032092D01*
X0057977Y0032119D01*
X0058002Y0032149D01*
X0058024Y0032180D01*
X0058042Y0032214D01*
X0058058Y0032249D01*
X0058070Y0032286D01*
X0058079Y0032323D01*
X0058084Y0032362D01*
X0058086Y0032400D01*
X0056681Y0031983D02*
X0056181Y0033483D01*
X0055681Y0031983D01*
X0055806Y0032358D02*
X0056556Y0032358D01*
X0054808Y0032650D02*
X0054392Y0032650D01*
X0054808Y0032649D02*
X0054848Y0032651D01*
X0054887Y0032657D01*
X0054925Y0032666D01*
X0054963Y0032679D01*
X0054999Y0032695D01*
X0055033Y0032715D01*
X0055066Y0032738D01*
X0055096Y0032764D01*
X0055123Y0032793D01*
X0055148Y0032824D01*
X0055169Y0032858D01*
X0055187Y0032893D01*
X0055202Y0032930D01*
X0055213Y0032968D01*
X0055221Y0033007D01*
X0055225Y0033046D01*
X0055225Y0033086D01*
X0055221Y0033125D01*
X0055213Y0033164D01*
X0055202Y0033202D01*
X0055187Y0033239D01*
X0055169Y0033275D01*
X0055148Y0033308D01*
X0055123Y0033339D01*
X0055096Y0033368D01*
X0055066Y0033394D01*
X0055033Y0033417D01*
X0054999Y0033437D01*
X0054963Y0033453D01*
X0054925Y0033466D01*
X0054887Y0033475D01*
X0054848Y0033481D01*
X0054808Y0033483D01*
X0054392Y0033483D01*
X0054392Y0031983D01*
X0074392Y0031983D02*
X0074392Y0033483D01*
X0074808Y0033483D01*
X0074848Y0033481D01*
X0074887Y0033475D01*
X0074925Y0033466D01*
X0074963Y0033453D01*
X0074999Y0033437D01*
X0075033Y0033417D01*
X0075066Y0033394D01*
X0075096Y0033368D01*
X0075123Y0033339D01*
X0075148Y0033308D01*
X0075169Y0033275D01*
X0075187Y0033239D01*
X0075202Y0033202D01*
X0075213Y0033164D01*
X0075221Y0033125D01*
X0075225Y0033086D01*
X0075225Y0033046D01*
X0075221Y0033007D01*
X0075213Y0032968D01*
X0075202Y0032930D01*
X0075187Y0032893D01*
X0075169Y0032858D01*
X0075148Y0032824D01*
X0075123Y0032793D01*
X0075096Y0032764D01*
X0075066Y0032738D01*
X0075033Y0032715D01*
X0074999Y0032695D01*
X0074963Y0032679D01*
X0074925Y0032666D01*
X0074887Y0032657D01*
X0074848Y0032651D01*
X0074808Y0032649D01*
X0074808Y0032650D02*
X0074392Y0032650D01*
X0075806Y0032358D02*
X0076556Y0032358D01*
X0076681Y0031983D02*
X0076181Y0033483D01*
X0075681Y0031983D01*
X0077253Y0031983D02*
X0077253Y0033483D01*
X0077669Y0033483D01*
X0077707Y0033481D01*
X0077746Y0033476D01*
X0077783Y0033467D01*
X0077820Y0033455D01*
X0077855Y0033439D01*
X0077889Y0033421D01*
X0077920Y0033399D01*
X0077950Y0033374D01*
X0077977Y0033347D01*
X0078002Y0033317D01*
X0078024Y0033286D01*
X0078042Y0033252D01*
X0078058Y0033217D01*
X0078070Y0033180D01*
X0078079Y0033143D01*
X0078084Y0033104D01*
X0078086Y0033066D01*
X0078086Y0032400D01*
X0078084Y0032362D01*
X0078079Y0032323D01*
X0078070Y0032286D01*
X0078058Y0032249D01*
X0078042Y0032214D01*
X0078024Y0032180D01*
X0078002Y0032149D01*
X0077977Y0032119D01*
X0077950Y0032092D01*
X0077920Y0032067D01*
X0077889Y0032045D01*
X0077855Y0032027D01*
X0077820Y0032011D01*
X0077783Y0031999D01*
X0077746Y0031990D01*
X0077707Y0031985D01*
X0077669Y0031983D01*
X0077253Y0031983D01*
X0078741Y0031983D02*
X0079241Y0031983D01*
X0079276Y0031985D01*
X0079310Y0031990D01*
X0079344Y0031999D01*
X0079376Y0032012D01*
X0079408Y0032028D01*
X0079437Y0032047D01*
X0079464Y0032069D01*
X0079488Y0032093D01*
X0079510Y0032120D01*
X0079529Y0032150D01*
X0079545Y0032181D01*
X0079558Y0032213D01*
X0079567Y0032247D01*
X0079572Y0032281D01*
X0079574Y0032316D01*
X0079574Y0032483D01*
X0079572Y0032518D01*
X0079567Y0032552D01*
X0079558Y0032586D01*
X0079545Y0032618D01*
X0079529Y0032650D01*
X0079510Y0032679D01*
X0079488Y0032706D01*
X0079464Y0032730D01*
X0079437Y0032752D01*
X0079408Y0032771D01*
X0079376Y0032787D01*
X0079344Y0032800D01*
X0079310Y0032809D01*
X0079276Y0032814D01*
X0079241Y0032816D01*
X0078741Y0032816D01*
X0078741Y0033483D01*
X0079574Y0033483D01*
X0084392Y0033483D02*
X0084392Y0031983D01*
X0084392Y0032650D02*
X0084808Y0032650D01*
X0084808Y0032649D02*
X0084848Y0032651D01*
X0084887Y0032657D01*
X0084925Y0032666D01*
X0084963Y0032679D01*
X0084999Y0032695D01*
X0085033Y0032715D01*
X0085066Y0032738D01*
X0085096Y0032764D01*
X0085123Y0032793D01*
X0085148Y0032824D01*
X0085169Y0032858D01*
X0085187Y0032893D01*
X0085202Y0032930D01*
X0085213Y0032968D01*
X0085221Y0033007D01*
X0085225Y0033046D01*
X0085225Y0033086D01*
X0085221Y0033125D01*
X0085213Y0033164D01*
X0085202Y0033202D01*
X0085187Y0033239D01*
X0085169Y0033275D01*
X0085148Y0033308D01*
X0085123Y0033339D01*
X0085096Y0033368D01*
X0085066Y0033394D01*
X0085033Y0033417D01*
X0084999Y0033437D01*
X0084963Y0033453D01*
X0084925Y0033466D01*
X0084887Y0033475D01*
X0084848Y0033481D01*
X0084808Y0033483D01*
X0084392Y0033483D01*
X0086181Y0033483D02*
X0086681Y0031983D01*
X0086556Y0032358D02*
X0085806Y0032358D01*
X0085681Y0031983D02*
X0086181Y0033483D01*
X0087253Y0033483D02*
X0087253Y0031983D01*
X0087669Y0031983D01*
X0087707Y0031985D01*
X0087746Y0031990D01*
X0087783Y0031999D01*
X0087820Y0032011D01*
X0087855Y0032027D01*
X0087889Y0032045D01*
X0087920Y0032067D01*
X0087950Y0032092D01*
X0087977Y0032119D01*
X0088002Y0032149D01*
X0088024Y0032180D01*
X0088042Y0032214D01*
X0088058Y0032249D01*
X0088070Y0032286D01*
X0088079Y0032323D01*
X0088084Y0032362D01*
X0088086Y0032400D01*
X0088086Y0033066D01*
X0088084Y0033104D01*
X0088079Y0033143D01*
X0088070Y0033180D01*
X0088058Y0033217D01*
X0088042Y0033252D01*
X0088024Y0033286D01*
X0088002Y0033317D01*
X0087977Y0033347D01*
X0087950Y0033374D01*
X0087920Y0033399D01*
X0087889Y0033421D01*
X0087855Y0033439D01*
X0087820Y0033455D01*
X0087783Y0033467D01*
X0087746Y0033476D01*
X0087707Y0033481D01*
X0087669Y0033483D01*
X0087253Y0033483D01*
X0088741Y0031983D02*
X0089574Y0031983D01*
X0088741Y0031983D02*
X0089449Y0032816D01*
X0089199Y0033483D02*
X0089159Y0033481D01*
X0089119Y0033476D01*
X0089079Y0033468D01*
X0089040Y0033456D01*
X0089003Y0033441D01*
X0088967Y0033423D01*
X0088932Y0033402D01*
X0088899Y0033379D01*
X0088869Y0033352D01*
X0088841Y0033323D01*
X0088815Y0033292D01*
X0088792Y0033259D01*
X0088772Y0033224D01*
X0088754Y0033187D01*
X0088740Y0033149D01*
X0089449Y0032816D02*
X0089474Y0032842D01*
X0089497Y0032871D01*
X0089517Y0032901D01*
X0089534Y0032933D01*
X0089548Y0032966D01*
X0089559Y0033001D01*
X0089567Y0033036D01*
X0089572Y0033072D01*
X0089574Y0033108D01*
X0089572Y0033145D01*
X0089567Y0033181D01*
X0089558Y0033217D01*
X0089545Y0033252D01*
X0089530Y0033285D01*
X0089511Y0033316D01*
X0089489Y0033346D01*
X0089464Y0033373D01*
X0089437Y0033398D01*
X0089407Y0033420D01*
X0089376Y0033439D01*
X0089343Y0033454D01*
X0089308Y0033467D01*
X0089272Y0033476D01*
X0089236Y0033481D01*
X0089199Y0033483D01*
X0094392Y0033483D02*
X0094392Y0031983D01*
X0094392Y0032650D02*
X0094808Y0032650D01*
X0094808Y0032649D02*
X0094848Y0032651D01*
X0094887Y0032657D01*
X0094925Y0032666D01*
X0094963Y0032679D01*
X0094999Y0032695D01*
X0095033Y0032715D01*
X0095066Y0032738D01*
X0095096Y0032764D01*
X0095123Y0032793D01*
X0095148Y0032824D01*
X0095169Y0032858D01*
X0095187Y0032893D01*
X0095202Y0032930D01*
X0095213Y0032968D01*
X0095221Y0033007D01*
X0095225Y0033046D01*
X0095225Y0033086D01*
X0095221Y0033125D01*
X0095213Y0033164D01*
X0095202Y0033202D01*
X0095187Y0033239D01*
X0095169Y0033275D01*
X0095148Y0033308D01*
X0095123Y0033339D01*
X0095096Y0033368D01*
X0095066Y0033394D01*
X0095033Y0033417D01*
X0094999Y0033437D01*
X0094963Y0033453D01*
X0094925Y0033466D01*
X0094887Y0033475D01*
X0094848Y0033481D01*
X0094808Y0033483D01*
X0094392Y0033483D01*
X0096181Y0033483D02*
X0095681Y0031983D01*
X0095806Y0032358D02*
X0096556Y0032358D01*
X0096681Y0031983D02*
X0096181Y0033483D01*
X0097253Y0033483D02*
X0097253Y0031983D01*
X0097669Y0031983D01*
X0097707Y0031985D01*
X0097746Y0031990D01*
X0097783Y0031999D01*
X0097820Y0032011D01*
X0097855Y0032027D01*
X0097889Y0032045D01*
X0097920Y0032067D01*
X0097950Y0032092D01*
X0097977Y0032119D01*
X0098002Y0032149D01*
X0098024Y0032180D01*
X0098042Y0032214D01*
X0098058Y0032249D01*
X0098070Y0032286D01*
X0098079Y0032323D01*
X0098084Y0032362D01*
X0098086Y0032400D01*
X0098086Y0033066D01*
X0098084Y0033104D01*
X0098079Y0033143D01*
X0098070Y0033180D01*
X0098058Y0033217D01*
X0098042Y0033252D01*
X0098024Y0033286D01*
X0098002Y0033317D01*
X0097977Y0033347D01*
X0097950Y0033374D01*
X0097920Y0033399D01*
X0097889Y0033421D01*
X0097855Y0033439D01*
X0097820Y0033455D01*
X0097783Y0033467D01*
X0097746Y0033476D01*
X0097707Y0033481D01*
X0097669Y0033483D01*
X0097253Y0033483D01*
X0098741Y0032816D02*
X0098741Y0032400D01*
X0098741Y0032816D02*
X0099241Y0032816D01*
X0098740Y0032816D02*
X0098742Y0032866D01*
X0098747Y0032915D01*
X0098757Y0032964D01*
X0098770Y0033013D01*
X0098786Y0033060D01*
X0098806Y0033105D01*
X0098829Y0033149D01*
X0098856Y0033192D01*
X0098886Y0033232D01*
X0098918Y0033270D01*
X0098953Y0033305D01*
X0098991Y0033337D01*
X0099031Y0033367D01*
X0099073Y0033394D01*
X0099118Y0033417D01*
X0099163Y0033437D01*
X0099210Y0033453D01*
X0099259Y0033466D01*
X0099308Y0033476D01*
X0099357Y0033481D01*
X0099407Y0033483D01*
X0099241Y0032816D02*
X0099276Y0032814D01*
X0099310Y0032809D01*
X0099344Y0032800D01*
X0099376Y0032787D01*
X0099408Y0032771D01*
X0099437Y0032752D01*
X0099464Y0032730D01*
X0099488Y0032706D01*
X0099510Y0032679D01*
X0099529Y0032650D01*
X0099545Y0032618D01*
X0099558Y0032586D01*
X0099567Y0032552D01*
X0099572Y0032518D01*
X0099574Y0032483D01*
X0099574Y0032400D01*
X0099572Y0032360D01*
X0099566Y0032321D01*
X0099557Y0032283D01*
X0099544Y0032245D01*
X0099528Y0032209D01*
X0099508Y0032175D01*
X0099485Y0032142D01*
X0099459Y0032112D01*
X0099430Y0032085D01*
X0099399Y0032060D01*
X0099366Y0032039D01*
X0099330Y0032021D01*
X0099293Y0032006D01*
X0099255Y0031995D01*
X0099216Y0031987D01*
X0099177Y0031983D01*
X0099137Y0031983D01*
X0099098Y0031987D01*
X0099059Y0031995D01*
X0099021Y0032006D01*
X0098984Y0032021D01*
X0098949Y0032039D01*
X0098915Y0032060D01*
X0098884Y0032085D01*
X0098855Y0032112D01*
X0098829Y0032142D01*
X0098806Y0032175D01*
X0098786Y0032209D01*
X0098770Y0032245D01*
X0098757Y0032283D01*
X0098748Y0032321D01*
X0098742Y0032360D01*
X0098740Y0032400D01*
X0104392Y0032650D02*
X0104808Y0032650D01*
X0104808Y0032649D02*
X0104848Y0032651D01*
X0104887Y0032657D01*
X0104925Y0032666D01*
X0104963Y0032679D01*
X0104999Y0032695D01*
X0105033Y0032715D01*
X0105066Y0032738D01*
X0105096Y0032764D01*
X0105123Y0032793D01*
X0105148Y0032824D01*
X0105169Y0032858D01*
X0105187Y0032893D01*
X0105202Y0032930D01*
X0105213Y0032968D01*
X0105221Y0033007D01*
X0105225Y0033046D01*
X0105225Y0033086D01*
X0105221Y0033125D01*
X0105213Y0033164D01*
X0105202Y0033202D01*
X0105187Y0033239D01*
X0105169Y0033275D01*
X0105148Y0033308D01*
X0105123Y0033339D01*
X0105096Y0033368D01*
X0105066Y0033394D01*
X0105033Y0033417D01*
X0104999Y0033437D01*
X0104963Y0033453D01*
X0104925Y0033466D01*
X0104887Y0033475D01*
X0104848Y0033481D01*
X0104808Y0033483D01*
X0104392Y0033483D01*
X0104392Y0031983D01*
X0105681Y0031983D02*
X0106181Y0033483D01*
X0106681Y0031983D01*
X0106556Y0032358D02*
X0105806Y0032358D01*
X0107253Y0031983D02*
X0107253Y0033483D01*
X0107669Y0033483D01*
X0107707Y0033481D01*
X0107746Y0033476D01*
X0107783Y0033467D01*
X0107820Y0033455D01*
X0107855Y0033439D01*
X0107889Y0033421D01*
X0107920Y0033399D01*
X0107950Y0033374D01*
X0107977Y0033347D01*
X0108002Y0033317D01*
X0108024Y0033286D01*
X0108042Y0033252D01*
X0108058Y0033217D01*
X0108070Y0033180D01*
X0108079Y0033143D01*
X0108084Y0033104D01*
X0108086Y0033066D01*
X0108086Y0032400D01*
X0108084Y0032362D01*
X0108079Y0032323D01*
X0108070Y0032286D01*
X0108058Y0032249D01*
X0108042Y0032214D01*
X0108024Y0032180D01*
X0108002Y0032149D01*
X0107977Y0032119D01*
X0107950Y0032092D01*
X0107920Y0032067D01*
X0107889Y0032045D01*
X0107855Y0032027D01*
X0107820Y0032011D01*
X0107783Y0031999D01*
X0107746Y0031990D01*
X0107707Y0031985D01*
X0107669Y0031983D01*
X0107253Y0031983D01*
X0108741Y0031983D02*
X0109157Y0031983D01*
X0109197Y0031985D01*
X0109236Y0031991D01*
X0109274Y0032000D01*
X0109312Y0032013D01*
X0109348Y0032029D01*
X0109382Y0032049D01*
X0109415Y0032072D01*
X0109445Y0032098D01*
X0109472Y0032127D01*
X0109497Y0032158D01*
X0109518Y0032192D01*
X0109536Y0032227D01*
X0109551Y0032264D01*
X0109562Y0032302D01*
X0109570Y0032341D01*
X0109574Y0032380D01*
X0109574Y0032420D01*
X0109570Y0032459D01*
X0109562Y0032498D01*
X0109551Y0032536D01*
X0109536Y0032573D01*
X0109518Y0032608D01*
X0109497Y0032642D01*
X0109472Y0032673D01*
X0109445Y0032702D01*
X0109415Y0032728D01*
X0109382Y0032751D01*
X0109348Y0032771D01*
X0109312Y0032787D01*
X0109274Y0032800D01*
X0109236Y0032809D01*
X0109197Y0032815D01*
X0109157Y0032817D01*
X0109241Y0032816D02*
X0108907Y0032816D01*
X0109241Y0032817D02*
X0109276Y0032819D01*
X0109310Y0032824D01*
X0109344Y0032833D01*
X0109376Y0032846D01*
X0109408Y0032862D01*
X0109437Y0032881D01*
X0109464Y0032903D01*
X0109488Y0032927D01*
X0109510Y0032954D01*
X0109529Y0032984D01*
X0109545Y0033015D01*
X0109558Y0033047D01*
X0109567Y0033081D01*
X0109572Y0033115D01*
X0109574Y0033150D01*
X0109572Y0033185D01*
X0109567Y0033219D01*
X0109558Y0033253D01*
X0109545Y0033285D01*
X0109529Y0033317D01*
X0109510Y0033346D01*
X0109488Y0033373D01*
X0109464Y0033397D01*
X0109437Y0033419D01*
X0109408Y0033438D01*
X0109376Y0033454D01*
X0109344Y0033467D01*
X0109310Y0033476D01*
X0109276Y0033481D01*
X0109241Y0033483D01*
X0108741Y0033483D01*
M02*
