%
M48
M72
T01C0.01378
T02C0.03150
T03C0.03200
T04C0.03543
T05C0.03800
T06C0.03937
T07C0.04000
T08C0.05906
T09C0.09055
T10C0.10827
T11C0.11024
T12C0.11811
T13C0.47244
%
T01
X123347Y154793
X119410Y166604
X107599Y178415
X156812Y194163
X221772Y272904
X229646Y276841
X259174Y263061
X308387Y263061
X322166Y207943
X333977Y190226
X300513Y174478
X367442Y312274
X280828Y351644
X257206Y404793
X211930Y361486
X217835Y355581
X158780Y467785
X174528Y489439
X225709Y485502
X243426Y507156
X290670Y540620
X296576Y522904
X286733Y564242
X239489Y568179
X125316Y538652
X121379Y505187
X82009Y485502
X54450Y513061
X82009Y280778
X46576Y170541
X395001Y475659
X402875Y536683
X509174Y229596
T02
X214646Y176014
X214646Y166014
X214646Y156014
X214646Y146014
X214646Y136014
X214646Y126014
X214646Y116014
X214646Y106014
X214646Y96014
X214646Y86014
X214646Y76014
X214646Y66014
X214646Y56014
X214646Y46014
X214646Y36014
X154646Y36014
X154646Y46014
X154646Y56014
X154646Y66014
X154646Y76014
X154646Y86014
X154646Y96014
X154646Y106014
X154646Y116014
X154646Y126014
X154646Y136014
X154646Y146014
X154646Y156014
X154646Y166014
X154646Y176014
T03
X54961Y291919
X44961Y291919
X309253Y510305
X329253Y510305
X341772Y510305
X361772Y510305
X374213Y510305
X394213Y510305
X406654Y510305
X426654Y510305
X439253Y510305
X459253Y510305
T04
X505237Y555148
X505237Y585148
X306536Y327116
X298505Y327116
X290473Y327116
X294489Y317116
X302520Y317116
X310552Y317116
X338820Y312392
X338820Y304360
X338820Y296329
X348820Y300344
X348820Y308376
X348820Y316407
X353465Y268061
X361497Y268061
X369528Y268061
X365513Y258061
X373544Y258061
X357481Y258061
X306536Y201132
X298505Y201132
X290473Y201132
X294489Y191132
X302520Y191132
X310552Y191132
X247560Y258061
X239528Y258061
X231497Y258061
X235513Y268061
X243544Y268061
X227481Y268061
X252206Y296329
X252206Y304360
X252206Y312392
X262206Y316407
X262206Y308376
X262206Y300344
X543544Y279990
X543544Y271959
X553544Y275974
X553544Y267943
X553544Y259911
X543544Y263927
T05
X245977Y527112
X235977Y527112
X225977Y527112
X215977Y527112
X205977Y527112
X195977Y527112
X185977Y527112
X175977Y527112
X165977Y527112
X155977Y527112
X145977Y527112
X135977Y527112
X125977Y527112
X115977Y527112
X105977Y527112
X95977Y527112
X85977Y527112
X75977Y527112
X65977Y527112
X55977Y527112
X45977Y527112
X35977Y527112
X25977Y527112
X15977Y527112
X25977Y577112
X25977Y587112
X35977Y587112
X45977Y587112
X55977Y587112
X55977Y577112
X45977Y577112
X65977Y577112
X65977Y587112
X75977Y587112
X85977Y587112
X95977Y587112
X105977Y587112
X115977Y587112
X125977Y587112
X135977Y587112
X145977Y587112
X155977Y587112
X165977Y587112
X175977Y587112
X185977Y587112
X195977Y587112
X205977Y587112
X215977Y587112
X225977Y587112
X235977Y587112
X245977Y587112
X15977Y587112
T06
X19883Y55415
X19883Y65415
X19883Y115415
X19883Y125415
X119883Y125415
X119883Y115415
X119883Y105415
X119883Y95415
X119883Y85415
X119883Y75415
X119883Y65415
X119883Y55415
X246851Y49006
X246851Y39006
X296300Y245423
X306300Y245423
X316300Y245423
X315316Y275581
X305316Y275581
X295316Y275581
X285316Y275581
X406469Y284100
X406469Y294100
X406469Y252100
X406469Y242100
X479469Y242100
X479469Y252100
X479469Y284100
X479469Y294100
X532796Y318179
X532796Y329990
X532796Y341801
X581143Y389518
X581143Y399518
X581143Y449518
X581143Y459518
X589017Y489833
X589017Y499833
X589017Y509833
X589017Y519833
X481143Y459518
X481143Y449518
X481143Y439518
X481143Y429518
X481143Y419518
X481143Y409518
X481143Y399518
X481143Y389518
X469804Y568022
X469804Y578022
X251733Y499321
X241733Y499321
X191733Y499321
X181733Y499321
X121300Y476093
X111300Y476093
X101300Y476093
X122087Y460502
X122087Y450502
X122087Y440502
X122087Y430502
X122087Y420502
X122087Y410502
X122087Y400502
X122087Y390502
X181733Y399321
X191733Y399321
X201733Y399321
X211733Y399321
X221733Y399321
X231733Y399321
X241733Y399321
X251733Y399321
X135394Y298573
X125394Y298573
X115394Y298573
X105394Y298573
X69213Y316053
X69213Y326053
X69213Y336447
X22087Y390502
X22087Y400502
X22087Y450502
X22087Y460502
X19095Y476368
X29095Y476368
X482394Y125226
X482394Y115226
X482394Y105226
X482394Y95226
X482394Y85226
X482394Y75226
X482394Y65226
X482394Y55226
X582394Y55226
X582394Y65226
X582394Y115226
X582394Y125226
T07
X107245Y188880
X97245Y189880
X87245Y188880
X77245Y189880
X67245Y188880
X57245Y189880
X57245Y229880
X67245Y228880
X77245Y229880
X87245Y228880
X97245Y229880
X107245Y228880
T08
X61300Y486093
X161300Y486093
X486300Y556093
X486300Y581093
T09
X324135Y336171
X357875Y329990
X357875Y282746
X339883Y249006
X387127Y249006
X324135Y182077
X276891Y182077
X261143Y249006
X243150Y282746
X213898Y249006
X243150Y329990
X276891Y336171
X534489Y293573
X534489Y246329
T10
X499331Y217785
X499331Y24872
X270985Y24872
X270985Y217785
T11
X269017Y475659
X269017Y597707
X564292Y597707
X564292Y475659
T12
X461457Y471289
X454056Y452037
X576103Y367392
X450119Y318179
X322166Y294557
X276891Y239439
X146969Y318179
X24922Y367392
X139568Y471289
X146969Y452037
X267048Y578022
X333977Y578022
X576103Y239439
X461457Y149321
X139568Y149321
X24922Y239439
T13
X33780Y326053
X568229Y329990
M30
