0
SECTION
2
HEADER
9
$ANGDIR
70
1
9
$AUNITS
70
0
9
$PROJECTNAME
1
US
9
$TDCREATE
40
2458202.04194435
9
$INSUNITS
70
4
0
ENDSEC
0
SECTION
2
ENTITIES
0
POLYLINE
66
1
8
outline
10
0.0
20
0.0
30
0.0
70
1
0
VERTEX
8
0
10
0
20
0
30
0
0
VERTEX
8
0
10
20.32
20
0
30
0
0
VERTEX
8
0
10
20.32
20
16.002000000000002
30
0
0
VERTEX
8
0
10
0
20
16.002000000000002
30
0
0
VERTEX
8
0
10
0
20
0
30
0
0
SEQEND
0
POLYLINE
66
1
8
holes
10
0.0
20
0.0
30
0.0
70
1
0
VERTEX
8
0
10
3.532
20
8.582428125
30
0
0
VERTEX
8
0
10
3.5243562500000003
20
8.47555625
30
0
0
VERTEX
8
0
10
3.509109375
20
8.3695
30
0
0
VERTEX
8
0
10
3.48633125
20
8.264803125
30
0
0
VERTEX
8
0
10
3.456146875
20
8.162
30
0
0
VERTEX
8
0
10
3.418703125
20
8.061609375
30
0
0
VERTEX
8
0
10
3.3741937500000003
20
7.964146875
30
0
0
VERTEX
8
0
10
3.32284375
20
7.87010625
30
0
0
VERTEX
8
0
10
3.264915625
20
7.779971875
30
0
0
VERTEX
8
0
10
3.20070625
20
7.694196875
30
0
0
VERTEX
8
0
10
3.130540625
20
7.613221875000001
30
0
0
VERTEX
8
0
10
3.0547781250000003
20
7.537459375
30
0
0
VERTEX
8
0
10
2.9738031250000003
20
7.4672937500000005
30
0
0
VERTEX
8
0
10
2.888028125
20
7.403084375000001
30
0
0
VERTEX
8
0
10
2.79789375
20
7.3451562500000005
30
0
0
VERTEX
8
0
10
2.703853125
20
7.29380625
30
0
0
VERTEX
8
0
10
2.606390625
20
7.249296875000001
30
0
0
VERTEX
8
0
10
2.5060000000000002
20
7.211853125
30
0
0
VERTEX
8
0
10
2.403196875
20
7.18166875
30
0
0
VERTEX
8
0
10
2.2985
20
7.158890625000001
30
0
0
VERTEX
8
0
10
2.1924437500000002
20
7.143643750000001
30
0
0
VERTEX
8
0
10
2.0855718750000003
20
7.136
30
0
0
VERTEX
8
0
10
1.9784281250000002
20
7.136
30
0
0
VERTEX
8
0
10
1.87155625
20
7.143643750000001
30
0
0
VERTEX
8
0
10
1.7655
20
7.158890625000001
30
0
0
VERTEX
8
0
10
1.6608031250000002
20
7.18166875
30
0
0
VERTEX
8
0
10
1.558
20
7.211853125
30
0
0
VERTEX
8
0
10
1.457609375
20
7.249296875000001
30
0
0
VERTEX
8
0
10
1.360146875
20
7.29380625
30
0
0
VERTEX
8
0
10
1.26610625
20
7.3451562500000005
30
0
0
VERTEX
8
0
10
1.175971875
20
7.403084375000001
30
0
0
VERTEX
8
0
10
1.090196875
20
7.4672937500000005
30
0
0
VERTEX
8
0
10
1.0092218750000002
20
7.537459375
30
0
0
VERTEX
8
0
10
0.9334593750000001
20
7.613221875000001
30
0
0
VERTEX
8
0
10
0.8632937500000001
20
7.694196875
30
0
0
VERTEX
8
0
10
0.7990843750000001
20
7.779971875
30
0
0
VERTEX
8
0
10
0.7411562500000001
20
7.87010625
30
0
0
VERTEX
8
0
10
0.6898062500000001
20
7.964146875
30
0
0
VERTEX
8
0
10
0.645296875
20
8.061609375
30
0
0
VERTEX
8
0
10
0.607853125
20
8.162
30
0
0
VERTEX
8
0
10
0.5776687500000001
20
8.264803125
30
0
0
VERTEX
8
0
10
0.5548906250000001
20
8.3695
30
0
0
VERTEX
8
0
10
0.53964375
20
8.47555625
30
0
0
VERTEX
8
0
10
0.532
20
8.582428125
30
0
0
VERTEX
8
0
10
0.532
20
8.689571875
30
0
0
VERTEX
8
0
10
0.53964375
20
8.79644375
30
0
0
VERTEX
8
0
10
0.5548906250000001
20
8.9025
30
0
0
VERTEX
8
0
10
0.5776687500000001
20
9.007196875
30
0
0
VERTEX
8
0
10
0.607853125
20
9.110000000000001
30
0
0
VERTEX
8
0
10
0.645296875
20
9.210390625
30
0
0
VERTEX
8
0
10
0.6898062500000001
20
9.307853125000001
30
0
0
VERTEX
8
0
10
0.7411562500000001
20
9.401893750000001
30
0
0
VERTEX
8
0
10
0.7990843750000001
20
9.492028125000001
30
0
0
VERTEX
8
0
10
0.8632937500000001
20
9.577803125
30
0
0
VERTEX
8
0
10
0.9334593750000001
20
9.658778125000001
30
0
0
VERTEX
8
0
10
1.0092218750000002
20
9.734540625000001
30
0
0
VERTEX
8
0
10
1.090196875
20
9.80470625
30
0
0
VERTEX
8
0
10
1.175971875
20
9.868915625
30
0
0
VERTEX
8
0
10
1.26610625
20
9.92684375
30
0
0
VERTEX
8
0
10
1.360146875
20
9.97819375
30
0
0
VERTEX
8
0
10
1.457609375
20
10.022703125
30
0
0
VERTEX
8
0
10
1.558
20
10.060146875000001
30
0
0
VERTEX
8
0
10
1.6608031250000002
20
10.09033125
30
0
0
VERTEX
8
0
10
1.7655
20
10.113109375
30
0
0
VERTEX
8
0
10
1.87155625
20
10.128356250000001
30
0
0
VERTEX
8
0
10
1.9784281250000002
20
10.136000000000001
30
0
0
VERTEX
8
0
10
2.0855718750000003
20
10.136000000000001
30
0
0
VERTEX
8
0
10
2.1924437500000002
20
10.128356250000001
30
0
0
VERTEX
8
0
10
2.2985
20
10.113109375
30
0
0
VERTEX
8
0
10
2.403196875
20
10.09033125
30
0
0
VERTEX
8
0
10
2.5060000000000002
20
10.060146875000001
30
0
0
VERTEX
8
0
10
2.606390625
20
10.022703125
30
0
0
VERTEX
8
0
10
2.703853125
20
9.97819375
30
0
0
VERTEX
8
0
10
2.79789375
20
9.92684375
30
0
0
VERTEX
8
0
10
2.888028125
20
9.868915625
30
0
0
VERTEX
8
0
10
2.9738031250000003
20
9.80470625
30
0
0
VERTEX
8
0
10
3.0547781250000003
20
9.734540625000001
30
0
0
VERTEX
8
0
10
3.130540625
20
9.658778125000001
30
0
0
VERTEX
8
0
10
3.20070625
20
9.577803125
30
0
0
VERTEX
8
0
10
3.264915625
20
9.492028125000001
30
0
0
VERTEX
8
0
10
3.32284375
20
9.401893750000001
30
0
0
VERTEX
8
0
10
3.3741937500000003
20
9.307853125000001
30
0
0
VERTEX
8
0
10
3.418703125
20
9.210390625
30
0
0
VERTEX
8
0
10
3.456146875
20
9.110000000000001
30
0
0
VERTEX
8
0
10
3.48633125
20
9.007196875
30
0
0
VERTEX
8
0
10
3.509109375
20
8.9025
30
0
0
VERTEX
8
0
10
3.5243562500000003
20
8.79644375
30
0
0
VERTEX
8
0
10
3.532
20
8.689571875
30
0
0
VERTEX
8
0
10
3.532
20
8.582428125
30
0
0
SEQEND
0
POLYLINE
66
1
8
holes
10
0.0
20
0.0
30
0.0
70
1
0
VERTEX
8
0
10
19.788
20
8.582428125
30
0
0
VERTEX
8
0
10
19.78035625
20
8.47555625
30
0
0
VERTEX
8
0
10
19.765109375
20
8.3695
30
0
0
VERTEX
8
0
10
19.74233125
20
8.264803125
30
0
0
VERTEX
8
0
10
19.712146875000002
20
8.162
30
0
0
VERTEX
8
0
10
19.674703125
20
8.061609375
30
0
0
VERTEX
8
0
10
19.63019375
20
7.964146875
30
0
0
VERTEX
8
0
10
19.57884375
20
7.87010625
30
0
0
VERTEX
8
0
10
19.520915625
20
7.779971875
30
0
0
VERTEX
8
0
10
19.45670625
20
7.694196875
30
0
0
VERTEX
8
0
10
19.386540625000002
20
7.613221875000001
30
0
0
VERTEX
8
0
10
19.310778125000002
20
7.537459375
30
0
0
VERTEX
8
0
10
19.229803125
20
7.4672937500000005
30
0
0
VERTEX
8
0
10
19.144028125000002
20
7.403084375000001
30
0
0
VERTEX
8
0
10
19.05389375
20
7.3451562500000005
30
0
0
VERTEX
8
0
10
18.959853125000002
20
7.29380625
30
0
0
VERTEX
8
0
10
18.862390625
20
7.249296875000001
30
0
0
VERTEX
8
0
10
18.762
20
7.211853125
30
0
0
VERTEX
8
0
10
18.659196875
20
7.18166875
30
0
0
VERTEX
8
0
10
18.5545
20
7.158890625000001
30
0
0
VERTEX
8
0
10
18.44844375
20
7.143643750000001
30
0
0
VERTEX
8
0
10
18.341571875
20
7.136
30
0
0
VERTEX
8
0
10
18.234428125
20
7.136
30
0
0
VERTEX
8
0
10
18.12755625
20
7.143643750000001
30
0
0
VERTEX
8
0
10
18.0215
20
7.158890625000001
30
0
0
VERTEX
8
0
10
17.916803125
20
7.18166875
30
0
0
VERTEX
8
0
10
17.814
20
7.211853125
30
0
0
VERTEX
8
0
10
17.713609375
20
7.249296875000001
30
0
0
VERTEX
8
0
10
17.616146875000002
20
7.29380625
30
0
0
VERTEX
8
0
10
17.52210625
20
7.3451562500000005
30
0
0
VERTEX
8
0
10
17.431971875000002
20
7.403084375000001
30
0
0
VERTEX
8
0
10
17.346196875
20
7.4672937500000005
30
0
0
VERTEX
8
0
10
17.265221875
20
7.537459375
30
0
0
VERTEX
8
0
10
17.189459375000002
20
7.613221875000001
30
0
0
VERTEX
8
0
10
17.11929375
20
7.694196875
30
0
0
VERTEX
8
0
10
17.055084375
20
7.779971875
30
0
0
VERTEX
8
0
10
16.99715625
20
7.87010625
30
0
0
VERTEX
8
0
10
16.94580625
20
7.964146875
30
0
0
VERTEX
8
0
10
16.901296875
20
8.061609375
30
0
0
VERTEX
8
0
10
16.863853125000002
20
8.162
30
0
0
VERTEX
8
0
10
16.83366875
20
8.264803125
30
0
0
VERTEX
8
0
10
16.810890625000003
20
8.3695
30
0
0
VERTEX
8
0
10
16.79564375
20
8.47555625
30
0
0
VERTEX
8
0
10
16.788
20
8.582428125
30
0
0
VERTEX
8
0
10
16.788
20
8.689571875
30
0
0
VERTEX
8
0
10
16.79564375
20
8.79644375
30
0
0
VERTEX
8
0
10
16.810890625000003
20
8.9025
30
0
0
VERTEX
8
0
10
16.83366875
20
9.007196875
30
0
0
VERTEX
8
0
10
16.863853125000002
20
9.110000000000001
30
0
0
VERTEX
8
0
10
16.901296875
20
9.210390625
30
0
0
VERTEX
8
0
10
16.94580625
20
9.307853125000001
30
0
0
VERTEX
8
0
10
16.99715625
20
9.401893750000001
30
0
0
VERTEX
8
0
10
17.055084375
20
9.492028125000001
30
0
0
VERTEX
8
0
10
17.11929375
20
9.577803125
30
0
0
VERTEX
8
0
10
17.189459375000002
20
9.658778125000001
30
0
0
VERTEX
8
0
10
17.265221875
20
9.734540625000001
30
0
0
VERTEX
8
0
10
17.346196875
20
9.80470625
30
0
0
VERTEX
8
0
10
17.431971875000002
20
9.868915625
30
0
0
VERTEX
8
0
10
17.52210625
20
9.92684375
30
0
0
VERTEX
8
0
10
17.616146875000002
20
9.97819375
30
0
0
VERTEX
8
0
10
17.713609375
20
10.022703125
30
0
0
VERTEX
8
0
10
17.814
20
10.060146875000001
30
0
0
VERTEX
8
0
10
17.916803125
20
10.09033125
30
0
0
VERTEX
8
0
10
18.0215
20
10.113109375
30
0
0
VERTEX
8
0
10
18.12755625
20
10.128356250000001
30
0
0
VERTEX
8
0
10
18.234428125
20
10.136000000000001
30
0
0
VERTEX
8
0
10
18.341571875
20
10.136000000000001
30
0
0
VERTEX
8
0
10
18.44844375
20
10.128356250000001
30
0
0
VERTEX
8
0
10
18.5545
20
10.113109375
30
0
0
VERTEX
8
0
10
18.659196875
20
10.09033125
30
0
0
VERTEX
8
0
10
18.762
20
10.060146875000001
30
0
0
VERTEX
8
0
10
18.862390625
20
10.022703125
30
0
0
VERTEX
8
0
10
18.959853125000002
20
9.97819375
30
0
0
VERTEX
8
0
10
19.05389375
20
9.92684375
30
0
0
VERTEX
8
0
10
19.144028125000002
20
9.868915625
30
0
0
VERTEX
8
0
10
19.229803125
20
9.80470625
30
0
0
VERTEX
8
0
10
19.310778125000002
20
9.734540625000001
30
0
0
VERTEX
8
0
10
19.386540625000002
20
9.658778125000001
30
0
0
VERTEX
8
0
10
19.45670625
20
9.577803125
30
0
0
VERTEX
8
0
10
19.520915625
20
9.492028125000001
30
0
0
VERTEX
8
0
10
19.57884375
20
9.401893750000001
30
0
0
VERTEX
8
0
10
19.63019375
20
9.307853125000001
30
0
0
VERTEX
8
0
10
19.674703125
20
9.210390625
30
0
0
VERTEX
8
0
10
19.712146875000002
20
9.110000000000001
30
0
0
VERTEX
8
0
10
19.74233125
20
9.007196875
30
0
0
VERTEX
8
0
10
19.765109375
20
8.9025
30
0
0
VERTEX
8
0
10
19.78035625
20
8.79644375
30
0
0
VERTEX
8
0
10
19.788
20
8.689571875
30
0
0
VERTEX
8
0
10
19.788
20
8.582428125
30
0
0
SEQEND
0
POLYLINE
66
1
8
holes
10
0.0
20
0.0
30
0.0
70
1
0
VERTEX
8
0
10
3.532
20
8.582428125
30
0
0
VERTEX
8
0
10
3.5243562500000003
20
8.47555625
30
0
0
VERTEX
8
0
10
3.509109375
20
8.3695
30
0
0
VERTEX
8
0
10
3.48633125
20
8.264803125
30
0
0
VERTEX
8
0
10
3.456146875
20
8.162
30
0
0
VERTEX
8
0
10
3.418703125
20
8.061609375
30
0
0
VERTEX
8
0
10
3.3741937500000003
20
7.964146875
30
0
0
VERTEX
8
0
10
3.32284375
20
7.87010625
30
0
0
VERTEX
8
0
10
3.264915625
20
7.779971875
30
0
0
VERTEX
8
0
10
3.20070625
20
7.694196875
30
0
0
VERTEX
8
0
10
3.130540625
20
7.613221875000001
30
0
0
VERTEX
8
0
10
3.0547781250000003
20
7.537459375
30
0
0
VERTEX
8
0
10
2.9738031250000003
20
7.4672937500000005
30
0
0
VERTEX
8
0
10
2.888028125
20
7.403084375000001
30
0
0
VERTEX
8
0
10
2.79789375
20
7.3451562500000005
30
0
0
VERTEX
8
0
10
2.703853125
20
7.29380625
30
0
0
VERTEX
8
0
10
2.606390625
20
7.249296875000001
30
0
0
VERTEX
8
0
10
2.5060000000000002
20
7.211853125
30
0
0
VERTEX
8
0
10
2.403196875
20
7.18166875
30
0
0
VERTEX
8
0
10
2.2985
20
7.158890625000001
30
0
0
VERTEX
8
0
10
2.1924437500000002
20
7.143643750000001
30
0
0
VERTEX
8
0
10
2.0855718750000003
20
7.136
30
0
0
VERTEX
8
0
10
1.9784281250000002
20
7.136
30
0
0
VERTEX
8
0
10
1.87155625
20
7.143643750000001
30
0
0
VERTEX
8
0
10
1.7655
20
7.158890625000001
30
0
0
VERTEX
8
0
10
1.6608031250000002
20
7.18166875
30
0
0
VERTEX
8
0
10
1.558
20
7.211853125
30
0
0
VERTEX
8
0
10
1.457609375
20
7.249296875000001
30
0
0
VERTEX
8
0
10
1.360146875
20
7.29380625
30
0
0
VERTEX
8
0
10
1.26610625
20
7.3451562500000005
30
0
0
VERTEX
8
0
10
1.175971875
20
7.403084375000001
30
0
0
VERTEX
8
0
10
1.090196875
20
7.4672937500000005
30
0
0
VERTEX
8
0
10
1.0092218750000002
20
7.537459375
30
0
0
VERTEX
8
0
10
0.9334593750000001
20
7.613221875000001
30
0
0
VERTEX
8
0
10
0.8632937500000001
20
7.694196875
30
0
0
VERTEX
8
0
10
0.7990843750000001
20
7.779971875
30
0
0
VERTEX
8
0
10
0.7411562500000001
20
7.87010625
30
0
0
VERTEX
8
0
10
0.6898062500000001
20
7.964146875
30
0
0
VERTEX
8
0
10
0.645296875
20
8.061609375
30
0
0
VERTEX
8
0
10
0.607853125
20
8.162
30
0
0
VERTEX
8
0
10
0.5776687500000001
20
8.264803125
30
0
0
VERTEX
8
0
10
0.5548906250000001
20
8.3695
30
0
0
VERTEX
8
0
10
0.53964375
20
8.47555625
30
0
0
VERTEX
8
0
10
0.532
20
8.582428125
30
0
0
VERTEX
8
0
10
0.532
20
8.689571875
30
0
0
VERTEX
8
0
10
0.53964375
20
8.79644375
30
0
0
VERTEX
8
0
10
0.5548906250000001
20
8.9025
30
0
0
VERTEX
8
0
10
0.5776687500000001
20
9.007196875
30
0
0
VERTEX
8
0
10
0.607853125
20
9.110000000000001
30
0
0
VERTEX
8
0
10
0.645296875
20
9.210390625
30
0
0
VERTEX
8
0
10
0.6898062500000001
20
9.307853125000001
30
0
0
VERTEX
8
0
10
0.7411562500000001
20
9.401893750000001
30
0
0
VERTEX
8
0
10
0.7990843750000001
20
9.492028125000001
30
0
0
VERTEX
8
0
10
0.8632937500000001
20
9.577803125
30
0
0
VERTEX
8
0
10
0.9334593750000001
20
9.658778125000001
30
0
0
VERTEX
8
0
10
1.0092218750000002
20
9.734540625000001
30
0
0
VERTEX
8
0
10
1.090196875
20
9.80470625
30
0
0
VERTEX
8
0
10
1.175971875
20
9.868915625
30
0
0
VERTEX
8
0
10
1.26610625
20
9.92684375
30
0
0
VERTEX
8
0
10
1.360146875
20
9.97819375
30
0
0
VERTEX
8
0
10
1.457609375
20
10.022703125
30
0
0
VERTEX
8
0
10
1.558
20
10.060146875000001
30
0
0
VERTEX
8
0
10
1.6608031250000002
20
10.09033125
30
0
0
VERTEX
8
0
10
1.7655
20
10.113109375
30
0
0
VERTEX
8
0
10
1.87155625
20
10.128356250000001
30
0
0
VERTEX
8
0
10
1.9784281250000002
20
10.136000000000001
30
0
0
VERTEX
8
0
10
2.0855718750000003
20
10.136000000000001
30
0
0
VERTEX
8
0
10
2.1924437500000002
20
10.128356250000001
30
0
0
VERTEX
8
0
10
2.2985
20
10.113109375
30
0
0
VERTEX
8
0
10
2.403196875
20
10.09033125
30
0
0
VERTEX
8
0
10
2.5060000000000002
20
10.060146875000001
30
0
0
VERTEX
8
0
10
2.606390625
20
10.022703125
30
0
0
VERTEX
8
0
10
2.703853125
20
9.97819375
30
0
0
VERTEX
8
0
10
2.79789375
20
9.92684375
30
0
0
VERTEX
8
0
10
2.888028125
20
9.868915625
30
0
0
VERTEX
8
0
10
2.9738031250000003
20
9.80470625
30
0
0
VERTEX
8
0
10
3.0547781250000003
20
9.734540625000001
30
0
0
VERTEX
8
0
10
3.130540625
20
9.658778125000001
30
0
0
VERTEX
8
0
10
3.20070625
20
9.577803125
30
0
0
VERTEX
8
0
10
3.264915625
20
9.492028125000001
30
0
0
VERTEX
8
0
10
3.32284375
20
9.401893750000001
30
0
0
VERTEX
8
0
10
3.3741937500000003
20
9.307853125000001
30
0
0
VERTEX
8
0
10
3.418703125
20
9.210390625
30
0
0
VERTEX
8
0
10
3.456146875
20
9.110000000000001
30
0
0
VERTEX
8
0
10
3.48633125
20
9.007196875
30
0
0
VERTEX
8
0
10
3.509109375
20
8.9025
30
0
0
VERTEX
8
0
10
3.5243562500000003
20
8.79644375
30
0
0
VERTEX
8
0
10
3.532
20
8.689571875
30
0
0
VERTEX
8
0
10
3.532
20
8.582428125
30
0
0
SEQEND
0
POLYLINE
66
1
8
holes
10
0.0
20
0.0
30
0.0
70
1
0
VERTEX
8
0
10
19.788
20
8.582428125
30
0
0
VERTEX
8
0
10
19.78035625
20
8.47555625
30
0
0
VERTEX
8
0
10
19.765109375
20
8.3695
30
0
0
VERTEX
8
0
10
19.74233125
20
8.264803125
30
0
0
VERTEX
8
0
10
19.712146875000002
20
8.162
30
0
0
VERTEX
8
0
10
19.674703125
20
8.061609375
30
0
0
VERTEX
8
0
10
19.63019375
20
7.964146875
30
0
0
VERTEX
8
0
10
19.57884375
20
7.87010625
30
0
0
VERTEX
8
0
10
19.520915625
20
7.779971875
30
0
0
VERTEX
8
0
10
19.45670625
20
7.694196875
30
0
0
VERTEX
8
0
10
19.386540625000002
20
7.613221875000001
30
0
0
VERTEX
8
0
10
19.310778125000002
20
7.537459375
30
0
0
VERTEX
8
0
10
19.229803125
20
7.4672937500000005
30
0
0
VERTEX
8
0
10
19.144028125000002
20
7.403084375000001
30
0
0
VERTEX
8
0
10
19.05389375
20
7.3451562500000005
30
0
0
VERTEX
8
0
10
18.959853125000002
20
7.29380625
30
0
0
VERTEX
8
0
10
18.862390625
20
7.249296875000001
30
0
0
VERTEX
8
0
10
18.762
20
7.211853125
30
0
0
VERTEX
8
0
10
18.659196875
20
7.18166875
30
0
0
VERTEX
8
0
10
18.5545
20
7.158890625000001
30
0
0
VERTEX
8
0
10
18.44844375
20
7.143643750000001
30
0
0
VERTEX
8
0
10
18.341571875
20
7.136
30
0
0
VERTEX
8
0
10
18.234428125
20
7.136
30
0
0
VERTEX
8
0
10
18.12755625
20
7.143643750000001
30
0
0
VERTEX
8
0
10
18.0215
20
7.158890625000001
30
0
0
VERTEX
8
0
10
17.916803125
20
7.18166875
30
0
0
VERTEX
8
0
10
17.814
20
7.211853125
30
0
0
VERTEX
8
0
10
17.713609375
20
7.249296875000001
30
0
0
VERTEX
8
0
10
17.616146875000002
20
7.29380625
30
0
0
VERTEX
8
0
10
17.52210625
20
7.3451562500000005
30
0
0
VERTEX
8
0
10
17.431971875000002
20
7.403084375000001
30
0
0
VERTEX
8
0
10
17.346196875
20
7.4672937500000005
30
0
0
VERTEX
8
0
10
17.265221875
20
7.537459375
30
0
0
VERTEX
8
0
10
17.189459375000002
20
7.613221875000001
30
0
0
VERTEX
8
0
10
17.11929375
20
7.694196875
30
0
0
VERTEX
8
0
10
17.055084375
20
7.779971875
30
0
0
VERTEX
8
0
10
16.99715625
20
7.87010625
30
0
0
VERTEX
8
0
10
16.94580625
20
7.964146875
30
0
0
VERTEX
8
0
10
16.901296875
20
8.061609375
30
0
0
VERTEX
8
0
10
16.863853125000002
20
8.162
30
0
0
VERTEX
8
0
10
16.83366875
20
8.264803125
30
0
0
VERTEX
8
0
10
16.810890625000003
20
8.3695
30
0
0
VERTEX
8
0
10
16.79564375
20
8.47555625
30
0
0
VERTEX
8
0
10
16.788
20
8.582428125
30
0
0
VERTEX
8
0
10
16.788
20
8.689571875
30
0
0
VERTEX
8
0
10
16.79564375
20
8.79644375
30
0
0
VERTEX
8
0
10
16.810890625000003
20
8.9025
30
0
0
VERTEX
8
0
10
16.83366875
20
9.007196875
30
0
0
VERTEX
8
0
10
16.863853125000002
20
9.110000000000001
30
0
0
VERTEX
8
0
10
16.901296875
20
9.210390625
30
0
0
VERTEX
8
0
10
16.94580625
20
9.307853125000001
30
0
0
VERTEX
8
0
10
16.99715625
20
9.401893750000001
30
0
0
VERTEX
8
0
10
17.055084375
20
9.492028125000001
30
0
0
VERTEX
8
0
10
17.11929375
20
9.577803125
30
0
0
VERTEX
8
0
10
17.189459375000002
20
9.658778125000001
30
0
0
VERTEX
8
0
10
17.265221875
20
9.734540625000001
30
0
0
VERTEX
8
0
10
17.346196875
20
9.80470625
30
0
0
VERTEX
8
0
10
17.431971875000002
20
9.868915625
30
0
0
VERTEX
8
0
10
17.52210625
20
9.92684375
30
0
0
VERTEX
8
0
10
17.616146875000002
20
9.97819375
30
0
0
VERTEX
8
0
10
17.713609375
20
10.022703125
30
0
0
VERTEX
8
0
10
17.814
20
10.060146875000001
30
0
0
VERTEX
8
0
10
17.916803125
20
10.09033125
30
0
0
VERTEX
8
0
10
18.0215
20
10.113109375
30
0
0
VERTEX
8
0
10
18.12755625
20
10.128356250000001
30
0
0
VERTEX
8
0
10
18.234428125
20
10.136000000000001
30
0
0
VERTEX
8
0
10
18.341571875
20
10.136000000000001
30
0
0
VERTEX
8
0
10
18.44844375
20
10.128356250000001
30
0
0
VERTEX
8
0
10
18.5545
20
10.113109375
30
0
0
VERTEX
8
0
10
18.659196875
20
10.09033125
30
0
0
VERTEX
8
0
10
18.762
20
10.060146875000001
30
0
0
VERTEX
8
0
10
18.862390625
20
10.022703125
30
0
0
VERTEX
8
0
10
18.959853125000002
20
9.97819375
30
0
0
VERTEX
8
0
10
19.05389375
20
9.92684375
30
0
0
VERTEX
8
0
10
19.144028125000002
20
9.868915625
30
0
0
VERTEX
8
0
10
19.229803125
20
9.80470625
30
0
0
VERTEX
8
0
10
19.310778125000002
20
9.734540625000001
30
0
0
VERTEX
8
0
10
19.386540625000002
20
9.658778125000001
30
0
0
VERTEX
8
0
10
19.45670625
20
9.577803125
30
0
0
VERTEX
8
0
10
19.520915625
20
9.492028125000001
30
0
0
VERTEX
8
0
10
19.57884375
20
9.401893750000001
30
0
0
VERTEX
8
0
10
19.63019375
20
9.307853125000001
30
0
0
VERTEX
8
0
10
19.674703125
20
9.210390625
30
0
0
VERTEX
8
0
10
19.712146875000002
20
9.110000000000001
30
0
0
VERTEX
8
0
10
19.74233125
20
9.007196875
30
0
0
VERTEX
8
0
10
19.765109375
20
8.9025
30
0
0
VERTEX
8
0
10
19.78035625
20
8.79644375
30
0
0
VERTEX
8
0
10
19.788
20
8.689571875
30
0
0
VERTEX
8
0
10
19.788
20
8.582428125
30
0
0
SEQEND
0
POLYLINE
66
1
8
holes
10
0.0
20
0.0
30
0.0
70
1
0
VERTEX
8
0
10
17.310000000000002
20
13.938815625
30
0
0
VERTEX
8
0
10
17.302909375000002
20
13.848728125000001
30
0
0
VERTEX
8
0
10
17.288771875000002
20
13.759471875000001
30
0
0
VERTEX
8
0
10
17.267678125
20
13.671603125
30
0
0
VERTEX
8
0
10
17.239753125
20
13.585659375
30
0
0
VERTEX
8
0
10
17.205171875
20
13.502168750000001
30
0
0
VERTEX
8
0
10
17.16414375
20
13.421653125
30
0
0
VERTEX
8
0
10
17.116928125
20
13.3446
30
0
0
VERTEX
8
0
10
17.0638125
20
13.271493750000001
30
0
0
VERTEX
8
0
10
17.005121875
20
13.202778125
30
0
0
VERTEX
8
0
10
16.941221875
20
13.138878125000002
30
0
0
VERTEX
8
0
10
16.87250625
20
13.080187500000001
30
0
0
VERTEX
8
0
10
16.799400000000002
20
13.027071875
30
0
0
VERTEX
8
0
10
16.722346875
20
12.979856250000001
30
0
0
VERTEX
8
0
10
16.64183125
20
12.938828125
30
0
0
VERTEX
8
0
10
16.558340625
20
12.904246875
30
0
0
VERTEX
8
0
10
16.472396875
20
12.876321875
30
0
0
VERTEX
8
0
10
16.384528125
20
12.855228125
30
0
0
VERTEX
8
0
10
16.295271875
20
12.841090625000001
30
0
0
VERTEX
8
0
10
16.205184375
20
12.834000000000001
30
0
0
VERTEX
8
0
10
16.114815625000002
20
12.834000000000001
30
0
0
VERTEX
8
0
10
16.024728125
20
12.841090625000001
30
0
0
VERTEX
8
0
10
15.935471875000001
20
12.855228125
30
0
0
VERTEX
8
0
10
15.847603125000001
20
12.876321875
30
0
0
VERTEX
8
0
10
15.761659375
20
12.904246875
30
0
0
VERTEX
8
0
10
15.678168750000001
20
12.938828125
30
0
0
VERTEX
8
0
10
15.597653125
20
12.979856250000001
30
0
0
VERTEX
8
0
10
15.5206
20
13.027071875
30
0
0
VERTEX
8
0
10
15.447493750000001
20
13.080187500000001
30
0
0
VERTEX
8
0
10
15.378778125
20
13.138878125000002
30
0
0
VERTEX
8
0
10
15.314878125
20
13.202778125
30
0
0
VERTEX
8
0
10
15.256187500000001
20
13.271493750000001
30
0
0
VERTEX
8
0
10
15.203071875000001
20
13.3446
30
0
0
VERTEX
8
0
10
15.155856250000001
20
13.421653125
30
0
0
VERTEX
8
0
10
15.114828125
20
13.502168750000001
30
0
0
VERTEX
8
0
10
15.080246875
20
13.585659375
30
0
0
VERTEX
8
0
10
15.052321875
20
13.671603125
30
0
0
VERTEX
8
0
10
15.031228125
20
13.759471875000001
30
0
0
VERTEX
8
0
10
15.017090625000002
20
13.848728125000001
30
0
0
VERTEX
8
0
10
15.010000000000002
20
13.938815625
30
0
0
VERTEX
8
0
10
15.010000000000002
20
14.029184375
30
0
0
VERTEX
8
0
10
15.017090625000002
20
14.119271875
30
0
0
VERTEX
8
0
10
15.031228125
20
14.208528125
30
0
0
VERTEX
8
0
10
15.052321875
20
14.296396875000001
30
0
0
VERTEX
8
0
10
15.080246875
20
14.382340625000001
30
0
0
VERTEX
8
0
10
15.114828125
20
14.46583125
30
0
0
VERTEX
8
0
10
15.155856250000001
20
14.546346875000001
30
0
0
VERTEX
8
0
10
15.203071875000001
20
14.6234
30
0
0
VERTEX
8
0
10
15.256187500000001
20
14.69650625
30
0
0
VERTEX
8
0
10
15.314878125
20
14.765221875
30
0
0
VERTEX
8
0
10
15.378778125
20
14.829121875
30
0
0
VERTEX
8
0
10
15.447493750000001
20
14.8878125
30
0
0
VERTEX
8
0
10
15.5206
20
14.940928125000001
30
0
0
VERTEX
8
0
10
15.597653125
20
14.98814375
30
0
0
VERTEX
8
0
10
15.678168750000001
20
15.029171875000001
30
0
0
VERTEX
8
0
10
15.761659375
20
15.063753125
30
0
0
VERTEX
8
0
10
15.847603125000001
20
15.091678125000001
30
0
0
VERTEX
8
0
10
15.935471875000001
20
15.112771875
30
0
0
VERTEX
8
0
10
16.024728125
20
15.126909375
30
0
0
VERTEX
8
0
10
16.114815625000002
20
15.134
30
0
0
VERTEX
8
0
10
16.205184375
20
15.134
30
0
0
VERTEX
8
0
10
16.295271875
20
15.126909375
30
0
0
VERTEX
8
0
10
16.384528125
20
15.112771875
30
0
0
VERTEX
8
0
10
16.472396875
20
15.091678125000001
30
0
0
VERTEX
8
0
10
16.558340625
20
15.063753125
30
0
0
VERTEX
8
0
10
16.64183125
20
15.029171875000001
30
0
0
VERTEX
8
0
10
16.722346875
20
14.98814375
30
0
0
VERTEX
8
0
10
16.799400000000002
20
14.940928125000001
30
0
0
VERTEX
8
0
10
16.87250625
20
14.8878125
30
0
0
VERTEX
8
0
10
16.941221875
20
14.829121875
30
0
0
VERTEX
8
0
10
17.005121875
20
14.765221875
30
0
0
VERTEX
8
0
10
17.0638125
20
14.69650625
30
0
0
VERTEX
8
0
10
17.116928125
20
14.6234
30
0
0
VERTEX
8
0
10
17.16414375
20
14.546346875000001
30
0
0
VERTEX
8
0
10
17.205171875
20
14.46583125
30
0
0
VERTEX
8
0
10
17.239753125
20
14.382340625000001
30
0
0
VERTEX
8
0
10
17.267678125
20
14.296396875000001
30
0
0
VERTEX
8
0
10
17.288771875000002
20
14.208528125
30
0
0
VERTEX
8
0
10
17.302909375000002
20
14.119271875
30
0
0
VERTEX
8
0
10
17.310000000000002
20
14.029184375
30
0
0
VERTEX
8
0
10
17.310000000000002
20
13.938815625
30
0
0
SEQEND
0
POLYLINE
66
1
8
holes
10
0.0
20
0.0
30
0.0
70
1
0
VERTEX
8
0
10
5.3100000000000005
20
13.938815625
30
0
0
VERTEX
8
0
10
5.3029093750000005
20
13.848728125000001
30
0
0
VERTEX
8
0
10
5.288771875
20
13.759471875000001
30
0
0
VERTEX
8
0
10
5.267678125000001
20
13.671603125
30
0
0
VERTEX
8
0
10
5.239753125
20
13.585659375
30
0
0
VERTEX
8
0
10
5.2051718750000004
20
13.502168750000001
30
0
0
VERTEX
8
0
10
5.16414375
20
13.421653125
30
0
0
VERTEX
8
0
10
5.116928125
20
13.3446
30
0
0
VERTEX
8
0
10
5.0638125
20
13.271493750000001
30
0
0
VERTEX
8
0
10
5.005121875
20
13.202778125
30
0
0
VERTEX
8
0
10
4.941221875
20
13.138878125000002
30
0
0
VERTEX
8
0
10
4.87250625
20
13.080187500000001
30
0
0
VERTEX
8
0
10
4.7994
20
13.027071875
30
0
0
VERTEX
8
0
10
4.722346875
20
12.979856250000001
30
0
0
VERTEX
8
0
10
4.64183125
20
12.938828125
30
0
0
VERTEX
8
0
10
4.5583406250000005
20
12.904246875
30
0
0
VERTEX
8
0
10
4.472396875
20
12.876321875
30
0
0
VERTEX
8
0
10
4.384528125
20
12.855228125
30
0
0
VERTEX
8
0
10
4.295271875
20
12.841090625000001
30
0
0
VERTEX
8
0
10
4.205184375
20
12.834000000000001
30
0
0
VERTEX
8
0
10
4.114815625
20
12.834000000000001
30
0
0
VERTEX
8
0
10
4.024728125
20
12.841090625000001
30
0
0
VERTEX
8
0
10
3.935471875
20
12.855228125
30
0
0
VERTEX
8
0
10
3.847603125
20
12.876321875
30
0
0
VERTEX
8
0
10
3.7616593750000002
20
12.904246875
30
0
0
VERTEX
8
0
10
3.67816875
20
12.938828125
30
0
0
VERTEX
8
0
10
3.5976531250000003
20
12.979856250000001
30
0
0
VERTEX
8
0
10
3.5206
20
13.027071875
30
0
0
VERTEX
8
0
10
3.44749375
20
13.080187500000001
30
0
0
VERTEX
8
0
10
3.378778125
20
13.138878125000002
30
0
0
VERTEX
8
0
10
3.3148781250000003
20
13.202778125
30
0
0
VERTEX
8
0
10
3.2561875000000002
20
13.271493750000001
30
0
0
VERTEX
8
0
10
3.203071875
20
13.3446
30
0
0
VERTEX
8
0
10
3.1558562500000003
20
13.421653125
30
0
0
VERTEX
8
0
10
3.1148281250000003
20
13.502168750000001
30
0
0
VERTEX
8
0
10
3.0802468750000003
20
13.585659375
30
0
0
VERTEX
8
0
10
3.052321875
20
13.671603125
30
0
0
VERTEX
8
0
10
3.031228125
20
13.759471875000001
30
0
0
VERTEX
8
0
10
3.0170906250000002
20
13.848728125000001
30
0
0
VERTEX
8
0
10
3.0100000000000002
20
13.938815625
30
0
0
VERTEX
8
0
10
3.0100000000000002
20
14.029184375
30
0
0
VERTEX
8
0
10
3.0170906250000002
20
14.119271875
30
0
0
VERTEX
8
0
10
3.031228125
20
14.208528125
30
0
0
VERTEX
8
0
10
3.052321875
20
14.296396875000001
30
0
0
VERTEX
8
0
10
3.0802468750000003
20
14.382340625000001
30
0
0
VERTEX
8
0
10
3.1148281250000003
20
14.46583125
30
0
0
VERTEX
8
0
10
3.1558562500000003
20
14.546346875000001
30
0
0
VERTEX
8
0
10
3.203071875
20
14.6234
30
0
0
VERTEX
8
0
10
3.2561875000000002
20
14.69650625
30
0
0
VERTEX
8
0
10
3.3148781250000003
20
14.765221875
30
0
0
VERTEX
8
0
10
3.378778125
20
14.829121875
30
0
0
VERTEX
8
0
10
3.44749375
20
14.8878125
30
0
0
VERTEX
8
0
10
3.5206
20
14.940928125000001
30
0
0
VERTEX
8
0
10
3.5976531250000003
20
14.98814375
30
0
0
VERTEX
8
0
10
3.67816875
20
15.029171875000001
30
0
0
VERTEX
8
0
10
3.7616593750000002
20
15.063753125
30
0
0
VERTEX
8
0
10
3.847603125
20
15.091678125000001
30
0
0
VERTEX
8
0
10
3.935471875
20
15.112771875
30
0
0
VERTEX
8
0
10
4.024728125
20
15.126909375
30
0
0
VERTEX
8
0
10
4.114815625
20
15.134
30
0
0
VERTEX
8
0
10
4.205184375
20
15.134
30
0
0
VERTEX
8
0
10
4.295271875
20
15.126909375
30
0
0
VERTEX
8
0
10
4.384528125
20
15.112771875
30
0
0
VERTEX
8
0
10
4.472396875
20
15.091678125000001
30
0
0
VERTEX
8
0
10
4.5583406250000005
20
15.063753125
30
0
0
VERTEX
8
0
10
4.64183125
20
15.029171875000001
30
0
0
VERTEX
8
0
10
4.722346875
20
14.98814375
30
0
0
VERTEX
8
0
10
4.7994
20
14.940928125000001
30
0
0
VERTEX
8
0
10
4.87250625
20
14.8878125
30
0
0
VERTEX
8
0
10
4.941221875
20
14.829121875
30
0
0
VERTEX
8
0
10
5.005121875
20
14.765221875
30
0
0
VERTEX
8
0
10
5.0638125
20
14.69650625
30
0
0
VERTEX
8
0
10
5.116928125
20
14.6234
30
0
0
VERTEX
8
0
10
5.16414375
20
14.546346875000001
30
0
0
VERTEX
8
0
10
5.2051718750000004
20
14.46583125
30
0
0
VERTEX
8
0
10
5.239753125
20
14.382340625000001
30
0
0
VERTEX
8
0
10
5.267678125000001
20
14.296396875000001
30
0
0
VERTEX
8
0
10
5.288771875
20
14.208528125
30
0
0
VERTEX
8
0
10
5.3029093750000005
20
14.119271875
30
0
0
VERTEX
8
0
10
5.3100000000000005
20
14.029184375
30
0
0
VERTEX
8
0
10
5.3100000000000005
20
13.938815625
30
0
0
SEQEND
0
POLYLINE
66
1
8
16_copper
10
0.0
20
0.0
30
0.0
70
1
0
VERTEX
8
0
10
3.304471875
20
1.09318125
30
0
42
0.7835424601387592
0
VERTEX
8
0
10
3.3268125
20
1.238796875
30
0
0
VERTEX
8
0
10
3.157215625
20
1.30904375
30
0
0
VERTEX
8
0
10
2.8330437500000003
20
1.633215625
30
0
0
VERTEX
8
0
10
2.6576
20
2.0567687500000003
30
0
0
VERTEX
8
0
10
2.6576
20
2.515228125
30
0
0
VERTEX
8
0
10
2.8330437500000003
20
2.9387812500000003
30
0
0
VERTEX
8
0
10
3.157215625
20
3.262953125
30
0
0
VERTEX
8
0
10
3.5807687500000003
20
3.438396875
30
0
0
VERTEX
8
0
10
4.039228125
20
3.438396875
30
0
0
VERTEX
8
0
10
4.46278125
20
3.262953125
30
0
0
VERTEX
8
0
10
4.786953125
20
2.9387812500000003
30
0
0
VERTEX
8
0
10
4.9623968750000005
20
2.515228125
30
0
0
VERTEX
8
0
10
4.9623968750000005
20
2.0567687500000003
30
0
0
VERTEX
8
0
10
4.786953125
20
1.633215625
30
0
0
VERTEX
8
0
10
4.46278125
20
1.30904375
30
0
0
VERTEX
8
0
10
4.293184375
20
1.238796875
30
0
42
0.8206851812565761
0
VERTEX
8
0
10
4.32234375
20
1.092196875
30
0
0
VERTEX
8
0
10
7.112
20
1.092196875
30
0
42
0.4142135623730951
0
VERTEX
8
0
10
7.1882
20
1.168396875
30
0
0
VERTEX
8
0
10
7.1882
20
8.340840625
30
0
42
0.08261884621123339
0
VERTEX
8
0
10
7.184093750000001
20
8.365512500000001
30
0
0
VERTEX
8
0
10
7.1798906250000005
20
8.373728125
30
0
42
0.19684026983475278
0
VERTEX
8
0
10
7.1248812500000005
20
8.41798125
30
0
0
VERTEX
8
0
10
6.8839781250000005
20
8.658884375000001
30
0
0
VERTEX
8
0
10
6.7536000000000005
20
8.973646875
30
0
0
VERTEX
8
0
10
6.7536000000000005
20
9.314350000000001
30
0
0
VERTEX
8
0
10
6.8839781250000005
20
9.6291125
30
0
0
VERTEX
8
0
10
7.1248812500000005
20
9.870015625
30
0
42
0.3665418073993525
0
VERTEX
8
0
10
7.1882
20
9.94715625
30
0
0
VERTEX
8
0
10
7.1882
20
10.591800000000001
30
0
0
VERTEX
8
0
10
10.414
20
10.591800000000001
30
0
42
0.4142135623730951
0
VERTEX
8
0
10
10.4902
20
10.668000000000001
30
0
0
VERTEX
8
0
10
10.4902
20
10.7806
30
0
42
0.3033508535501127
0
VERTEX
8
0
10
10.443159375
20
10.851
30
0
0
VERTEX
8
0
10
10.184884375000001
20
10.957978125
30
0
0
VERTEX
8
0
10
9.943978125000001
20
11.198884375
30
0
0
VERTEX
8
0
10
9.813600000000001
20
11.513646875000001
30
0
0
VERTEX
8
0
10
9.813600000000001
20
11.85435
30
0
0
VERTEX
8
0
10
9.943978125000001
20
12.1691125
30
0
0
VERTEX
8
0
10
10.184884375000001
20
12.41001875
30
0
0
VERTEX
8
0
10
10.443159375
20
12.516996875
30
0
42
0.3033508535501127
0
VERTEX
8
0
10
10.4902
20
12.587396875000001
30
0
0
VERTEX
8
0
10
10.490196875
20
14.8336
30
0
42
0.4142135623730951
0
VERTEX
8
0
10
10.413996875
20
14.9098
30
0
0
VERTEX
8
0
10
6.23501875
20
14.9098
30
0
42
0.5345062264334504
0
VERTEX
8
0
10
6.164618750000001
20
14.804440625000002
30
0
0
VERTEX
8
0
10
6.325996875
20
14.414843750000001
30
0
0
VERTEX
8
0
10
6.325996875
20
13.553153125000001
30
0
0
VERTEX
8
0
10
5.9962437500000005
20
12.75705625
30
0
0
VERTEX
8
0
10
5.386940625
20
12.147753125000001
30
0
0
VERTEX
8
0
10
4.59084375
20
11.818000000000001
30
0
0
VERTEX
8
0
10
3.7291531250000003
20
11.818000000000001
30
0
0
VERTEX
8
0
10
2.93305625
20
12.147753125000001
30
0
0
VERTEX
8
0
10
2.323753125
20
12.75705625
30
0
0
VERTEX
8
0
10
1.994
20
13.553153125000001
30
0
0
VERTEX
8
0
10
1.994
20
14.414843750000001
30
0
0
VERTEX
8
0
10
2.155378125
20
14.804440625000002
30
0
42
0.5345062264334504
0
VERTEX
8
0
10
2.084978125
20
14.9098
30
0
0
VERTEX
8
0
10
1.168396875
20
14.9098
30
0
42
0.4142135623730951
0
VERTEX
8
0
10
1.092196875
20
14.8336
30
0
0
VERTEX
8
0
10
1.092196875
20
11.0882375
30
0
42
0.4931453357944407
0
VERTEX
8
0
10
1.1881187500000001
20
11.014634375
30
0
0
VERTEX
8
0
10
1.700759375
20
11.151996875
30
0
0
VERTEX
8
0
10
2.3632375000000003
20
11.151996875
30
0
0
VERTEX
8
0
10
3.0031375000000002
20
10.9805375
30
0
0
VERTEX
8
0
10
3.576859375
20
10.6493
30
0
0
VERTEX
8
0
10
4.0453
20
10.180859375
30
0
0
VERTEX
8
0
10
4.3765375
20
9.6071375
30
0
0
VERTEX
8
0
10
4.547996875
20
8.967237500000001
30
0
0
VERTEX
8
0
10
4.547996875
20
8.304759375
30
0
0
VERTEX
8
0
10
4.3765375
20
7.664859375000001
30
0
0
VERTEX
8
0
10
4.0453
20
7.0911375
30
0
0
VERTEX
8
0
10
3.576859375
20
6.622696875
30
0
0
VERTEX
8
0
10
3.0031375000000002
20
6.2914593750000005
30
0
0
VERTEX
8
0
10
2.3632375000000003
20
6.12
30
0
0
VERTEX
8
0
10
1.700759375
20
6.12
30
0
0
VERTEX
8
0
10
1.1881187500000001
20
6.2573625
30
0
42
0.4931453357944407
0
VERTEX
8
0
10
1.092196875
20
6.183759375
30
0
0
VERTEX
8
0
10
1.092196875
20
1.168396875
30
0
42
0.4142135623730951
0
VERTEX
8
0
10
1.168396875
20
1.092196875
30
0
0
VERTEX
8
0
10
3.297653125
20
1.092196875
30
0
0
SEQEND
0
POLYLINE
66
1
8
1_copper
10
0.0
20
0.0
30
0.0
70
1
0
VERTEX
8
0
10
8.384471875000001
20
1.09318125
30
0
42
0.7835424601387592
0
VERTEX
8
0
10
8.406812500000001
20
1.238796875
30
0
0
VERTEX
8
0
10
8.237215625000001
20
1.30904375
30
0
0
VERTEX
8
0
10
7.913043750000001
20
1.633215625
30
0
0
VERTEX
8
0
10
7.7376000000000005
20
2.0567687500000003
30
0
0
VERTEX
8
0
10
7.7376000000000005
20
2.515228125
30
0
0
VERTEX
8
0
10
7.913043750000001
20
2.9387812500000003
30
0
0
VERTEX
8
0
10
8.237215625000001
20
3.262953125
30
0
0
VERTEX
8
0
10
8.66076875
20
3.438396875
30
0
0
VERTEX
8
0
10
9.119228125000001
20
3.438396875
30
0
0
VERTEX
8
0
10
9.54278125
20
3.262953125
30
0
0
VERTEX
8
0
10
9.866953125
20
2.9387812500000003
30
0
0
VERTEX
8
0
10
10.042396875
20
2.515228125
30
0
0
VERTEX
8
0
10
10.042396875
20
2.0567687500000003
30
0
0
VERTEX
8
0
10
9.866953125
20
1.633215625
30
0
0
VERTEX
8
0
10
9.54278125
20
1.30904375
30
0
0
VERTEX
8
0
10
9.373184375000001
20
1.238796875
30
0
42
0.8206851812565761
0
VERTEX
8
0
10
9.40234375
20
1.092196875
30
0
0
VERTEX
8
0
10
12.192
20
1.092196875
30
0
42
0.4142135623730951
0
VERTEX
8
0
10
12.2682
20
1.168396875
30
0
0
VERTEX
8
0
10
12.2682
20
5.3340000000000005
30
0
42
0.19891236737965798
0
VERTEX
8
0
10
12.24588125
20
5.38788125
30
0
0
VERTEX
8
0
10
10.9982
20
6.635562500000001
30
0
0
VERTEX
8
0
10
10.9982
20
8.593103125
30
0
0
VERTEX
8
0
10
10.996987500000001
20
8.601509375000001
30
0
42
0.18549778949052398
0
VERTEX
8
0
10
10.963978125
20
8.6588875
30
0
0
VERTEX
8
0
10
10.8336
20
8.973646875
30
0
0
VERTEX
8
0
10
10.8336
20
9.314350000000001
30
0
0
VERTEX
8
0
10
10.963978125
20
9.629109375
30
0
42
0.25609306230226636
0
VERTEX
8
0
10
10.9982
20
9.69489375
30
0
0
VERTEX
8
0
10
10.9982
20
10.8458
30
0
0
VERTEX
8
0
10
12.153103125000001
20
10.8458
30
0
42
0.6681786379192989
0
VERTEX
8
0
10
12.206984375000001
20
10.97588125
30
0
0
VERTEX
8
0
10
11.983978125
20
11.198884375
30
0
0
VERTEX
8
0
10
11.8536
20
11.513646875000001
30
0
0
VERTEX
8
0
10
11.8536
20
11.85435
30
0
0
VERTEX
8
0
10
11.983978125
20
12.1691125
30
0
0
VERTEX
8
0
10
12.224884375
20
12.41001875
30
0
0
VERTEX
8
0
10
12.539646875
20
12.540396875
30
0
0
VERTEX
8
0
10
12.88035
20
12.540396875
30
0
0
VERTEX
8
0
10
13.1951125
20
12.41001875
30
0
0
VERTEX
8
0
10
13.43601875
20
12.1691125
30
0
0
VERTEX
8
0
10
13.566396875
20
11.85435
30
0
0
VERTEX
8
0
10
13.566396875
20
11.513646875000001
30
0
0
VERTEX
8
0
10
13.43601875
20
11.198884375
30
0
0
VERTEX
8
0
10
13.213012500000001
20
10.97588125
30
0
42
0.6681786379192989
0
VERTEX
8
0
10
13.266893750000001
20
10.8458
30
0
0
VERTEX
8
0
10
17.063071875000002
20
10.8458
30
0
42
0.13165334998942924
0
VERTEX
8
0
10
17.101171875000002
20
10.856009375000001
30
0
0
VERTEX
8
0
10
17.316859375
20
10.9805375
30
0
0
VERTEX
8
0
10
17.956759375
20
11.151996875
30
0
0
VERTEX
8
0
10
18.6192375
20
11.151996875
30
0
0
VERTEX
8
0
10
19.131878125
20
11.014634375
30
0
42
0.4931453357944407
0
VERTEX
8
0
10
19.227800000000002
20
11.0882375
30
0
0
VERTEX
8
0
10
19.227800000000002
20
14.8336
30
0
42
0.4142135623730951
0
VERTEX
8
0
10
19.151600000000002
20
14.9098
30
0
0
VERTEX
8
0
10
18.235018750000002
20
14.9098
30
0
42
0.5345062264334504
0
VERTEX
8
0
10
18.164618750000002
20
14.804440625000002
30
0
0
VERTEX
8
0
10
18.325996875
20
14.414843750000001
30
0
0
VERTEX
8
0
10
18.325996875
20
13.553153125000001
30
0
0
VERTEX
8
0
10
17.99624375
20
12.75705625
30
0
0
VERTEX
8
0
10
17.386940625
20
12.147753125000001
30
0
0
VERTEX
8
0
10
16.59084375
20
11.818000000000001
30
0
0
VERTEX
8
0
10
15.729153125000002
20
11.818000000000001
30
0
0
VERTEX
8
0
10
14.93305625
20
12.147753125000001
30
0
0
VERTEX
8
0
10
14.323753125000001
20
12.75705625
30
0
0
VERTEX
8
0
10
13.994000000000002
20
13.553153125000001
30
0
0
VERTEX
8
0
10
13.994000000000002
20
14.414843750000001
30
0
0
VERTEX
8
0
10
14.155378125
20
14.804440625000002
30
0
42
0.5345062264334504
0
VERTEX
8
0
10
14.084978125000001
20
14.9098
30
0
0
VERTEX
8
0
10
8.382
20
14.9098
30
0
42
0.4142135623730951
0
VERTEX
8
0
10
8.3058
20
14.8336
30
0
0
VERTEX
8
0
10
8.3058
20
12.590709375000001
30
0
42
0.5345234496558018
0
VERTEX
8
0
10
8.4111625
20
12.520312500000001
30
0
0
VERTEX
8
0
10
8.45964375
20
12.540396875
30
0
0
VERTEX
8
0
10
8.80035
20
12.540396875
30
0
0
VERTEX
8
0
10
9.1151125
20
12.41001875
30
0
0
VERTEX
8
0
10
9.35601875
20
12.1691125
30
0
0
VERTEX
8
0
10
9.486396875
20
11.85435
30
0
0
VERTEX
8
0
10
9.486396875
20
11.513646875000001
30
0
0
VERTEX
8
0
10
9.35601875
20
11.198884375
30
0
0
VERTEX
8
0
10
9.1151125
20
10.957978125
30
0
0
VERTEX
8
0
10
8.80035
20
10.8276
30
0
0
VERTEX
8
0
10
8.45964375
20
10.8276
30
0
42
0.7471235651960618
0
VERTEX
8
0
10
8.3058
20
10.7772875
30
0
0
VERTEX
8
0
10
8.3058
20
9.69089375
30
0
42
0.19826929649806974
0
VERTEX
8
0
10
8.336018750000001
20
9.6291125
30
0
0
VERTEX
8
0
10
8.466396875000001
20
9.314350000000001
30
0
0
VERTEX
8
0
10
8.466396875000001
20
8.973646875
30
0
0
VERTEX
8
0
10
8.336018750000001
20
8.658884375000001
30
0
42
0.2370406178598088
0
VERTEX
8
0
10
8.3058
20
8.597103125
30
0
0
VERTEX
8
0
10
8.3058
20
6.635562500000001
30
0
0
VERTEX
8
0
10
7.05811875
20
5.38788125
30
0
42
0.19891236737965798
0
VERTEX
8
0
10
7.0358
20
5.3340000000000005
30
0
0
VERTEX
8
0
10
7.0358
20
3.261496875
30
0
42
0.19891236737965798
0
VERTEX
8
0
10
7.05811875
20
3.2076156250000003
30
0
0
VERTEX
8
0
10
7.326953125
20
2.9387812500000003
30
0
0
VERTEX
8
0
10
7.5023968750000005
20
2.515228125
30
0
0
VERTEX
8
0
10
7.5023968750000005
20
2.0567687500000003
30
0
0
VERTEX
8
0
10
7.326953125
20
1.633215625
30
0
0
VERTEX
8
0
10
7.05811875
20
1.36438125
30
0
42
0.19891236737965798
0
VERTEX
8
0
10
7.0358
20
1.3105
30
0
0
VERTEX
8
0
10
7.0358
20
1.168396875
30
0
42
0.4142135623730951
0
VERTEX
8
0
10
7.112
20
1.092196875
30
0
0
VERTEX
8
0
10
8.377653125
20
1.092196875
30
0
0
SEQEND
0
POLYLINE
66
1
8
1_copper
10
0.0
20
0.0
30
0.0
70
1
0
VERTEX
8
0
10
9.479646875
20
8.287600000000001
30
0
0
VERTEX
8
0
10
9.164884375
20
8.417978125000001
30
0
0
VERTEX
8
0
10
8.923978125
20
8.658884375000001
30
0
0
VERTEX
8
0
10
8.7936
20
8.973646875
30
0
0
VERTEX
8
0
10
8.7936
20
9.314350000000001
30
0
0
VERTEX
8
0
10
8.923978125
20
9.6291125
30
0
0
VERTEX
8
0
10
9.164884375
20
9.87001875
30
0
0
VERTEX
8
0
10
9.479646875
20
10.000396875
30
0
0
VERTEX
8
0
10
9.820350000000001
20
10.000396875
30
0
0
VERTEX
8
0
10
10.1351125
20
9.87001875
30
0
0
VERTEX
8
0
10
10.37601875
20
9.6291125
30
0
0
VERTEX
8
0
10
10.506396875
20
9.314350000000001
30
0
0
VERTEX
8
0
10
10.506396875
20
8.973646875
30
0
0
VERTEX
8
0
10
10.37601875
20
8.658884375000001
30
0
0
VERTEX
8
0
10
10.1351125
20
8.417978125000001
30
0
0
VERTEX
8
0
10
9.820350000000001
20
8.287600000000001
30
0
0
SEQEND
0
POLYLINE
66
1
8
16_copper
10
0.0
20
0.0
30
0.0
70
1
0
VERTEX
8
0
10
13.464471875000001
20
1.09318125
30
0
42
0.7835424601387592
0
VERTEX
8
0
10
13.486812500000001
20
1.238796875
30
0
0
VERTEX
8
0
10
13.317215625000001
20
1.30904375
30
0
0
VERTEX
8
0
10
12.99304375
20
1.633215625
30
0
0
VERTEX
8
0
10
12.8176
20
2.0567687500000003
30
0
0
VERTEX
8
0
10
12.8176
20
2.515228125
30
0
0
VERTEX
8
0
10
12.99304375
20
2.9387812500000003
30
0
0
VERTEX
8
0
10
13.317215625000001
20
3.262953125
30
0
0
VERTEX
8
0
10
13.74076875
20
3.438396875
30
0
0
VERTEX
8
0
10
14.199228125000001
20
3.438396875
30
0
0
VERTEX
8
0
10
14.622781250000001
20
3.262953125
30
0
0
VERTEX
8
0
10
14.946953125
20
2.9387812500000003
30
0
0
VERTEX
8
0
10
15.122396875000002
20
2.515228125
30
0
0
VERTEX
8
0
10
15.122396875000002
20
2.0567687500000003
30
0
0
VERTEX
8
0
10
14.946953125
20
1.633215625
30
0
0
VERTEX
8
0
10
14.622781250000001
20
1.30904375
30
0
0
VERTEX
8
0
10
14.453184375000001
20
1.238796875
30
0
42
0.8206851812565761
0
VERTEX
8
0
10
14.48234375
20
1.092196875
30
0
0
VERTEX
8
0
10
19.151600000000002
20
1.092196875
30
0
42
0.4142135623730951
0
VERTEX
8
0
10
19.227800000000002
20
1.168396875
30
0
0
VERTEX
8
0
10
19.227800000000002
20
6.183759375
30
0
42
0.4931453357944407
0
VERTEX
8
0
10
19.131878125
20
6.2573625
30
0
0
VERTEX
8
0
10
18.6192375
20
6.12
30
0
0
VERTEX
8
0
10
17.956759375
20
6.12
30
0
0
VERTEX
8
0
10
17.316859375
20
6.2914593750000005
30
0
0
VERTEX
8
0
10
16.7431375
20
6.622696875
30
0
0
VERTEX
8
0
10
16.274696875
20
7.0911375
30
0
0
VERTEX
8
0
10
15.943459375000002
20
7.664859375000001
30
0
0
VERTEX
8
0
10
15.772
20
8.304759375
30
0
0
VERTEX
8
0
10
15.772
20
8.967237500000001
30
0
0
VERTEX
8
0
10
15.943459375000002
20
9.6071375
30
0
0
VERTEX
8
0
10
16.274696875
20
10.180859375
30
0
0
VERTEX
8
0
10
16.7431375
20
10.6493
30
0
0
VERTEX
8
0
10
17.316859375
20
10.9805375
30
0
0
VERTEX
8
0
10
17.956759375
20
11.151996875
30
0
0
VERTEX
8
0
10
18.6192375
20
11.151996875
30
0
0
VERTEX
8
0
10
19.131878125
20
11.014634375
30
0
42
0.4931453357944407
0
VERTEX
8
0
10
19.227800000000002
20
11.0882375
30
0
0
VERTEX
8
0
10
19.227800000000002
20
14.8336
30
0
42
0.4142135623730951
0
VERTEX
8
0
10
19.151600000000002
20
14.9098
30
0
0
VERTEX
8
0
10
18.235018750000002
20
14.9098
30
0
42
0.5345062264334504
0
VERTEX
8
0
10
18.164618750000002
20
14.804440625000002
30
0
0
VERTEX
8
0
10
18.325996875
20
14.414843750000001
30
0
0
VERTEX
8
0
10
18.325996875
20
13.553153125000001
30
0
0
VERTEX
8
0
10
17.99624375
20
12.75705625
30
0
0
VERTEX
8
0
10
17.386940625
20
12.147753125000001
30
0
0
VERTEX
8
0
10
16.59084375
20
11.818000000000001
30
0
0
VERTEX
8
0
10
15.729153125000002
20
11.818000000000001
30
0
0
VERTEX
8
0
10
14.93305625
20
12.147753125000001
30
0
0
VERTEX
8
0
10
14.323753125000001
20
12.75705625
30
0
0
VERTEX
8
0
10
13.994000000000002
20
13.553153125000001
30
0
0
VERTEX
8
0
10
13.994000000000002
20
14.414843750000001
30
0
0
VERTEX
8
0
10
14.155378125
20
14.804440625000002
30
0
42
0.5345062264334504
0
VERTEX
8
0
10
14.084978125000001
20
14.9098
30
0
0
VERTEX
8
0
10
12.192
20
14.9098
30
0
42
0.4142135623730951
0
VERTEX
8
0
10
12.1158
20
14.8336
30
0
0
VERTEX
8
0
10
12.1158
20
9.945500000000001
30
0
42
0.010758926269932452
0
VERTEX
8
0
10
12.115871875
20
9.942221875000001
30
0
0
VERTEX
8
0
10
12.117584375
20
9.933128125
30
0
42
0.2465776724032259
0
VERTEX
8
0
10
12.175115625
20
9.870015625
30
0
0
VERTEX
8
0
10
12.416018750000001
20
9.6291125
30
0
0
VERTEX
8
0
10
12.546396875000001
20
9.314350000000001
30
0
0
VERTEX
8
0
10
12.546396875000001
20
8.973646875
30
0
0
VERTEX
8
0
10
12.416018750000001
20
8.658884375000001
30
0
0
VERTEX
8
0
10
12.175115625
20
8.41798125
30
0
42
0.35113383930156106
0
VERTEX
8
0
10
12.1158
20
8.342496875
30
0
0
VERTEX
8
0
10
12.1158
20
3.261496875
30
0
42
0.19891236737965798
0
VERTEX
8
0
10
12.13811875
20
3.2076156250000003
30
0
0
VERTEX
8
0
10
12.406953125000001
20
2.9387812500000003
30
0
0
VERTEX
8
0
10
12.582396875
20
2.515228125
30
0
0
VERTEX
8
0
10
12.582396875
20
2.0567687500000003
30
0
0
VERTEX
8
0
10
12.406953125000001
20
1.633215625
30
0
0
VERTEX
8
0
10
12.13811875
20
1.36438125
30
0
42
0.19891236737965798
0
VERTEX
8
0
10
12.1158
20
1.3105
30
0
0
VERTEX
8
0
10
12.1158
20
1.168396875
30
0
42
0.4142135623730951
0
VERTEX
8
0
10
12.192
20
1.092196875
30
0
0
VERTEX
8
0
10
13.457653125
20
1.092196875
30
0
0
SEQEND
0
POLYLINE
66
1
8
1_copper
10
0.0
20
0.0
30
0.0
70
1
0
VERTEX
8
0
10
5.59361875
20
1.093009375
30
0
42
0.39258815634569955
0
VERTEX
8
0
10
5.6642
20
1.168396875
30
0
0
VERTEX
8
0
10
5.6642
20
1.3105
30
0
42
0.19891236737965798
0
VERTEX
8
0
10
5.64188125
20
1.36438125
30
0
0
VERTEX
8
0
10
5.37304375
20
1.633215625
30
0
0
VERTEX
8
0
10
5.1976
20
2.0567687500000003
30
0
0
VERTEX
8
0
10
5.1976
20
2.515228125
30
0
0
VERTEX
8
0
10
5.37304375
20
2.9387812500000003
30
0
0
VERTEX
8
0
10
5.64188125
20
3.2076156250000003
30
0
42
0.19891236737965798
0
VERTEX
8
0
10
5.6642
20
3.261496875
30
0
0
VERTEX
8
0
10
5.6642
20
5.3024375
30
0
0
VERTEX
8
0
10
7.92788125
20
7.56611875
30
0
42
0.19891236737965798
0
VERTEX
8
0
10
7.950200000000001
20
7.62
30
0
0
VERTEX
8
0
10
7.950200000000001
20
11.121103125000001
30
0
42
0.09996056417648533
0
VERTEX
8
0
10
7.943543750000001
20
11.150384375
30
0
0
VERTEX
8
0
10
7.940493750000001
20
11.158318750000001
30
0
42
0.1417852542238869
0
VERTEX
8
0
10
7.903978125
20
11.1988875
30
0
0
VERTEX
8
0
10
7.7736
20
11.513646875000001
30
0
0
VERTEX
8
0
10
7.7736
20
11.85435
30
0
0
VERTEX
8
0
10
7.903978125
20
12.169109375000001
30
0
42
0.3101414536849305
0
VERTEX
8
0
10
7.950200000000001
20
12.24689375
30
0
0
VERTEX
8
0
10
7.950200000000001
20
14.8336
30
0
42
0.4142135623730951
0
VERTEX
8
0
10
7.8740000000000006
20
14.9098
30
0
0
VERTEX
8
0
10
6.23501875
20
14.9098
30
0
42
0.5345062264334504
0
VERTEX
8
0
10
6.164618750000001
20
14.804440625000002
30
0
0
VERTEX
8
0
10
6.325996875
20
14.414843750000001
30
0
0
VERTEX
8
0
10
6.325996875
20
13.553153125000001
30
0
0
VERTEX
8
0
10
5.9962437500000005
20
12.75705625
30
0
0
VERTEX
8
0
10
5.386940625
20
12.147753125000001
30
0
0
VERTEX
8
0
10
4.59084375
20
11.818000000000001
30
0
0
VERTEX
8
0
10
3.7291531250000003
20
11.818000000000001
30
0
0
VERTEX
8
0
10
2.93305625
20
12.147753125000001
30
0
0
VERTEX
8
0
10
2.323753125
20
12.75705625
30
0
0
VERTEX
8
0
10
1.994
20
13.553153125000001
30
0
0
VERTEX
8
0
10
1.994
20
14.414843750000001
30
0
0
VERTEX
8
0
10
2.155378125
20
14.804440625000002
30
0
42
0.5345062264334504
0
VERTEX
8
0
10
2.084978125
20
14.9098
30
0
0
VERTEX
8
0
10
1.168396875
20
14.9098
30
0
42
0.4142135623730951
0
VERTEX
8
0
10
1.092196875
20
14.8336
30
0
0
VERTEX
8
0
10
1.092196875
20
11.0882375
30
0
42
0.4931453357944407
0
VERTEX
8
0
10
1.1881187500000001
20
11.014634375
30
0
0
VERTEX
8
0
10
1.700759375
20
11.151996875
30
0
0
VERTEX
8
0
10
2.3632375000000003
20
11.151996875
30
0
0
VERTEX
8
0
10
3.0031375000000002
20
10.9805375
30
0
0
VERTEX
8
0
10
3.576859375
20
10.6493
30
0
0
VERTEX
8
0
10
4.0453
20
10.180859375
30
0
0
VERTEX
8
0
10
4.3765375
20
9.6071375
30
0
0
VERTEX
8
0
10
4.547996875
20
8.967237500000001
30
0
0
VERTEX
8
0
10
4.547996875
20
8.304759375
30
0
0
VERTEX
8
0
10
4.3765375
20
7.664859375000001
30
0
0
VERTEX
8
0
10
4.0453
20
7.0911375
30
0
0
VERTEX
8
0
10
3.576859375
20
6.622696875
30
0
0
VERTEX
8
0
10
3.0031375000000002
20
6.2914593750000005
30
0
0
VERTEX
8
0
10
2.3632375000000003
20
6.12
30
0
0
VERTEX
8
0
10
1.700759375
20
6.12
30
0
0
VERTEX
8
0
10
1.1881187500000001
20
6.2573625
30
0
42
0.4931453357944407
0
VERTEX
8
0
10
1.092196875
20
6.183759375
30
0
0
VERTEX
8
0
10
1.092196875
20
1.168396875
30
0
42
0.4142135623730951
0
VERTEX
8
0
10
1.168396875
20
1.092196875
30
0
0
VERTEX
8
0
10
5.588
20
1.092196875
30
0
0
SEQEND
0
POLYLINE
66
1
8
16_copper
10
0.0
20
0.0
30
0.0
70
1
0
VERTEX
8
0
10
10.924471875
20
1.09318125
30
0
42
0.7835424601387592
0
VERTEX
8
0
10
10.9468125
20
1.238796875
30
0
0
VERTEX
8
0
10
10.777215625
20
1.30904375
30
0
0
VERTEX
8
0
10
10.45304375
20
1.633215625
30
0
0
VERTEX
8
0
10
10.2776
20
2.0567687500000003
30
0
0
VERTEX
8
0
10
10.2776
20
2.515228125
30
0
0
VERTEX
8
0
10
10.45304375
20
2.9387812500000003
30
0
0
VERTEX
8
0
10
10.777215625
20
3.262953125
30
0
0
VERTEX
8
0
10
11.20076875
20
3.438396875
30
0
0
VERTEX
8
0
10
11.43
20
3.438396875
30
0
42
0.4142135623730951
0
VERTEX
8
0
10
11.5062
20
3.514596875
30
0
0
VERTEX
8
0
10
11.5062
20
8.24225625
30
0
42
0.3033508535501127
0
VERTEX
8
0
10
11.459159375
20
8.31265625
30
0
0
VERTEX
8
0
10
11.204884375
20
8.417978125000001
30
0
0
VERTEX
8
0
10
10.963978125
20
8.658884375000001
30
0
0
VERTEX
8
0
10
10.8336
20
8.973646875
30
0
0
VERTEX
8
0
10
10.8336
20
9.314350000000001
30
0
0
VERTEX
8
0
10
10.963978125
20
9.6291125
30
0
0
VERTEX
8
0
10
11.186984375
20
9.85211875
30
0
42
0.6681786379192989
0
VERTEX
8
0
10
11.133103125
20
9.9822
30
0
0
VERTEX
8
0
10
8.16689375
20
9.9822
30
0
42
0.6681786379192989
0
VERTEX
8
0
10
8.1130125
20
9.85211875
30
0
0
VERTEX
8
0
10
8.336018750000001
20
9.6291125
30
0
0
VERTEX
8
0
10
8.466396875000001
20
9.314350000000001
30
0
0
VERTEX
8
0
10
8.466396875000001
20
8.973646875
30
0
0
VERTEX
8
0
10
8.336018750000001
20
8.658884375000001
30
0
0
VERTEX
8
0
10
8.0943875
20
8.417253125
30
0
42
0.28552090945235736
0
VERTEX
8
0
10
8.0518
20
8.349121875
30
0
0
VERTEX
8
0
10
8.0518
20
1.168396875
30
0
42
0.4142135623730951
0
VERTEX
8
0
10
8.128
20
1.092196875
30
0
0
VERTEX
8
0
10
10.917653125000001
20
1.092196875
30
0
0
SEQEND
0
POLYLINE
66
1
8
1_copper
10
0.0
20
0.0
30
0.0
70
1
0
VERTEX
8
0
10
16.004471875
20
1.09318125
30
0
42
0.7835424601387592
0
VERTEX
8
0
10
16.026812500000002
20
1.238796875
30
0
0
VERTEX
8
0
10
15.857215625
20
1.30904375
30
0
0
VERTEX
8
0
10
15.533043750000001
20
1.633215625
30
0
0
VERTEX
8
0
10
15.357600000000001
20
2.0567687500000003
30
0
0
VERTEX
8
0
10
15.357600000000001
20
2.515228125
30
0
0
VERTEX
8
0
10
15.533043750000001
20
2.9387812500000003
30
0
0
VERTEX
8
0
10
15.857215625
20
3.262953125
30
0
0
VERTEX
8
0
10
16.28076875
20
3.438396875
30
0
0
VERTEX
8
0
10
16.739228125
20
3.438396875
30
0
0
VERTEX
8
0
10
17.162781250000002
20
3.262953125
30
0
0
VERTEX
8
0
10
17.486953125
20
2.9387812500000003
30
0
0
VERTEX
8
0
10
17.662396875000002
20
2.515228125
30
0
0
VERTEX
8
0
10
17.662396875000002
20
2.0567687500000003
30
0
0
VERTEX
8
0
10
17.486953125
20
1.633215625
30
0
0
VERTEX
8
0
10
17.162781250000002
20
1.30904375
30
0
0
VERTEX
8
0
10
16.993184375000002
20
1.238796875
30
0
42
0.8206851812565761
0
VERTEX
8
0
10
17.02234375
20
1.092196875
30
0
0
VERTEX
8
0
10
19.151600000000002
20
1.092196875
30
0
42
0.4142135623730951
0
VERTEX
8
0
10
19.227800000000002
20
1.168396875
30
0
0
VERTEX
8
0
10
19.227800000000002
20
6.183759375
30
0
42
0.4931453357944407
0
VERTEX
8
0
10
19.131878125
20
6.2573625
30
0
0
VERTEX
8
0
10
18.6192375
20
6.12
30
0
0
VERTEX
8
0
10
17.956759375
20
6.12
30
0
0
VERTEX
8
0
10
17.316859375
20
6.2914593750000005
30
0
0
VERTEX
8
0
10
16.7431375
20
6.622696875
30
0
0
VERTEX
8
0
10
16.274696875
20
7.0911375
30
0
0
VERTEX
8
0
10
15.943459375000002
20
7.664859375000001
30
0
0
VERTEX
8
0
10
15.772
20
8.304759375
30
0
0
VERTEX
8
0
10
15.772
20
8.967237500000001
30
0
0
VERTEX
8
0
10
15.943459375000002
20
9.6071375
30
0
0
VERTEX
8
0
10
16.240659375
20
10.1219
30
0
42
0.5773513863628241
0
VERTEX
8
0
10
16.174668750000002
20
10.2362
30
0
0
VERTEX
8
0
10
11.43
20
10.2362
30
0
42
0.4142135623730951
0
VERTEX
8
0
10
11.3538
20
10.16
30
0
0
VERTEX
8
0
10
11.3538
20
7.112
30
0
42
0.19891236737965798
0
VERTEX
8
0
10
11.37611875
20
7.05811875
30
0
0
VERTEX
8
0
10
13.1318
20
5.3024375
30
0
0
VERTEX
8
0
10
13.1318
20
1.168396875
30
0
42
0.4142135623730951
0
VERTEX
8
0
10
13.208
20
1.092196875
30
0
0
VERTEX
8
0
10
15.997653125000001
20
1.092196875
30
0
0
SEQEND
0
CIRCLE
8
drills_NPTH
10
2.032
20
8.636000000000001
30
0
40
1.5
0
CIRCLE
8
drills_NPTH
10
18.288
20
8.636000000000001
30
0
40
1.5
0
CIRCLE
8
drills_NPTH
10
16.16
20
13.984
30
0
40
1.1500000000000001
0
CIRCLE
8
drills_NPTH
10
4.16
20
13.984
30
0
40
1.1500000000000001
0
CIRCLE
8
drills_PTH
10
6.3500000000000005
20
2.286
30
0
40
0.5
0
CIRCLE
8
drills_PTH
10
11.43
20
2.286
30
0
40
0.5
0
CIRCLE
8
drills_PTH
10
16.51
20
2.286
30
0
40
0.5
0
CIRCLE
8
drills_PTH
10
3.81
20
2.286
30
0
40
0.5
0
CIRCLE
8
drills_PTH
10
8.89
20
2.286
30
0
40
0.5
0
CIRCLE
8
drills_PTH
10
13.97
20
2.286
30
0
40
0.5
0
CIRCLE
8
drills_PTH
10
10.67
20
11.684000000000001
30
0
40
0.45
0
CIRCLE
8
drills_PTH
10
9.65
20
9.144
30
0
40
0.45
0
CIRCLE
8
drills_PTH
10
11.690000000000001
20
9.144
30
0
40
0.45
0
CIRCLE
8
drills_PTH
10
12.71
20
11.684000000000001
30
0
40
0.45
0
CIRCLE
8
drills_PTH
10
8.63
20
11.684000000000001
30
0
40
0.45
0
CIRCLE
8
drills_PTH
10
7.61
20
9.144
30
0
40
0.45
0
ENDSEC
0
EOF