G04 EAGLE Gerber X2 export*
%TF.Part,Single*%
%TF.FileFunction,Copper,L2,Bot,Mixed*%
%TF.FilePolarity,Positive*%
%TF.GenerationSoftware,Autodesk,EAGLE,8.6.0*%
%TF.CreationDate,2018-01-28T06:29:07Z*%
G75*
%MOMM*%
%FSLAX34Y34*%
%LPD*%
%AMOC8*
5,1,8,0,0,1.08239X$1,22.5*%
G01*
%ADD10C,1.408000*%
%ADD11C,2.000000*%

G36*
X71140Y10926D02*
X71140Y10926D01*
X71159Y10924D01*
X71261Y10946D01*
X71363Y10962D01*
X71380Y10972D01*
X71400Y10976D01*
X71489Y11029D01*
X71580Y11078D01*
X71594Y11092D01*
X71611Y11102D01*
X71678Y11181D01*
X71749Y11256D01*
X71758Y11274D01*
X71771Y11289D01*
X71810Y11385D01*
X71853Y11479D01*
X71855Y11499D01*
X71863Y11517D01*
X71881Y11684D01*
X71881Y52928D01*
X71862Y53044D01*
X71845Y53159D01*
X71842Y53165D01*
X71841Y53171D01*
X71787Y53274D01*
X71734Y53379D01*
X71729Y53383D01*
X71726Y53389D01*
X71642Y53469D01*
X71558Y53551D01*
X71552Y53554D01*
X71548Y53558D01*
X71531Y53566D01*
X71411Y53632D01*
X71248Y53699D01*
X68839Y56108D01*
X67535Y59256D01*
X67535Y62664D01*
X68839Y65812D01*
X71248Y68221D01*
X71411Y68288D01*
X71511Y68350D01*
X71611Y68410D01*
X71615Y68415D01*
X71620Y68418D01*
X71694Y68507D01*
X71771Y68597D01*
X71773Y68603D01*
X71777Y68607D01*
X71819Y68716D01*
X71863Y68825D01*
X71864Y68832D01*
X71865Y68837D01*
X71866Y68855D01*
X71881Y68992D01*
X71881Y70359D01*
X86360Y70359D01*
X86450Y70374D01*
X86541Y70381D01*
X86571Y70393D01*
X86603Y70399D01*
X86683Y70441D01*
X86767Y70477D01*
X86799Y70503D01*
X86820Y70514D01*
X86842Y70537D01*
X86898Y70582D01*
X98607Y82290D01*
X98675Y82385D01*
X98745Y82479D01*
X98747Y82485D01*
X98750Y82490D01*
X98784Y82601D01*
X98821Y82713D01*
X98821Y82719D01*
X98823Y82725D01*
X98820Y82842D01*
X98818Y82959D01*
X98816Y82966D01*
X98816Y82971D01*
X98810Y82988D01*
X98772Y83120D01*
X98135Y84656D01*
X98135Y88064D01*
X99439Y91212D01*
X101848Y93621D01*
X104431Y94691D01*
X104531Y94753D01*
X104631Y94812D01*
X104635Y94817D01*
X104640Y94820D01*
X104715Y94911D01*
X104791Y94999D01*
X104793Y95005D01*
X104797Y95010D01*
X104839Y95118D01*
X104883Y95227D01*
X104884Y95235D01*
X104885Y95239D01*
X104886Y95258D01*
X104901Y95394D01*
X104901Y128016D01*
X104898Y128036D01*
X104900Y128055D01*
X104878Y128157D01*
X104861Y128259D01*
X104852Y128276D01*
X104848Y128296D01*
X104795Y128385D01*
X104746Y128476D01*
X104732Y128490D01*
X104722Y128507D01*
X104643Y128574D01*
X104568Y128646D01*
X104550Y128654D01*
X104535Y128667D01*
X104439Y128706D01*
X104345Y128749D01*
X104325Y128751D01*
X104307Y128759D01*
X104140Y128777D01*
X54653Y128777D01*
X54583Y128766D01*
X54511Y128764D01*
X54462Y128746D01*
X54411Y128738D01*
X54347Y128704D01*
X54280Y128679D01*
X54239Y128647D01*
X54193Y128622D01*
X54144Y128570D01*
X54088Y128526D01*
X54060Y128482D01*
X54024Y128444D01*
X53994Y128379D01*
X53955Y128319D01*
X53942Y128268D01*
X53920Y128221D01*
X53912Y128150D01*
X53895Y128080D01*
X53899Y128028D01*
X53893Y127977D01*
X53908Y127906D01*
X53914Y127835D01*
X53934Y127787D01*
X53945Y127736D01*
X53982Y127675D01*
X54010Y127609D01*
X54055Y127553D01*
X54072Y127525D01*
X54089Y127510D01*
X54115Y127478D01*
X59963Y121630D01*
X63261Y113669D01*
X63261Y105051D01*
X59963Y97090D01*
X53870Y90997D01*
X45909Y87699D01*
X37291Y87699D01*
X33282Y89360D01*
X33210Y89377D01*
X33141Y89403D01*
X33091Y89405D01*
X33042Y89416D01*
X32969Y89409D01*
X32895Y89412D01*
X32847Y89398D01*
X32798Y89393D01*
X32730Y89363D01*
X32659Y89342D01*
X32618Y89313D01*
X32573Y89293D01*
X32518Y89243D01*
X32458Y89201D01*
X32429Y89161D01*
X32392Y89127D01*
X32356Y89062D01*
X32312Y89003D01*
X32297Y88955D01*
X32273Y88911D01*
X32260Y88839D01*
X32238Y88768D01*
X32238Y88718D01*
X32229Y88669D01*
X32240Y88596D01*
X32241Y88522D01*
X32258Y88475D01*
X32265Y88426D01*
X32299Y88360D01*
X32323Y88291D01*
X32354Y88251D01*
X32377Y88207D01*
X32429Y88155D01*
X32475Y88097D01*
X32530Y88057D01*
X32552Y88034D01*
X32582Y88018D01*
X32610Y87998D01*
X35769Y86174D01*
X40454Y81489D01*
X43766Y75752D01*
X45481Y69352D01*
X45481Y62727D01*
X43766Y56328D01*
X40454Y50591D01*
X35769Y45906D01*
X30032Y42594D01*
X23632Y40879D01*
X17008Y40879D01*
X11881Y42253D01*
X11762Y42265D01*
X11645Y42278D01*
X11640Y42277D01*
X11636Y42277D01*
X11521Y42251D01*
X11404Y42226D01*
X11401Y42223D01*
X11396Y42222D01*
X11295Y42160D01*
X11193Y42099D01*
X11190Y42096D01*
X11187Y42094D01*
X11110Y42003D01*
X11033Y41912D01*
X11032Y41909D01*
X11029Y41905D01*
X10986Y41795D01*
X10941Y41684D01*
X10941Y41679D01*
X10939Y41676D01*
X10939Y41663D01*
X10923Y41518D01*
X10923Y11684D01*
X10926Y11664D01*
X10924Y11645D01*
X10946Y11543D01*
X10962Y11441D01*
X10972Y11424D01*
X10976Y11404D01*
X11029Y11315D01*
X11078Y11224D01*
X11092Y11210D01*
X11102Y11193D01*
X11181Y11126D01*
X11256Y11054D01*
X11274Y11046D01*
X11289Y11033D01*
X11385Y10994D01*
X11479Y10951D01*
X11499Y10949D01*
X11517Y10941D01*
X11684Y10923D01*
X71120Y10923D01*
X71140Y10926D01*
G37*
G36*
X191536Y10926D02*
X191536Y10926D01*
X191555Y10924D01*
X191657Y10946D01*
X191759Y10962D01*
X191776Y10972D01*
X191796Y10976D01*
X191885Y11029D01*
X191976Y11078D01*
X191990Y11092D01*
X192007Y11102D01*
X192074Y11181D01*
X192146Y11256D01*
X192154Y11274D01*
X192167Y11289D01*
X192206Y11385D01*
X192249Y11479D01*
X192251Y11499D01*
X192259Y11517D01*
X192277Y11684D01*
X192277Y41518D01*
X192258Y41635D01*
X192240Y41752D01*
X192238Y41756D01*
X192238Y41760D01*
X192182Y41866D01*
X192127Y41971D01*
X192124Y41974D01*
X192122Y41978D01*
X192036Y42060D01*
X191951Y42142D01*
X191947Y42144D01*
X191944Y42147D01*
X191836Y42197D01*
X191729Y42248D01*
X191725Y42249D01*
X191721Y42251D01*
X191604Y42264D01*
X191485Y42278D01*
X191480Y42277D01*
X191477Y42278D01*
X191463Y42275D01*
X191319Y42253D01*
X186192Y40879D01*
X179568Y40879D01*
X173168Y42594D01*
X167431Y45906D01*
X162746Y50591D01*
X159434Y56328D01*
X157719Y62727D01*
X157719Y69352D01*
X159434Y75752D01*
X162746Y81489D01*
X167431Y86174D01*
X170590Y87998D01*
X170647Y88044D01*
X170710Y88083D01*
X170742Y88122D01*
X170780Y88153D01*
X170820Y88216D01*
X170867Y88273D01*
X170885Y88319D01*
X170911Y88362D01*
X170928Y88433D01*
X170955Y88502D01*
X170957Y88552D01*
X170969Y88601D01*
X170962Y88674D01*
X170965Y88748D01*
X170951Y88796D01*
X170947Y88846D01*
X170917Y88913D01*
X170897Y88984D01*
X170868Y89025D01*
X170848Y89071D01*
X170798Y89126D01*
X170756Y89186D01*
X170716Y89216D01*
X170683Y89253D01*
X170618Y89289D01*
X170559Y89333D01*
X170512Y89348D01*
X170468Y89373D01*
X170395Y89386D01*
X170325Y89409D01*
X170275Y89409D01*
X170226Y89418D01*
X170153Y89408D01*
X170079Y89407D01*
X170014Y89388D01*
X169982Y89383D01*
X169951Y89370D01*
X169918Y89360D01*
X165909Y87699D01*
X157291Y87699D01*
X149330Y90997D01*
X143237Y97090D01*
X139939Y105051D01*
X139939Y113669D01*
X143237Y121630D01*
X149085Y127478D01*
X149127Y127536D01*
X149176Y127588D01*
X149198Y127635D01*
X149228Y127677D01*
X149249Y127746D01*
X149280Y127811D01*
X149285Y127863D01*
X149301Y127913D01*
X149299Y127984D01*
X149307Y128055D01*
X149296Y128106D01*
X149294Y128158D01*
X149270Y128226D01*
X149255Y128296D01*
X149228Y128341D01*
X149210Y128389D01*
X149165Y128445D01*
X149128Y128507D01*
X149089Y128541D01*
X149056Y128581D01*
X148996Y128620D01*
X148941Y128667D01*
X148893Y128686D01*
X148849Y128714D01*
X148780Y128732D01*
X148713Y128759D01*
X148642Y128767D01*
X148611Y128775D01*
X148587Y128773D01*
X148547Y128777D01*
X119847Y128777D01*
X119813Y128772D01*
X119778Y128774D01*
X119692Y128752D01*
X119605Y128738D01*
X119574Y128721D01*
X119539Y128712D01*
X119465Y128664D01*
X119387Y128622D01*
X119363Y128597D01*
X119334Y128578D01*
X119279Y128508D01*
X119218Y128444D01*
X119203Y128412D01*
X119181Y128385D01*
X119152Y128301D01*
X119114Y128221D01*
X119110Y128186D01*
X119099Y128153D01*
X119087Y127986D01*
X121159Y76184D01*
X121159Y68975D01*
X121178Y68860D01*
X121195Y68744D01*
X121198Y68738D01*
X121199Y68732D01*
X121253Y68629D01*
X121306Y68525D01*
X121311Y68520D01*
X121314Y68515D01*
X121398Y68435D01*
X121482Y68353D01*
X121488Y68349D01*
X121492Y68346D01*
X121509Y68338D01*
X121629Y68272D01*
X121752Y68221D01*
X124161Y65812D01*
X125465Y62664D01*
X125465Y59256D01*
X124161Y56108D01*
X121752Y53699D01*
X121629Y53648D01*
X121529Y53586D01*
X121429Y53527D01*
X121425Y53522D01*
X121420Y53519D01*
X121345Y53428D01*
X121269Y53340D01*
X121267Y53334D01*
X121263Y53329D01*
X121221Y53220D01*
X121177Y53112D01*
X121176Y53104D01*
X121175Y53100D01*
X121174Y53081D01*
X121159Y52945D01*
X121159Y35155D01*
X121174Y35065D01*
X121181Y34974D01*
X121193Y34944D01*
X121199Y34912D01*
X121241Y34832D01*
X121277Y34748D01*
X121303Y34716D01*
X121314Y34695D01*
X121337Y34673D01*
X121382Y34617D01*
X124070Y31928D01*
X125825Y27692D01*
X125825Y23108D01*
X124070Y18872D01*
X121382Y16183D01*
X121329Y16109D01*
X121269Y16040D01*
X121257Y16010D01*
X121238Y15984D01*
X121211Y15897D01*
X121177Y15812D01*
X121173Y15771D01*
X121166Y15748D01*
X121167Y15716D01*
X121159Y15645D01*
X121159Y11684D01*
X121162Y11664D01*
X121160Y11645D01*
X121182Y11543D01*
X121199Y11441D01*
X121208Y11424D01*
X121212Y11404D01*
X121265Y11315D01*
X121314Y11224D01*
X121328Y11210D01*
X121338Y11193D01*
X121417Y11126D01*
X121492Y11054D01*
X121510Y11046D01*
X121525Y11033D01*
X121621Y10994D01*
X121715Y10951D01*
X121735Y10949D01*
X121753Y10941D01*
X121920Y10923D01*
X191516Y10923D01*
X191536Y10926D01*
G37*
G36*
X114320Y10926D02*
X114320Y10926D01*
X114339Y10924D01*
X114441Y10946D01*
X114543Y10962D01*
X114560Y10972D01*
X114580Y10976D01*
X114669Y11029D01*
X114760Y11078D01*
X114774Y11092D01*
X114791Y11102D01*
X114858Y11181D01*
X114930Y11256D01*
X114938Y11274D01*
X114951Y11289D01*
X114990Y11385D01*
X115033Y11479D01*
X115035Y11499D01*
X115043Y11517D01*
X115061Y11684D01*
X115061Y13114D01*
X115058Y13134D01*
X115060Y13153D01*
X115038Y13255D01*
X115022Y13357D01*
X115012Y13374D01*
X115008Y13394D01*
X114955Y13483D01*
X114906Y13574D01*
X114892Y13588D01*
X114882Y13605D01*
X114803Y13672D01*
X114728Y13744D01*
X114710Y13752D01*
X114695Y13765D01*
X114599Y13804D01*
X114505Y13847D01*
X114485Y13849D01*
X114467Y13857D01*
X114300Y13875D01*
X112008Y13875D01*
X107772Y15630D01*
X104530Y18872D01*
X102775Y23108D01*
X102775Y27692D01*
X104530Y31928D01*
X107772Y35170D01*
X112008Y36925D01*
X114300Y36925D01*
X114320Y36928D01*
X114339Y36926D01*
X114441Y36948D01*
X114543Y36964D01*
X114560Y36974D01*
X114580Y36978D01*
X114669Y37031D01*
X114760Y37080D01*
X114774Y37094D01*
X114791Y37104D01*
X114858Y37183D01*
X114930Y37258D01*
X114938Y37276D01*
X114951Y37291D01*
X114990Y37387D01*
X115033Y37481D01*
X115035Y37501D01*
X115043Y37519D01*
X115061Y37686D01*
X115061Y51943D01*
X115042Y52057D01*
X115025Y52174D01*
X115023Y52179D01*
X115022Y52185D01*
X114967Y52288D01*
X114914Y52393D01*
X114909Y52397D01*
X114906Y52403D01*
X114822Y52483D01*
X114738Y52565D01*
X114732Y52569D01*
X114728Y52572D01*
X114711Y52580D01*
X114591Y52646D01*
X112048Y53699D01*
X109639Y56108D01*
X108335Y59256D01*
X108335Y62664D01*
X109639Y65812D01*
X112048Y68221D01*
X114591Y69274D01*
X114691Y69336D01*
X114791Y69396D01*
X114795Y69400D01*
X114800Y69404D01*
X114875Y69494D01*
X114951Y69583D01*
X114953Y69588D01*
X114957Y69593D01*
X114999Y69702D01*
X115043Y69811D01*
X115044Y69818D01*
X115045Y69823D01*
X115046Y69841D01*
X115061Y69977D01*
X115061Y73660D01*
X115058Y73680D01*
X115060Y73699D01*
X115038Y73801D01*
X115022Y73903D01*
X115012Y73920D01*
X115008Y73940D01*
X114955Y74029D01*
X114906Y74120D01*
X114892Y74134D01*
X114882Y74151D01*
X114803Y74218D01*
X114728Y74290D01*
X114710Y74298D01*
X114695Y74311D01*
X114599Y74350D01*
X114505Y74393D01*
X114485Y74395D01*
X114467Y74403D01*
X114300Y74421D01*
X99060Y74421D01*
X99032Y74417D01*
X99003Y74419D01*
X98911Y74397D01*
X98817Y74382D01*
X98792Y74368D01*
X98764Y74361D01*
X98618Y74279D01*
X84630Y64288D01*
X84589Y64248D01*
X84543Y64216D01*
X84503Y64162D01*
X84455Y64115D01*
X84430Y64064D01*
X84396Y64018D01*
X84375Y63955D01*
X84345Y63895D01*
X84338Y63839D01*
X84320Y63785D01*
X84321Y63718D01*
X84311Y63651D01*
X84322Y63595D01*
X84322Y63539D01*
X84351Y63440D01*
X84357Y63410D01*
X84363Y63398D01*
X84369Y63377D01*
X84665Y62664D01*
X84665Y59256D01*
X83361Y56108D01*
X80931Y53679D01*
X80889Y53653D01*
X80789Y53593D01*
X80785Y53588D01*
X80780Y53585D01*
X80705Y53495D01*
X80629Y53406D01*
X80627Y53400D01*
X80623Y53395D01*
X80581Y53287D01*
X80537Y53178D01*
X80536Y53170D01*
X80535Y53166D01*
X80534Y53148D01*
X80519Y53011D01*
X80519Y11684D01*
X80522Y11664D01*
X80520Y11645D01*
X80542Y11543D01*
X80559Y11441D01*
X80568Y11424D01*
X80572Y11404D01*
X80625Y11315D01*
X80674Y11224D01*
X80688Y11210D01*
X80698Y11193D01*
X80777Y11126D01*
X80852Y11054D01*
X80870Y11046D01*
X80885Y11033D01*
X80981Y10994D01*
X81075Y10951D01*
X81095Y10949D01*
X81113Y10941D01*
X81280Y10923D01*
X114300Y10923D01*
X114320Y10926D01*
G37*
%LPC*%
G36*
X137408Y13875D02*
X137408Y13875D01*
X133172Y15630D01*
X129930Y18872D01*
X128175Y23108D01*
X128175Y27692D01*
X129930Y31928D01*
X133172Y35170D01*
X137408Y36925D01*
X141992Y36925D01*
X146228Y35170D01*
X149470Y31928D01*
X151225Y27692D01*
X151225Y23108D01*
X149470Y18872D01*
X146228Y15630D01*
X141992Y13875D01*
X137408Y13875D01*
G37*
%LPD*%
%LPC*%
G36*
X35808Y13875D02*
X35808Y13875D01*
X31572Y15630D01*
X28330Y18872D01*
X26575Y23108D01*
X26575Y27692D01*
X28330Y31928D01*
X31572Y35170D01*
X35808Y36925D01*
X40392Y36925D01*
X44628Y35170D01*
X47870Y31928D01*
X49625Y27692D01*
X49625Y23108D01*
X47870Y18872D01*
X44628Y15630D01*
X40392Y13875D01*
X35808Y13875D01*
G37*
%LPD*%
D10*
X106700Y86360D03*
X96500Y60960D03*
X116900Y60960D03*
X127100Y86360D03*
X86300Y86360D03*
X76100Y60960D03*
D11*
X63500Y25400D03*
X114300Y25400D03*
X165100Y25400D03*
X38100Y25400D03*
X88900Y25400D03*
X139700Y25400D03*
M02*
