G04 EAGLE Gerber X2 export*
%TF.Part,Single*%
%TF.FileFunction,Copper,L1,Top,Mixed*%
%TF.FilePolarity,Positive*%
%TF.GenerationSoftware,Autodesk,EAGLE,8.6.0*%
%TF.CreationDate,2018-01-28T06:29:07Z*%
G75*
%MOMM*%
%FSLAX34Y34*%
%LPD*%
%AMOC8*
5,1,8,0,0,1.08239X$1,22.5*%
G01*
%ADD10C,1.408000*%
%ADD11C,2.000000*%

G36*
X191536Y10926D02*
X191536Y10926D01*
X191555Y10924D01*
X191657Y10946D01*
X191759Y10962D01*
X191776Y10972D01*
X191796Y10976D01*
X191885Y11029D01*
X191976Y11078D01*
X191990Y11092D01*
X192007Y11102D01*
X192074Y11181D01*
X192146Y11256D01*
X192154Y11274D01*
X192167Y11289D01*
X192206Y11385D01*
X192249Y11479D01*
X192251Y11499D01*
X192259Y11517D01*
X192277Y11684D01*
X192277Y41518D01*
X192258Y41635D01*
X192240Y41752D01*
X192238Y41756D01*
X192238Y41760D01*
X192182Y41866D01*
X192127Y41971D01*
X192124Y41974D01*
X192122Y41978D01*
X192036Y42060D01*
X191951Y42142D01*
X191947Y42144D01*
X191944Y42147D01*
X191836Y42197D01*
X191729Y42248D01*
X191725Y42249D01*
X191721Y42251D01*
X191604Y42264D01*
X191485Y42278D01*
X191480Y42277D01*
X191477Y42278D01*
X191463Y42275D01*
X191319Y42253D01*
X186192Y40879D01*
X179568Y40879D01*
X173168Y42594D01*
X167431Y45906D01*
X162746Y50591D01*
X159434Y56328D01*
X157719Y62727D01*
X157719Y69352D01*
X159434Y75752D01*
X162746Y81489D01*
X167431Y86174D01*
X170590Y87998D01*
X170647Y88044D01*
X170710Y88083D01*
X170742Y88122D01*
X170780Y88153D01*
X170820Y88216D01*
X170867Y88273D01*
X170885Y88319D01*
X170911Y88362D01*
X170928Y88433D01*
X170955Y88502D01*
X170957Y88552D01*
X170969Y88601D01*
X170962Y88674D01*
X170965Y88748D01*
X170951Y88796D01*
X170947Y88846D01*
X170917Y88913D01*
X170897Y88984D01*
X170868Y89025D01*
X170848Y89071D01*
X170798Y89126D01*
X170756Y89186D01*
X170716Y89216D01*
X170683Y89253D01*
X170618Y89289D01*
X170559Y89333D01*
X170512Y89348D01*
X170468Y89373D01*
X170395Y89386D01*
X170325Y89409D01*
X170275Y89409D01*
X170226Y89418D01*
X170153Y89408D01*
X170079Y89407D01*
X170014Y89388D01*
X169982Y89383D01*
X169951Y89370D01*
X169918Y89360D01*
X165909Y87699D01*
X157291Y87699D01*
X149330Y90997D01*
X143237Y97090D01*
X139939Y105051D01*
X139939Y113669D01*
X143237Y121630D01*
X149085Y127478D01*
X149127Y127536D01*
X149176Y127588D01*
X149198Y127635D01*
X149228Y127677D01*
X149249Y127746D01*
X149280Y127811D01*
X149285Y127863D01*
X149301Y127913D01*
X149299Y127984D01*
X149307Y128055D01*
X149296Y128106D01*
X149294Y128158D01*
X149270Y128226D01*
X149255Y128296D01*
X149228Y128341D01*
X149210Y128389D01*
X149165Y128445D01*
X149128Y128507D01*
X149089Y128541D01*
X149056Y128581D01*
X148996Y128620D01*
X148941Y128667D01*
X148893Y128686D01*
X148849Y128714D01*
X148780Y128732D01*
X148713Y128759D01*
X148642Y128767D01*
X148611Y128775D01*
X148587Y128773D01*
X148547Y128777D01*
X121920Y128777D01*
X121900Y128774D01*
X121881Y128776D01*
X121779Y128754D01*
X121677Y128738D01*
X121660Y128728D01*
X121640Y128724D01*
X121551Y128671D01*
X121460Y128622D01*
X121446Y128608D01*
X121429Y128598D01*
X121362Y128519D01*
X121291Y128444D01*
X121282Y128426D01*
X121269Y128411D01*
X121230Y128315D01*
X121187Y128221D01*
X121185Y128201D01*
X121177Y128183D01*
X121159Y128016D01*
X121159Y94309D01*
X121166Y94264D01*
X121164Y94218D01*
X121186Y94143D01*
X121199Y94066D01*
X121220Y94025D01*
X121233Y93981D01*
X121277Y93917D01*
X121314Y93849D01*
X121347Y93817D01*
X121373Y93779D01*
X121436Y93733D01*
X121492Y93679D01*
X121534Y93660D01*
X121570Y93633D01*
X121644Y93608D01*
X121715Y93576D01*
X121761Y93571D01*
X121804Y93556D01*
X121882Y93557D01*
X121959Y93549D01*
X122004Y93558D01*
X122050Y93559D01*
X122182Y93597D01*
X122200Y93601D01*
X122204Y93603D01*
X122211Y93605D01*
X125396Y94925D01*
X128804Y94925D01*
X131952Y93621D01*
X134361Y91212D01*
X135665Y88064D01*
X135665Y84656D01*
X134361Y81508D01*
X131952Y79099D01*
X128804Y77795D01*
X125396Y77795D01*
X122248Y79099D01*
X121360Y79988D01*
X121271Y80052D01*
X121231Y80086D01*
X121220Y80090D01*
X121179Y80122D01*
X121169Y80125D01*
X121160Y80131D01*
X121053Y80164D01*
X120946Y80200D01*
X120935Y80200D01*
X120925Y80204D01*
X120813Y80201D01*
X120700Y80201D01*
X120690Y80198D01*
X120679Y80197D01*
X120573Y80158D01*
X120467Y80123D01*
X120458Y80116D01*
X120448Y80113D01*
X120372Y80052D01*
X120353Y80042D01*
X120337Y80025D01*
X120270Y79975D01*
X120263Y79964D01*
X120256Y79959D01*
X120242Y79938D01*
X120195Y79875D01*
X120184Y79863D01*
X120180Y79856D01*
X120169Y79841D01*
X113647Y68972D01*
X113603Y68859D01*
X113557Y68747D01*
X113557Y68745D01*
X113556Y68743D01*
X113556Y68736D01*
X113539Y68580D01*
X113539Y53340D01*
X113549Y53275D01*
X113550Y53209D01*
X113569Y53154D01*
X113579Y53097D01*
X113609Y53039D01*
X113631Y52976D01*
X113678Y52909D01*
X113694Y52880D01*
X113708Y52866D01*
X113727Y52839D01*
X131319Y32734D01*
X131319Y11684D01*
X131322Y11664D01*
X131320Y11645D01*
X131342Y11543D01*
X131359Y11441D01*
X131368Y11424D01*
X131372Y11404D01*
X131425Y11315D01*
X131474Y11224D01*
X131488Y11210D01*
X131498Y11193D01*
X131577Y11126D01*
X131652Y11054D01*
X131670Y11046D01*
X131685Y11033D01*
X131781Y10994D01*
X131875Y10951D01*
X131895Y10949D01*
X131913Y10941D01*
X132080Y10923D01*
X191516Y10923D01*
X191536Y10926D01*
G37*
G36*
X63520Y10926D02*
X63520Y10926D01*
X63539Y10924D01*
X63641Y10946D01*
X63743Y10962D01*
X63760Y10972D01*
X63780Y10976D01*
X63869Y11029D01*
X63960Y11078D01*
X63974Y11092D01*
X63991Y11102D01*
X64058Y11181D01*
X64130Y11256D01*
X64138Y11274D01*
X64151Y11289D01*
X64190Y11385D01*
X64233Y11479D01*
X64235Y11499D01*
X64243Y11517D01*
X64261Y11684D01*
X64261Y13114D01*
X64258Y13134D01*
X64260Y13153D01*
X64238Y13255D01*
X64222Y13357D01*
X64212Y13374D01*
X64208Y13394D01*
X64155Y13483D01*
X64106Y13574D01*
X64092Y13588D01*
X64082Y13605D01*
X64003Y13672D01*
X63928Y13744D01*
X63910Y13752D01*
X63895Y13765D01*
X63799Y13804D01*
X63705Y13847D01*
X63685Y13849D01*
X63667Y13857D01*
X63500Y13875D01*
X61208Y13875D01*
X56972Y15630D01*
X53730Y18872D01*
X51975Y23108D01*
X51975Y27692D01*
X53730Y31928D01*
X56972Y35170D01*
X61208Y36925D01*
X63500Y36925D01*
X63520Y36928D01*
X63539Y36926D01*
X63641Y36948D01*
X63743Y36964D01*
X63760Y36974D01*
X63780Y36978D01*
X63869Y37031D01*
X63960Y37080D01*
X63974Y37094D01*
X63991Y37104D01*
X64058Y37183D01*
X64130Y37258D01*
X64138Y37276D01*
X64151Y37291D01*
X64190Y37387D01*
X64233Y37481D01*
X64235Y37501D01*
X64243Y37519D01*
X64261Y37686D01*
X64261Y45171D01*
X78981Y50078D01*
X78999Y50088D01*
X79020Y50092D01*
X79108Y50145D01*
X79198Y50192D01*
X79213Y50207D01*
X79231Y50218D01*
X79298Y50296D01*
X79368Y50370D01*
X79377Y50389D01*
X79391Y50405D01*
X79429Y50500D01*
X79473Y50593D01*
X79475Y50614D01*
X79483Y50633D01*
X79501Y50800D01*
X79501Y80731D01*
X79487Y80821D01*
X79479Y80912D01*
X79467Y80942D01*
X79462Y80974D01*
X79419Y81054D01*
X79383Y81138D01*
X79357Y81171D01*
X79346Y81191D01*
X79323Y81213D01*
X79278Y81269D01*
X79039Y81508D01*
X77735Y84656D01*
X77735Y88064D01*
X79039Y91212D01*
X79278Y91451D01*
X79331Y91525D01*
X79391Y91594D01*
X79403Y91624D01*
X79422Y91650D01*
X79449Y91737D01*
X79483Y91822D01*
X79487Y91863D01*
X79494Y91885D01*
X79493Y91918D01*
X79501Y91989D01*
X79501Y128016D01*
X79498Y128036D01*
X79500Y128055D01*
X79478Y128157D01*
X79461Y128259D01*
X79452Y128276D01*
X79448Y128296D01*
X79395Y128385D01*
X79346Y128476D01*
X79332Y128490D01*
X79322Y128507D01*
X79243Y128574D01*
X79168Y128646D01*
X79150Y128654D01*
X79135Y128667D01*
X79039Y128706D01*
X78945Y128749D01*
X78925Y128751D01*
X78907Y128759D01*
X78740Y128777D01*
X54653Y128777D01*
X54583Y128766D01*
X54511Y128764D01*
X54462Y128746D01*
X54411Y128738D01*
X54347Y128704D01*
X54280Y128679D01*
X54239Y128647D01*
X54193Y128622D01*
X54144Y128570D01*
X54088Y128526D01*
X54060Y128482D01*
X54024Y128444D01*
X53994Y128379D01*
X53955Y128319D01*
X53942Y128268D01*
X53920Y128221D01*
X53912Y128150D01*
X53895Y128080D01*
X53899Y128028D01*
X53893Y127977D01*
X53908Y127906D01*
X53914Y127835D01*
X53934Y127787D01*
X53945Y127736D01*
X53982Y127675D01*
X54010Y127609D01*
X54055Y127553D01*
X54072Y127525D01*
X54089Y127510D01*
X54115Y127478D01*
X59963Y121630D01*
X63261Y113669D01*
X63261Y105051D01*
X59963Y97090D01*
X53870Y90997D01*
X45909Y87699D01*
X37291Y87699D01*
X33282Y89360D01*
X33210Y89377D01*
X33141Y89403D01*
X33091Y89405D01*
X33042Y89416D01*
X32969Y89409D01*
X32895Y89412D01*
X32847Y89398D01*
X32798Y89393D01*
X32730Y89363D01*
X32659Y89342D01*
X32618Y89313D01*
X32573Y89293D01*
X32518Y89243D01*
X32458Y89201D01*
X32429Y89161D01*
X32392Y89127D01*
X32356Y89062D01*
X32312Y89003D01*
X32297Y88955D01*
X32273Y88911D01*
X32260Y88839D01*
X32238Y88768D01*
X32238Y88718D01*
X32229Y88669D01*
X32240Y88596D01*
X32241Y88522D01*
X32258Y88475D01*
X32265Y88426D01*
X32299Y88360D01*
X32323Y88291D01*
X32354Y88251D01*
X32377Y88207D01*
X32429Y88155D01*
X32475Y88097D01*
X32530Y88057D01*
X32552Y88034D01*
X32582Y88018D01*
X32610Y87998D01*
X35769Y86174D01*
X40454Y81489D01*
X43766Y75752D01*
X45481Y69352D01*
X45481Y62727D01*
X43766Y56328D01*
X40454Y50591D01*
X35769Y45906D01*
X30032Y42594D01*
X23632Y40879D01*
X17008Y40879D01*
X11881Y42253D01*
X11762Y42265D01*
X11645Y42278D01*
X11640Y42277D01*
X11636Y42277D01*
X11521Y42251D01*
X11404Y42226D01*
X11401Y42223D01*
X11396Y42222D01*
X11295Y42160D01*
X11193Y42099D01*
X11190Y42096D01*
X11187Y42094D01*
X11110Y42003D01*
X11033Y41912D01*
X11032Y41909D01*
X11029Y41905D01*
X10986Y41795D01*
X10941Y41684D01*
X10941Y41679D01*
X10939Y41676D01*
X10939Y41663D01*
X10923Y41518D01*
X10923Y11684D01*
X10926Y11664D01*
X10924Y11645D01*
X10946Y11543D01*
X10962Y11441D01*
X10972Y11424D01*
X10976Y11404D01*
X11029Y11315D01*
X11078Y11224D01*
X11092Y11210D01*
X11102Y11193D01*
X11181Y11126D01*
X11256Y11054D01*
X11274Y11046D01*
X11289Y11033D01*
X11385Y10994D01*
X11479Y10951D01*
X11499Y10949D01*
X11517Y10941D01*
X11684Y10923D01*
X63500Y10923D01*
X63520Y10926D01*
G37*
G36*
X121940Y10926D02*
X121940Y10926D01*
X121959Y10924D01*
X122061Y10946D01*
X122163Y10962D01*
X122180Y10972D01*
X122200Y10976D01*
X122289Y11029D01*
X122380Y11078D01*
X122394Y11092D01*
X122411Y11102D01*
X122478Y11181D01*
X122550Y11256D01*
X122558Y11274D01*
X122571Y11289D01*
X122610Y11385D01*
X122653Y11479D01*
X122655Y11499D01*
X122663Y11517D01*
X122681Y11684D01*
X122681Y33020D01*
X122679Y33031D01*
X122680Y33038D01*
X122677Y33053D01*
X122679Y33077D01*
X122657Y33169D01*
X122642Y33263D01*
X122628Y33288D01*
X122621Y33316D01*
X122539Y33462D01*
X109981Y51044D01*
X109981Y55451D01*
X109967Y55541D01*
X109959Y55632D01*
X109947Y55662D01*
X109942Y55694D01*
X109899Y55774D01*
X109863Y55858D01*
X109837Y55891D01*
X109826Y55911D01*
X109803Y55933D01*
X109758Y55989D01*
X109639Y56108D01*
X108335Y59256D01*
X108335Y62664D01*
X109639Y65812D01*
X109758Y65931D01*
X109811Y66005D01*
X109871Y66074D01*
X109883Y66104D01*
X109902Y66130D01*
X109929Y66218D01*
X109963Y66302D01*
X109967Y66343D01*
X109974Y66365D01*
X109973Y66398D01*
X109981Y66469D01*
X109981Y70909D01*
X117493Y83428D01*
X117537Y83541D01*
X117583Y83653D01*
X117583Y83656D01*
X117584Y83657D01*
X117584Y83664D01*
X117601Y83820D01*
X117601Y128016D01*
X117598Y128036D01*
X117600Y128055D01*
X117578Y128157D01*
X117562Y128259D01*
X117552Y128276D01*
X117548Y128296D01*
X117495Y128385D01*
X117446Y128476D01*
X117432Y128490D01*
X117422Y128507D01*
X117343Y128574D01*
X117268Y128646D01*
X117250Y128654D01*
X117235Y128667D01*
X117139Y128706D01*
X117045Y128749D01*
X117025Y128751D01*
X117007Y128759D01*
X116840Y128777D01*
X86360Y128777D01*
X86340Y128774D01*
X86321Y128776D01*
X86219Y128754D01*
X86117Y128738D01*
X86100Y128728D01*
X86080Y128724D01*
X85991Y128671D01*
X85900Y128622D01*
X85886Y128608D01*
X85869Y128598D01*
X85802Y128519D01*
X85731Y128444D01*
X85722Y128426D01*
X85709Y128411D01*
X85670Y128315D01*
X85627Y128221D01*
X85625Y128201D01*
X85617Y128183D01*
X85599Y128016D01*
X85599Y95686D01*
X85602Y95666D01*
X85600Y95647D01*
X85622Y95545D01*
X85639Y95443D01*
X85648Y95426D01*
X85652Y95406D01*
X85705Y95317D01*
X85754Y95226D01*
X85768Y95212D01*
X85778Y95195D01*
X85857Y95128D01*
X85932Y95056D01*
X85950Y95048D01*
X85965Y95035D01*
X86061Y94996D01*
X86155Y94953D01*
X86175Y94951D01*
X86193Y94943D01*
X86360Y94925D01*
X88004Y94925D01*
X91152Y93621D01*
X93561Y91212D01*
X94865Y88064D01*
X94865Y84656D01*
X93561Y81508D01*
X91152Y79099D01*
X88004Y77795D01*
X86360Y77795D01*
X86340Y77792D01*
X86321Y77794D01*
X86219Y77772D01*
X86117Y77756D01*
X86100Y77746D01*
X86080Y77742D01*
X85991Y77689D01*
X85900Y77640D01*
X85886Y77626D01*
X85869Y77616D01*
X85802Y77537D01*
X85731Y77462D01*
X85722Y77444D01*
X85709Y77429D01*
X85670Y77333D01*
X85627Y77239D01*
X85625Y77219D01*
X85617Y77201D01*
X85599Y77034D01*
X85599Y46035D01*
X78202Y38638D01*
X78149Y38564D01*
X78089Y38495D01*
X78077Y38465D01*
X78058Y38439D01*
X78031Y38352D01*
X77997Y38267D01*
X77993Y38226D01*
X77986Y38203D01*
X77987Y38171D01*
X77979Y38100D01*
X77979Y32615D01*
X77990Y32544D01*
X77992Y32473D01*
X78010Y32424D01*
X78019Y32372D01*
X78052Y32309D01*
X78077Y32242D01*
X78109Y32201D01*
X78134Y32155D01*
X78186Y32106D01*
X78230Y32050D01*
X78274Y32021D01*
X78312Y31985D01*
X78377Y31955D01*
X78437Y31917D01*
X78488Y31904D01*
X78535Y31882D01*
X78606Y31874D01*
X78676Y31856D01*
X78728Y31861D01*
X78779Y31855D01*
X78850Y31870D01*
X78921Y31876D01*
X78969Y31896D01*
X79020Y31907D01*
X79081Y31944D01*
X79147Y31972D01*
X79203Y32017D01*
X79231Y32033D01*
X79246Y32051D01*
X79278Y32077D01*
X82372Y35170D01*
X86608Y36925D01*
X91192Y36925D01*
X95428Y35170D01*
X98670Y31928D01*
X100425Y27692D01*
X100425Y23108D01*
X98670Y18872D01*
X95428Y15630D01*
X91192Y13875D01*
X86608Y13875D01*
X82372Y15630D01*
X79278Y18723D01*
X79220Y18765D01*
X79168Y18815D01*
X79121Y18836D01*
X79079Y18867D01*
X79010Y18888D01*
X78945Y18918D01*
X78893Y18924D01*
X78843Y18939D01*
X78772Y18937D01*
X78701Y18945D01*
X78650Y18934D01*
X78598Y18933D01*
X78530Y18908D01*
X78460Y18893D01*
X78416Y18866D01*
X78367Y18848D01*
X78311Y18804D01*
X78249Y18767D01*
X78215Y18727D01*
X78175Y18695D01*
X78136Y18634D01*
X78089Y18580D01*
X78070Y18532D01*
X78042Y18488D01*
X78024Y18418D01*
X77997Y18352D01*
X77989Y18280D01*
X77981Y18249D01*
X77983Y18226D01*
X77979Y18185D01*
X77979Y11684D01*
X77982Y11664D01*
X77980Y11645D01*
X78002Y11543D01*
X78019Y11441D01*
X78028Y11424D01*
X78032Y11404D01*
X78085Y11315D01*
X78134Y11224D01*
X78148Y11210D01*
X78158Y11193D01*
X78237Y11126D01*
X78312Y11054D01*
X78330Y11046D01*
X78345Y11033D01*
X78441Y10994D01*
X78535Y10951D01*
X78555Y10949D01*
X78573Y10941D01*
X78740Y10923D01*
X121920Y10923D01*
X121940Y10926D01*
G37*
%LPC*%
G36*
X162808Y13875D02*
X162808Y13875D01*
X158572Y15630D01*
X155330Y18872D01*
X153575Y23108D01*
X153575Y27692D01*
X155330Y31928D01*
X158572Y35170D01*
X162808Y36925D01*
X167392Y36925D01*
X171628Y35170D01*
X174870Y31928D01*
X176625Y27692D01*
X176625Y23108D01*
X174870Y18872D01*
X171628Y15630D01*
X167392Y13875D01*
X162808Y13875D01*
G37*
%LPD*%
%LPC*%
G36*
X94796Y52395D02*
X94796Y52395D01*
X91648Y53699D01*
X89239Y56108D01*
X87935Y59256D01*
X87935Y62664D01*
X89239Y65812D01*
X91648Y68221D01*
X94796Y69525D01*
X98204Y69525D01*
X101352Y68221D01*
X103761Y65812D01*
X105065Y62664D01*
X105065Y59256D01*
X103761Y56108D01*
X101352Y53699D01*
X98204Y52395D01*
X94796Y52395D01*
G37*
%LPD*%
D10*
X106700Y86360D03*
X96500Y60960D03*
X116900Y60960D03*
X127100Y86360D03*
X86300Y86360D03*
X76100Y60960D03*
D11*
X63500Y25400D03*
X114300Y25400D03*
X165100Y25400D03*
X38100Y25400D03*
X88900Y25400D03*
X139700Y25400D03*
M02*
