G04 EAGLE Gerber X2 export*
%TF.Part,Single*%
%TF.FileFunction,Legend,Bot,1*%
%TF.FilePolarity,Positive*%
%TF.GenerationSoftware,Autodesk,EAGLE,8.6.0*%
%TF.CreationDate,2018-01-28T06:29:07Z*%
G75*
%MOMM*%
%FSLAX34Y34*%
%LPD*%
%AMOC8*
5,1,8,0,0,1.08239X$1,22.5*%
G01*
%ADD10C,0.152400*%
%ADD11C,0.076200*%


D10*
X68580Y55880D02*
X43180Y35560D01*
X43180Y43180D01*
X43180Y35560D02*
X50800Y35560D01*
X86360Y50800D02*
X86360Y78740D01*
X86360Y50800D02*
X71120Y35560D01*
X71120Y43180D01*
X71120Y35560D02*
X78740Y35560D01*
D11*
X131699Y114681D02*
X131699Y124079D01*
X127522Y124079D01*
X127522Y119902D02*
X131699Y119902D01*
X124619Y114681D02*
X121486Y124079D01*
X118353Y114681D01*
X119137Y117031D02*
X123836Y117031D01*
X114171Y114681D02*
X114171Y124079D01*
X115215Y114681D02*
X113127Y114681D01*
X113127Y124079D02*
X115215Y124079D01*
X109144Y124079D02*
X109144Y114681D01*
X104967Y114681D01*
X101219Y114681D02*
X97042Y114681D01*
X101219Y114681D02*
X101219Y124079D01*
X97042Y124079D01*
X98087Y119902D02*
X101219Y119902D01*
X93312Y124079D02*
X93312Y114681D01*
X93312Y124079D02*
X90701Y124079D01*
X90601Y124077D01*
X90501Y124071D01*
X90402Y124062D01*
X90302Y124048D01*
X90204Y124031D01*
X90106Y124010D01*
X90009Y123986D01*
X89913Y123957D01*
X89818Y123925D01*
X89725Y123890D01*
X89633Y123851D01*
X89542Y123808D01*
X89454Y123762D01*
X89367Y123712D01*
X89282Y123660D01*
X89199Y123604D01*
X89118Y123545D01*
X89040Y123482D01*
X88964Y123417D01*
X88890Y123349D01*
X88820Y123279D01*
X88752Y123205D01*
X88687Y123129D01*
X88624Y123051D01*
X88565Y122970D01*
X88509Y122887D01*
X88457Y122802D01*
X88407Y122715D01*
X88361Y122627D01*
X88318Y122536D01*
X88279Y122444D01*
X88244Y122351D01*
X88212Y122256D01*
X88183Y122160D01*
X88159Y122063D01*
X88138Y121965D01*
X88121Y121867D01*
X88107Y121767D01*
X88098Y121668D01*
X88092Y121568D01*
X88090Y121468D01*
X88091Y121468D02*
X88091Y117292D01*
X88090Y117292D02*
X88092Y117192D01*
X88098Y117092D01*
X88107Y116993D01*
X88121Y116893D01*
X88138Y116795D01*
X88159Y116697D01*
X88183Y116600D01*
X88212Y116504D01*
X88244Y116409D01*
X88279Y116316D01*
X88318Y116224D01*
X88361Y116133D01*
X88407Y116045D01*
X88457Y115958D01*
X88509Y115873D01*
X88565Y115790D01*
X88624Y115709D01*
X88687Y115631D01*
X88752Y115555D01*
X88820Y115481D01*
X88890Y115411D01*
X88964Y115343D01*
X89040Y115278D01*
X89118Y115215D01*
X89199Y115156D01*
X89282Y115100D01*
X89367Y115048D01*
X89454Y114998D01*
X89542Y114952D01*
X89633Y114909D01*
X89725Y114870D01*
X89818Y114835D01*
X89913Y114803D01*
X90009Y114774D01*
X90106Y114750D01*
X90204Y114729D01*
X90302Y114712D01*
X90402Y114698D01*
X90501Y114689D01*
X90601Y114683D01*
X90701Y114681D01*
X93312Y114681D01*
X79379Y114681D02*
X75202Y120946D01*
X79379Y120946D02*
X75202Y114681D01*
X71671Y121991D02*
X69061Y124079D01*
X69061Y114681D01*
X71671Y114681D02*
X66450Y114681D01*
D10*
X96520Y53340D02*
X91440Y38100D01*
X88900Y43180D01*
X91440Y38100D02*
X96520Y40640D01*
X106680Y43180D02*
X106680Y78740D01*
X106680Y43180D02*
X111760Y38100D01*
X111760Y43180D01*
X111760Y38100D02*
X106680Y38100D01*
X119380Y48260D02*
X119380Y53340D01*
X119380Y48260D02*
X132080Y35560D01*
X127000Y35560D01*
X132080Y35560D02*
X132080Y40640D01*
X157480Y35560D02*
X127000Y78740D01*
X157480Y40640D02*
X157480Y35560D01*
X152400Y35560D01*
M02*
