G04 EAGLE Gerber X2 export*
%TF.Part,Single*%
%TF.FileFunction,Legend,Top,1*%
%TF.FilePolarity,Positive*%
%TF.GenerationSoftware,Autodesk,EAGLE,8.6.0*%
%TF.CreationDate,2018-01-28T06:29:07Z*%
G75*
%MOMM*%
%FSLAX34Y34*%
%LPD*%
%AMOC8*
5,1,8,0,0,1.08239X$1,22.5*%
G01*
%ADD10C,0.076200*%
%ADD11C,0.152400*%
%ADD12C,0.101600*%
%ADD13C,0.025400*%


D10*
X68961Y114681D02*
X68961Y124079D01*
X73138Y124079D01*
X73138Y119902D02*
X68961Y119902D01*
X76041Y114681D02*
X79174Y124079D01*
X82307Y114681D01*
X81524Y117031D02*
X76825Y117031D01*
X86489Y114681D02*
X86489Y124079D01*
X85445Y114681D02*
X87533Y114681D01*
X87533Y124079D02*
X85445Y124079D01*
X91516Y124079D02*
X91516Y114681D01*
X95693Y114681D01*
X99441Y114681D02*
X103618Y114681D01*
X99441Y114681D02*
X99441Y124079D01*
X103618Y124079D01*
X102573Y119902D02*
X99441Y119902D01*
X107348Y124079D02*
X107348Y114681D01*
X107348Y124079D02*
X109959Y124079D01*
X110059Y124077D01*
X110159Y124071D01*
X110258Y124062D01*
X110358Y124048D01*
X110456Y124031D01*
X110554Y124010D01*
X110651Y123986D01*
X110747Y123957D01*
X110842Y123925D01*
X110935Y123890D01*
X111027Y123851D01*
X111118Y123808D01*
X111206Y123762D01*
X111293Y123712D01*
X111378Y123660D01*
X111461Y123604D01*
X111542Y123545D01*
X111620Y123482D01*
X111696Y123417D01*
X111770Y123349D01*
X111840Y123279D01*
X111908Y123205D01*
X111973Y123129D01*
X112036Y123051D01*
X112095Y122970D01*
X112151Y122887D01*
X112203Y122802D01*
X112253Y122715D01*
X112299Y122627D01*
X112342Y122536D01*
X112381Y122444D01*
X112416Y122351D01*
X112448Y122256D01*
X112477Y122160D01*
X112501Y122063D01*
X112522Y121965D01*
X112539Y121867D01*
X112553Y121767D01*
X112562Y121668D01*
X112568Y121568D01*
X112570Y121468D01*
X112569Y121468D02*
X112569Y117292D01*
X112570Y117292D02*
X112568Y117192D01*
X112562Y117092D01*
X112553Y116993D01*
X112539Y116893D01*
X112522Y116795D01*
X112501Y116697D01*
X112477Y116600D01*
X112448Y116504D01*
X112416Y116409D01*
X112381Y116316D01*
X112342Y116224D01*
X112299Y116133D01*
X112253Y116045D01*
X112203Y115958D01*
X112151Y115873D01*
X112095Y115790D01*
X112036Y115709D01*
X111973Y115631D01*
X111908Y115555D01*
X111840Y115481D01*
X111770Y115411D01*
X111696Y115343D01*
X111620Y115278D01*
X111542Y115215D01*
X111461Y115156D01*
X111378Y115100D01*
X111293Y115048D01*
X111206Y114998D01*
X111118Y114952D01*
X111027Y114909D01*
X110935Y114870D01*
X110842Y114835D01*
X110747Y114803D01*
X110651Y114774D01*
X110554Y114750D01*
X110456Y114729D01*
X110358Y114712D01*
X110258Y114698D01*
X110159Y114689D01*
X110059Y114683D01*
X109959Y114681D01*
X107348Y114681D01*
X121281Y114681D02*
X125458Y120946D01*
X121281Y120946D02*
X125458Y114681D01*
X128989Y121991D02*
X131599Y124079D01*
X131599Y114681D01*
X128989Y114681D02*
X134210Y114681D01*
D11*
X68580Y55880D02*
X43180Y35560D01*
X43180Y43180D01*
X43180Y35560D02*
X50800Y35560D01*
X86360Y50800D02*
X86360Y78740D01*
X86360Y50800D02*
X71120Y35560D01*
X71120Y43180D01*
X71120Y35560D02*
X78740Y35560D01*
X91440Y38100D02*
X96520Y53340D01*
X88900Y43180D02*
X91440Y38100D01*
X96520Y40640D01*
X106680Y43180D02*
X106680Y78740D01*
X106680Y43180D02*
X111760Y38100D01*
X106680Y38100D01*
X111760Y38100D02*
X111760Y43180D01*
X119380Y48260D02*
X119380Y53340D01*
X119380Y48260D02*
X132080Y35560D01*
X132080Y40640D01*
X132080Y35560D02*
X127000Y35560D01*
X157480Y35560D02*
X127000Y78740D01*
X157480Y40640D02*
X157480Y35560D01*
X152400Y35560D01*
D12*
X81901Y201168D02*
X79304Y201168D01*
X79205Y201170D01*
X79105Y201176D01*
X79006Y201185D01*
X78908Y201198D01*
X78810Y201215D01*
X78712Y201236D01*
X78616Y201261D01*
X78521Y201289D01*
X78427Y201321D01*
X78334Y201356D01*
X78242Y201395D01*
X78152Y201438D01*
X78064Y201483D01*
X77977Y201533D01*
X77893Y201585D01*
X77810Y201641D01*
X77730Y201699D01*
X77652Y201761D01*
X77577Y201826D01*
X77504Y201894D01*
X77434Y201964D01*
X77366Y202037D01*
X77301Y202112D01*
X77239Y202190D01*
X77181Y202270D01*
X77125Y202353D01*
X77073Y202437D01*
X77023Y202524D01*
X76978Y202612D01*
X76935Y202702D01*
X76896Y202794D01*
X76861Y202887D01*
X76829Y202981D01*
X76801Y203076D01*
X76776Y203172D01*
X76755Y203270D01*
X76738Y203368D01*
X76725Y203466D01*
X76716Y203565D01*
X76710Y203665D01*
X76708Y203764D01*
X76708Y210256D01*
X76710Y210355D01*
X76716Y210455D01*
X76725Y210554D01*
X76738Y210652D01*
X76755Y210750D01*
X76776Y210848D01*
X76801Y210944D01*
X76829Y211039D01*
X76861Y211133D01*
X76896Y211226D01*
X76935Y211318D01*
X76978Y211408D01*
X77023Y211496D01*
X77073Y211583D01*
X77125Y211667D01*
X77181Y211750D01*
X77239Y211830D01*
X77301Y211908D01*
X77366Y211983D01*
X77434Y212056D01*
X77504Y212126D01*
X77577Y212194D01*
X77652Y212259D01*
X77730Y212321D01*
X77810Y212379D01*
X77893Y212435D01*
X77977Y212487D01*
X78064Y212537D01*
X78152Y212582D01*
X78242Y212625D01*
X78334Y212664D01*
X78426Y212699D01*
X78521Y212731D01*
X78616Y212759D01*
X78712Y212784D01*
X78810Y212805D01*
X78908Y212822D01*
X79006Y212835D01*
X79105Y212844D01*
X79205Y212850D01*
X79304Y212852D01*
X81901Y212852D01*
X86266Y210256D02*
X89512Y212852D01*
X89512Y201168D01*
X92757Y201168D02*
X86266Y201168D01*
D13*
X76327Y29337D02*
X76327Y25527D01*
X76327Y29337D02*
X77385Y29337D01*
X77449Y29335D01*
X77513Y29329D01*
X77576Y29320D01*
X77638Y29306D01*
X77700Y29289D01*
X77760Y29268D01*
X77819Y29244D01*
X77877Y29216D01*
X77932Y29184D01*
X77986Y29150D01*
X78037Y29112D01*
X78087Y29071D01*
X78133Y29027D01*
X78177Y28981D01*
X78218Y28931D01*
X78256Y28880D01*
X78290Y28826D01*
X78322Y28771D01*
X78350Y28713D01*
X78374Y28654D01*
X78395Y28594D01*
X78412Y28532D01*
X78426Y28470D01*
X78435Y28407D01*
X78441Y28343D01*
X78443Y28279D01*
X78441Y28215D01*
X78435Y28151D01*
X78426Y28088D01*
X78412Y28026D01*
X78395Y27964D01*
X78374Y27904D01*
X78350Y27845D01*
X78322Y27787D01*
X78290Y27732D01*
X78256Y27678D01*
X78218Y27627D01*
X78177Y27577D01*
X78133Y27531D01*
X78087Y27487D01*
X78037Y27446D01*
X77986Y27408D01*
X77932Y27374D01*
X77877Y27342D01*
X77819Y27314D01*
X77760Y27290D01*
X77700Y27269D01*
X77638Y27252D01*
X77576Y27238D01*
X77513Y27229D01*
X77449Y27223D01*
X77385Y27221D01*
X77385Y27220D02*
X76327Y27220D01*
X79603Y25527D02*
X80873Y29337D01*
X82143Y25527D01*
X81825Y26480D02*
X79920Y26480D01*
X83594Y25527D02*
X83594Y29337D01*
X84652Y29337D01*
X84716Y29335D01*
X84780Y29329D01*
X84843Y29320D01*
X84905Y29306D01*
X84967Y29289D01*
X85027Y29268D01*
X85086Y29244D01*
X85144Y29216D01*
X85199Y29184D01*
X85253Y29150D01*
X85304Y29112D01*
X85354Y29071D01*
X85400Y29027D01*
X85444Y28981D01*
X85485Y28931D01*
X85523Y28880D01*
X85557Y28826D01*
X85589Y28771D01*
X85617Y28713D01*
X85641Y28654D01*
X85662Y28594D01*
X85679Y28532D01*
X85693Y28470D01*
X85702Y28407D01*
X85708Y28343D01*
X85710Y28279D01*
X85711Y28279D02*
X85711Y26585D01*
X85710Y26585D02*
X85708Y26521D01*
X85702Y26457D01*
X85693Y26394D01*
X85679Y26332D01*
X85662Y26270D01*
X85641Y26210D01*
X85617Y26151D01*
X85589Y26093D01*
X85557Y26038D01*
X85523Y25984D01*
X85485Y25933D01*
X85444Y25883D01*
X85400Y25837D01*
X85354Y25793D01*
X85304Y25752D01*
X85253Y25714D01*
X85199Y25680D01*
X85144Y25648D01*
X85086Y25620D01*
X85027Y25596D01*
X84967Y25575D01*
X84905Y25558D01*
X84843Y25544D01*
X84780Y25535D01*
X84716Y25529D01*
X84652Y25527D01*
X83594Y25527D01*
X87373Y28490D02*
X88432Y29337D01*
X88432Y25527D01*
X89490Y25527D02*
X87373Y25527D01*
X127127Y25527D02*
X127127Y29337D01*
X128185Y29337D01*
X128249Y29335D01*
X128313Y29329D01*
X128376Y29320D01*
X128438Y29306D01*
X128500Y29289D01*
X128560Y29268D01*
X128619Y29244D01*
X128677Y29216D01*
X128732Y29184D01*
X128786Y29150D01*
X128837Y29112D01*
X128887Y29071D01*
X128933Y29027D01*
X128977Y28981D01*
X129018Y28931D01*
X129056Y28880D01*
X129090Y28826D01*
X129122Y28771D01*
X129150Y28713D01*
X129174Y28654D01*
X129195Y28594D01*
X129212Y28532D01*
X129226Y28470D01*
X129235Y28407D01*
X129241Y28343D01*
X129243Y28279D01*
X129241Y28215D01*
X129235Y28151D01*
X129226Y28088D01*
X129212Y28026D01*
X129195Y27964D01*
X129174Y27904D01*
X129150Y27845D01*
X129122Y27787D01*
X129090Y27732D01*
X129056Y27678D01*
X129018Y27627D01*
X128977Y27577D01*
X128933Y27531D01*
X128887Y27487D01*
X128837Y27446D01*
X128786Y27408D01*
X128732Y27374D01*
X128677Y27342D01*
X128619Y27314D01*
X128560Y27290D01*
X128500Y27269D01*
X128438Y27252D01*
X128376Y27238D01*
X128313Y27229D01*
X128249Y27223D01*
X128185Y27221D01*
X128185Y27220D02*
X127127Y27220D01*
X130403Y25527D02*
X131673Y29337D01*
X132943Y25527D01*
X132625Y26480D02*
X130720Y26480D01*
X134394Y25527D02*
X134394Y29337D01*
X135452Y29337D01*
X135516Y29335D01*
X135580Y29329D01*
X135643Y29320D01*
X135705Y29306D01*
X135767Y29289D01*
X135827Y29268D01*
X135886Y29244D01*
X135944Y29216D01*
X135999Y29184D01*
X136053Y29150D01*
X136104Y29112D01*
X136154Y29071D01*
X136200Y29027D01*
X136244Y28981D01*
X136285Y28931D01*
X136323Y28880D01*
X136357Y28826D01*
X136389Y28771D01*
X136417Y28713D01*
X136441Y28654D01*
X136462Y28594D01*
X136479Y28532D01*
X136493Y28470D01*
X136502Y28407D01*
X136508Y28343D01*
X136510Y28279D01*
X136511Y28279D02*
X136511Y26585D01*
X136510Y26585D02*
X136508Y26521D01*
X136502Y26457D01*
X136493Y26394D01*
X136479Y26332D01*
X136462Y26270D01*
X136441Y26210D01*
X136417Y26151D01*
X136389Y26093D01*
X136357Y26038D01*
X136323Y25984D01*
X136285Y25933D01*
X136244Y25883D01*
X136200Y25837D01*
X136154Y25793D01*
X136104Y25752D01*
X136053Y25714D01*
X135999Y25680D01*
X135944Y25648D01*
X135886Y25620D01*
X135827Y25596D01*
X135767Y25575D01*
X135705Y25558D01*
X135643Y25544D01*
X135580Y25535D01*
X135516Y25529D01*
X135452Y25527D01*
X134394Y25527D01*
X139338Y29338D02*
X139398Y29336D01*
X139457Y29330D01*
X139517Y29321D01*
X139575Y29308D01*
X139632Y29291D01*
X139689Y29271D01*
X139744Y29247D01*
X139797Y29220D01*
X139849Y29190D01*
X139898Y29156D01*
X139945Y29119D01*
X139990Y29080D01*
X140033Y29037D01*
X140072Y28992D01*
X140109Y28945D01*
X140143Y28896D01*
X140173Y28844D01*
X140200Y28791D01*
X140224Y28736D01*
X140244Y28679D01*
X140261Y28622D01*
X140274Y28564D01*
X140283Y28504D01*
X140289Y28445D01*
X140291Y28385D01*
X139338Y29337D02*
X139271Y29335D01*
X139204Y29330D01*
X139138Y29321D01*
X139072Y29308D01*
X139008Y29292D01*
X138944Y29272D01*
X138881Y29248D01*
X138819Y29222D01*
X138760Y29192D01*
X138702Y29159D01*
X138645Y29122D01*
X138591Y29083D01*
X138539Y29041D01*
X138490Y28996D01*
X138443Y28948D01*
X138399Y28898D01*
X138357Y28845D01*
X138319Y28790D01*
X138283Y28734D01*
X138251Y28675D01*
X138222Y28615D01*
X138196Y28553D01*
X138174Y28490D01*
X139973Y27644D02*
X140014Y27686D01*
X140053Y27731D01*
X140090Y27777D01*
X140124Y27826D01*
X140155Y27876D01*
X140182Y27928D01*
X140207Y27982D01*
X140229Y28037D01*
X140248Y28093D01*
X140263Y28150D01*
X140275Y28208D01*
X140283Y28267D01*
X140288Y28326D01*
X140290Y28385D01*
X139973Y27644D02*
X138173Y25527D01*
X140290Y25527D01*
X177927Y25527D02*
X177927Y29337D01*
X178985Y29337D01*
X179049Y29335D01*
X179113Y29329D01*
X179176Y29320D01*
X179238Y29306D01*
X179300Y29289D01*
X179360Y29268D01*
X179419Y29244D01*
X179477Y29216D01*
X179532Y29184D01*
X179586Y29150D01*
X179637Y29112D01*
X179687Y29071D01*
X179733Y29027D01*
X179777Y28981D01*
X179818Y28931D01*
X179856Y28880D01*
X179890Y28826D01*
X179922Y28771D01*
X179950Y28713D01*
X179974Y28654D01*
X179995Y28594D01*
X180012Y28532D01*
X180026Y28470D01*
X180035Y28407D01*
X180041Y28343D01*
X180043Y28279D01*
X180041Y28215D01*
X180035Y28151D01*
X180026Y28088D01*
X180012Y28026D01*
X179995Y27964D01*
X179974Y27904D01*
X179950Y27845D01*
X179922Y27787D01*
X179890Y27732D01*
X179856Y27678D01*
X179818Y27627D01*
X179777Y27577D01*
X179733Y27531D01*
X179687Y27487D01*
X179637Y27446D01*
X179586Y27408D01*
X179532Y27374D01*
X179477Y27342D01*
X179419Y27314D01*
X179360Y27290D01*
X179300Y27269D01*
X179238Y27252D01*
X179176Y27238D01*
X179113Y27229D01*
X179049Y27223D01*
X178985Y27221D01*
X178985Y27220D02*
X177927Y27220D01*
X181203Y25527D02*
X182473Y29337D01*
X183743Y25527D01*
X183425Y26480D02*
X181520Y26480D01*
X185194Y25527D02*
X185194Y29337D01*
X186252Y29337D01*
X186316Y29335D01*
X186380Y29329D01*
X186443Y29320D01*
X186505Y29306D01*
X186567Y29289D01*
X186627Y29268D01*
X186686Y29244D01*
X186744Y29216D01*
X186799Y29184D01*
X186853Y29150D01*
X186904Y29112D01*
X186954Y29071D01*
X187000Y29027D01*
X187044Y28981D01*
X187085Y28931D01*
X187123Y28880D01*
X187157Y28826D01*
X187189Y28771D01*
X187217Y28713D01*
X187241Y28654D01*
X187262Y28594D01*
X187279Y28532D01*
X187293Y28470D01*
X187302Y28407D01*
X187308Y28343D01*
X187310Y28279D01*
X187311Y28279D02*
X187311Y26585D01*
X187310Y26585D02*
X187308Y26521D01*
X187302Y26457D01*
X187293Y26394D01*
X187279Y26332D01*
X187262Y26270D01*
X187241Y26210D01*
X187217Y26151D01*
X187189Y26093D01*
X187157Y26038D01*
X187123Y25984D01*
X187085Y25933D01*
X187044Y25883D01*
X187000Y25837D01*
X186954Y25793D01*
X186904Y25752D01*
X186853Y25714D01*
X186799Y25680D01*
X186744Y25648D01*
X186686Y25620D01*
X186627Y25596D01*
X186567Y25575D01*
X186505Y25558D01*
X186443Y25544D01*
X186380Y25535D01*
X186316Y25529D01*
X186252Y25527D01*
X185194Y25527D01*
X188973Y25527D02*
X190032Y25527D01*
X190096Y25529D01*
X190160Y25535D01*
X190223Y25544D01*
X190285Y25558D01*
X190347Y25575D01*
X190407Y25596D01*
X190466Y25620D01*
X190524Y25648D01*
X190579Y25680D01*
X190633Y25714D01*
X190684Y25752D01*
X190734Y25793D01*
X190780Y25837D01*
X190824Y25883D01*
X190865Y25933D01*
X190903Y25984D01*
X190937Y26038D01*
X190969Y26093D01*
X190997Y26151D01*
X191021Y26210D01*
X191042Y26270D01*
X191059Y26332D01*
X191073Y26394D01*
X191082Y26457D01*
X191088Y26521D01*
X191090Y26585D01*
X191088Y26649D01*
X191082Y26713D01*
X191073Y26776D01*
X191059Y26838D01*
X191042Y26900D01*
X191021Y26960D01*
X190997Y27019D01*
X190969Y27077D01*
X190937Y27132D01*
X190903Y27186D01*
X190865Y27237D01*
X190824Y27287D01*
X190780Y27333D01*
X190734Y27377D01*
X190684Y27418D01*
X190633Y27456D01*
X190579Y27490D01*
X190524Y27522D01*
X190466Y27550D01*
X190407Y27574D01*
X190347Y27595D01*
X190285Y27612D01*
X190223Y27626D01*
X190160Y27635D01*
X190096Y27641D01*
X190032Y27643D01*
X190243Y29337D02*
X188973Y29337D01*
X190243Y29337D02*
X190300Y29335D01*
X190356Y29329D01*
X190412Y29320D01*
X190467Y29307D01*
X190521Y29290D01*
X190574Y29270D01*
X190625Y29246D01*
X190675Y29219D01*
X190722Y29188D01*
X190768Y29155D01*
X190811Y29118D01*
X190852Y29079D01*
X190890Y29037D01*
X190925Y28992D01*
X190957Y28946D01*
X190986Y28897D01*
X191011Y28847D01*
X191033Y28794D01*
X191052Y28741D01*
X191067Y28686D01*
X191078Y28631D01*
X191086Y28575D01*
X191090Y28518D01*
X191090Y28462D01*
X191086Y28405D01*
X191078Y28349D01*
X191067Y28294D01*
X191052Y28239D01*
X191033Y28186D01*
X191011Y28133D01*
X190986Y28083D01*
X190957Y28034D01*
X190925Y27988D01*
X190890Y27943D01*
X190852Y27901D01*
X190811Y27862D01*
X190768Y27825D01*
X190722Y27792D01*
X190675Y27761D01*
X190625Y27734D01*
X190574Y27710D01*
X190521Y27690D01*
X190467Y27673D01*
X190412Y27660D01*
X190356Y27651D01*
X190300Y27645D01*
X190243Y27643D01*
X190243Y27644D02*
X189397Y27644D01*
X50927Y29337D02*
X50927Y25527D01*
X50927Y29337D02*
X51985Y29337D01*
X52049Y29335D01*
X52113Y29329D01*
X52176Y29320D01*
X52238Y29306D01*
X52300Y29289D01*
X52360Y29268D01*
X52419Y29244D01*
X52477Y29216D01*
X52532Y29184D01*
X52586Y29150D01*
X52637Y29112D01*
X52687Y29071D01*
X52733Y29027D01*
X52777Y28981D01*
X52818Y28931D01*
X52856Y28880D01*
X52890Y28826D01*
X52922Y28771D01*
X52950Y28713D01*
X52974Y28654D01*
X52995Y28594D01*
X53012Y28532D01*
X53026Y28470D01*
X53035Y28407D01*
X53041Y28343D01*
X53043Y28279D01*
X53041Y28215D01*
X53035Y28151D01*
X53026Y28088D01*
X53012Y28026D01*
X52995Y27964D01*
X52974Y27904D01*
X52950Y27845D01*
X52922Y27787D01*
X52890Y27732D01*
X52856Y27678D01*
X52818Y27627D01*
X52777Y27577D01*
X52733Y27531D01*
X52687Y27487D01*
X52637Y27446D01*
X52586Y27408D01*
X52532Y27374D01*
X52477Y27342D01*
X52419Y27314D01*
X52360Y27290D01*
X52300Y27269D01*
X52238Y27252D01*
X52176Y27238D01*
X52113Y27229D01*
X52049Y27223D01*
X51985Y27221D01*
X51985Y27220D02*
X50927Y27220D01*
X54203Y25527D02*
X55473Y29337D01*
X56743Y25527D01*
X56425Y26480D02*
X54520Y26480D01*
X58194Y25527D02*
X58194Y29337D01*
X59252Y29337D01*
X59316Y29335D01*
X59380Y29329D01*
X59443Y29320D01*
X59505Y29306D01*
X59567Y29289D01*
X59627Y29268D01*
X59686Y29244D01*
X59744Y29216D01*
X59799Y29184D01*
X59853Y29150D01*
X59904Y29112D01*
X59954Y29071D01*
X60000Y29027D01*
X60044Y28981D01*
X60085Y28931D01*
X60123Y28880D01*
X60157Y28826D01*
X60189Y28771D01*
X60217Y28713D01*
X60241Y28654D01*
X60262Y28594D01*
X60279Y28532D01*
X60293Y28470D01*
X60302Y28407D01*
X60308Y28343D01*
X60310Y28279D01*
X60311Y28279D02*
X60311Y26585D01*
X60310Y26585D02*
X60308Y26521D01*
X60302Y26457D01*
X60293Y26394D01*
X60279Y26332D01*
X60262Y26270D01*
X60241Y26210D01*
X60217Y26151D01*
X60189Y26093D01*
X60157Y26038D01*
X60123Y25984D01*
X60085Y25933D01*
X60044Y25883D01*
X60000Y25837D01*
X59954Y25793D01*
X59904Y25752D01*
X59853Y25714D01*
X59799Y25680D01*
X59744Y25648D01*
X59686Y25620D01*
X59627Y25596D01*
X59567Y25575D01*
X59505Y25558D01*
X59443Y25544D01*
X59380Y25535D01*
X59316Y25529D01*
X59252Y25527D01*
X58194Y25527D01*
X61973Y26374D02*
X62820Y29337D01*
X61973Y26374D02*
X64090Y26374D01*
X63455Y27220D02*
X63455Y25527D01*
X101727Y25527D02*
X101727Y29337D01*
X102785Y29337D01*
X102849Y29335D01*
X102913Y29329D01*
X102976Y29320D01*
X103038Y29306D01*
X103100Y29289D01*
X103160Y29268D01*
X103219Y29244D01*
X103277Y29216D01*
X103332Y29184D01*
X103386Y29150D01*
X103437Y29112D01*
X103487Y29071D01*
X103533Y29027D01*
X103577Y28981D01*
X103618Y28931D01*
X103656Y28880D01*
X103690Y28826D01*
X103722Y28771D01*
X103750Y28713D01*
X103774Y28654D01*
X103795Y28594D01*
X103812Y28532D01*
X103826Y28470D01*
X103835Y28407D01*
X103841Y28343D01*
X103843Y28279D01*
X103841Y28215D01*
X103835Y28151D01*
X103826Y28088D01*
X103812Y28026D01*
X103795Y27964D01*
X103774Y27904D01*
X103750Y27845D01*
X103722Y27787D01*
X103690Y27732D01*
X103656Y27678D01*
X103618Y27627D01*
X103577Y27577D01*
X103533Y27531D01*
X103487Y27487D01*
X103437Y27446D01*
X103386Y27408D01*
X103332Y27374D01*
X103277Y27342D01*
X103219Y27314D01*
X103160Y27290D01*
X103100Y27269D01*
X103038Y27252D01*
X102976Y27238D01*
X102913Y27229D01*
X102849Y27223D01*
X102785Y27221D01*
X102785Y27220D02*
X101727Y27220D01*
X105003Y25527D02*
X106273Y29337D01*
X107543Y25527D01*
X107225Y26480D02*
X105320Y26480D01*
X108994Y25527D02*
X108994Y29337D01*
X110052Y29337D01*
X110116Y29335D01*
X110180Y29329D01*
X110243Y29320D01*
X110305Y29306D01*
X110367Y29289D01*
X110427Y29268D01*
X110486Y29244D01*
X110544Y29216D01*
X110599Y29184D01*
X110653Y29150D01*
X110704Y29112D01*
X110754Y29071D01*
X110800Y29027D01*
X110844Y28981D01*
X110885Y28931D01*
X110923Y28880D01*
X110957Y28826D01*
X110989Y28771D01*
X111017Y28713D01*
X111041Y28654D01*
X111062Y28594D01*
X111079Y28532D01*
X111093Y28470D01*
X111102Y28407D01*
X111108Y28343D01*
X111110Y28279D01*
X111111Y28279D02*
X111111Y26585D01*
X111110Y26585D02*
X111108Y26521D01*
X111102Y26457D01*
X111093Y26394D01*
X111079Y26332D01*
X111062Y26270D01*
X111041Y26210D01*
X111017Y26151D01*
X110989Y26093D01*
X110957Y26038D01*
X110923Y25984D01*
X110885Y25933D01*
X110844Y25883D01*
X110800Y25837D01*
X110754Y25793D01*
X110704Y25752D01*
X110653Y25714D01*
X110599Y25680D01*
X110544Y25648D01*
X110486Y25620D01*
X110427Y25596D01*
X110367Y25575D01*
X110305Y25558D01*
X110243Y25544D01*
X110180Y25535D01*
X110116Y25529D01*
X110052Y25527D01*
X108994Y25527D01*
X112773Y25527D02*
X114043Y25527D01*
X114098Y25529D01*
X114154Y25534D01*
X114208Y25543D01*
X114262Y25556D01*
X114315Y25572D01*
X114367Y25591D01*
X114418Y25614D01*
X114467Y25640D01*
X114514Y25670D01*
X114559Y25702D01*
X114601Y25737D01*
X114642Y25775D01*
X114680Y25816D01*
X114715Y25858D01*
X114747Y25903D01*
X114777Y25951D01*
X114803Y25999D01*
X114826Y26050D01*
X114845Y26102D01*
X114861Y26155D01*
X114874Y26209D01*
X114883Y26263D01*
X114888Y26319D01*
X114890Y26374D01*
X114890Y26797D01*
X114888Y26852D01*
X114883Y26908D01*
X114874Y26962D01*
X114861Y27016D01*
X114845Y27069D01*
X114826Y27121D01*
X114803Y27172D01*
X114777Y27221D01*
X114747Y27268D01*
X114715Y27313D01*
X114680Y27355D01*
X114642Y27396D01*
X114601Y27434D01*
X114559Y27469D01*
X114514Y27501D01*
X114467Y27531D01*
X114418Y27557D01*
X114367Y27580D01*
X114315Y27599D01*
X114262Y27615D01*
X114208Y27628D01*
X114154Y27637D01*
X114098Y27642D01*
X114043Y27644D01*
X112773Y27644D01*
X112773Y29337D01*
X114890Y29337D01*
X152527Y29337D02*
X152527Y25527D01*
X152527Y29337D02*
X153585Y29337D01*
X153649Y29335D01*
X153713Y29329D01*
X153776Y29320D01*
X153838Y29306D01*
X153900Y29289D01*
X153960Y29268D01*
X154019Y29244D01*
X154077Y29216D01*
X154132Y29184D01*
X154186Y29150D01*
X154237Y29112D01*
X154287Y29071D01*
X154333Y29027D01*
X154377Y28981D01*
X154418Y28931D01*
X154456Y28880D01*
X154490Y28826D01*
X154522Y28771D01*
X154550Y28713D01*
X154574Y28654D01*
X154595Y28594D01*
X154612Y28532D01*
X154626Y28470D01*
X154635Y28407D01*
X154641Y28343D01*
X154643Y28279D01*
X154641Y28215D01*
X154635Y28151D01*
X154626Y28088D01*
X154612Y28026D01*
X154595Y27964D01*
X154574Y27904D01*
X154550Y27845D01*
X154522Y27787D01*
X154490Y27732D01*
X154456Y27678D01*
X154418Y27627D01*
X154377Y27577D01*
X154333Y27531D01*
X154287Y27487D01*
X154237Y27446D01*
X154186Y27408D01*
X154132Y27374D01*
X154077Y27342D01*
X154019Y27314D01*
X153960Y27290D01*
X153900Y27269D01*
X153838Y27252D01*
X153776Y27238D01*
X153713Y27229D01*
X153649Y27223D01*
X153585Y27221D01*
X153585Y27220D02*
X152527Y27220D01*
X155803Y25527D02*
X157073Y29337D01*
X158343Y25527D01*
X158025Y26480D02*
X156120Y26480D01*
X159794Y25527D02*
X159794Y29337D01*
X160852Y29337D01*
X160916Y29335D01*
X160980Y29329D01*
X161043Y29320D01*
X161105Y29306D01*
X161167Y29289D01*
X161227Y29268D01*
X161286Y29244D01*
X161344Y29216D01*
X161399Y29184D01*
X161453Y29150D01*
X161504Y29112D01*
X161554Y29071D01*
X161600Y29027D01*
X161644Y28981D01*
X161685Y28931D01*
X161723Y28880D01*
X161757Y28826D01*
X161789Y28771D01*
X161817Y28713D01*
X161841Y28654D01*
X161862Y28594D01*
X161879Y28532D01*
X161893Y28470D01*
X161902Y28407D01*
X161908Y28343D01*
X161910Y28279D01*
X161911Y28279D02*
X161911Y26585D01*
X161910Y26585D02*
X161908Y26521D01*
X161902Y26457D01*
X161893Y26394D01*
X161879Y26332D01*
X161862Y26270D01*
X161841Y26210D01*
X161817Y26151D01*
X161789Y26093D01*
X161757Y26038D01*
X161723Y25984D01*
X161685Y25933D01*
X161644Y25883D01*
X161600Y25837D01*
X161554Y25793D01*
X161504Y25752D01*
X161453Y25714D01*
X161399Y25680D01*
X161344Y25648D01*
X161286Y25620D01*
X161227Y25596D01*
X161167Y25575D01*
X161105Y25558D01*
X161043Y25544D01*
X160980Y25535D01*
X160916Y25529D01*
X160852Y25527D01*
X159794Y25527D01*
X163573Y27644D02*
X164843Y27644D01*
X164898Y27642D01*
X164954Y27637D01*
X165008Y27628D01*
X165062Y27615D01*
X165115Y27599D01*
X165167Y27580D01*
X165218Y27557D01*
X165267Y27531D01*
X165314Y27501D01*
X165359Y27469D01*
X165401Y27434D01*
X165442Y27396D01*
X165480Y27355D01*
X165515Y27313D01*
X165547Y27268D01*
X165577Y27221D01*
X165603Y27172D01*
X165626Y27121D01*
X165645Y27069D01*
X165661Y27016D01*
X165674Y26962D01*
X165683Y26908D01*
X165688Y26852D01*
X165690Y26797D01*
X165690Y26585D01*
X165688Y26521D01*
X165682Y26457D01*
X165673Y26394D01*
X165659Y26332D01*
X165642Y26270D01*
X165621Y26210D01*
X165597Y26151D01*
X165569Y26093D01*
X165537Y26038D01*
X165503Y25984D01*
X165465Y25933D01*
X165424Y25883D01*
X165380Y25837D01*
X165334Y25793D01*
X165284Y25752D01*
X165233Y25714D01*
X165179Y25680D01*
X165124Y25648D01*
X165066Y25620D01*
X165007Y25596D01*
X164947Y25575D01*
X164885Y25558D01*
X164823Y25544D01*
X164760Y25535D01*
X164696Y25529D01*
X164632Y25527D01*
X164568Y25529D01*
X164504Y25535D01*
X164441Y25544D01*
X164379Y25558D01*
X164317Y25575D01*
X164257Y25596D01*
X164198Y25620D01*
X164140Y25648D01*
X164085Y25680D01*
X164031Y25714D01*
X163980Y25752D01*
X163930Y25793D01*
X163884Y25837D01*
X163840Y25883D01*
X163799Y25933D01*
X163761Y25984D01*
X163727Y26038D01*
X163695Y26093D01*
X163667Y26151D01*
X163643Y26210D01*
X163622Y26270D01*
X163605Y26332D01*
X163591Y26394D01*
X163582Y26457D01*
X163576Y26521D01*
X163574Y26585D01*
X163573Y26585D02*
X163573Y27644D01*
X163574Y27644D02*
X163576Y27725D01*
X163582Y27805D01*
X163591Y27885D01*
X163605Y27964D01*
X163622Y28043D01*
X163643Y28121D01*
X163667Y28198D01*
X163695Y28273D01*
X163727Y28347D01*
X163762Y28420D01*
X163801Y28490D01*
X163843Y28559D01*
X163888Y28626D01*
X163936Y28691D01*
X163988Y28753D01*
X164042Y28812D01*
X164099Y28869D01*
X164158Y28923D01*
X164220Y28975D01*
X164285Y29023D01*
X164352Y29068D01*
X164420Y29110D01*
X164491Y29149D01*
X164564Y29184D01*
X164638Y29216D01*
X164713Y29244D01*
X164790Y29268D01*
X164868Y29289D01*
X164947Y29306D01*
X165026Y29320D01*
X165106Y29329D01*
X165186Y29335D01*
X165267Y29337D01*
M02*
