G75*
%MOIN*%
%OFA0B0*%
%FSLAX25Y25*%
%IPPOS*%
%LPD*%
%AMOC8*
5,1,8,0,0,1.08239X$1,22.5*
%
%ADD10C,0.07874*%
%ADD11C,0.07400*%
%ADD12OC8,0.06300*%
%ADD13C,0.05943*%
%ADD14C,0.05600*%
%ADD15C,0.06200*%
%ADD16C,0.05550*%
%ADD17C,0.08858*%
%ADD18C,0.00500*%
%ADD19C,0.02978*%
D10*
X0019883Y0055415D03*
X0019883Y0065415D03*
X0019883Y0115415D03*
X0019883Y0125415D03*
X0119883Y0125415D03*
X0119883Y0115415D03*
X0119883Y0105415D03*
X0119883Y0095415D03*
X0119883Y0085415D03*
X0119883Y0075415D03*
X0119883Y0065415D03*
X0119883Y0055415D03*
X0246851Y0049006D03*
X0246851Y0039006D03*
X0291300Y0241093D03*
X0311300Y0241093D03*
X0321300Y0241093D03*
X0315316Y0275581D03*
X0305316Y0275581D03*
X0295316Y0275581D03*
X0285316Y0275581D03*
X0406469Y0284100D03*
X0406469Y0294100D03*
X0406469Y0252100D03*
X0406469Y0242100D03*
X0479469Y0242100D03*
X0479469Y0252100D03*
X0479469Y0284100D03*
X0479469Y0294100D03*
X0532796Y0318179D03*
X0532796Y0329990D03*
X0532796Y0341801D03*
X0581143Y0389518D03*
X0581143Y0399518D03*
X0581143Y0449518D03*
X0581143Y0459518D03*
X0589017Y0489833D03*
X0589017Y0499833D03*
X0589017Y0509833D03*
X0589017Y0519833D03*
X0481143Y0459518D03*
X0481143Y0449518D03*
X0481143Y0439518D03*
X0481143Y0429518D03*
X0481143Y0419518D03*
X0481143Y0409518D03*
X0481143Y0399518D03*
X0481143Y0389518D03*
X0469804Y0568022D03*
X0469804Y0578022D03*
X0251733Y0499321D03*
X0241733Y0499321D03*
X0191733Y0499321D03*
X0181733Y0499321D03*
X0121300Y0476093D03*
X0111300Y0476093D03*
X0101300Y0476093D03*
X0122087Y0460502D03*
X0122087Y0450502D03*
X0122087Y0440502D03*
X0122087Y0430502D03*
X0122087Y0420502D03*
X0122087Y0410502D03*
X0122087Y0400502D03*
X0122087Y0390502D03*
X0181733Y0399321D03*
X0191733Y0399321D03*
X0201733Y0399321D03*
X0211733Y0399321D03*
X0221733Y0399321D03*
X0231733Y0399321D03*
X0241733Y0399321D03*
X0251733Y0399321D03*
X0135394Y0298573D03*
X0125394Y0298573D03*
X0115394Y0298573D03*
X0105394Y0298573D03*
X0069213Y0316053D03*
X0069213Y0326053D03*
X0069213Y0336447D03*
X0022087Y0390502D03*
X0022087Y0400502D03*
X0022087Y0450502D03*
X0022087Y0460502D03*
X0019095Y0476368D03*
X0029095Y0476368D03*
X0482394Y0125226D03*
X0482394Y0115226D03*
X0482394Y0105226D03*
X0482394Y0095226D03*
X0482394Y0085226D03*
X0482394Y0075226D03*
X0482394Y0065226D03*
X0482394Y0055226D03*
X0582394Y0055226D03*
X0582394Y0065226D03*
X0582394Y0115226D03*
X0582394Y0125226D03*
D11*
X0505237Y0555148D03*
X0505237Y0585148D03*
X0107245Y0228880D03*
X0097245Y0229880D03*
X0087245Y0228880D03*
X0077245Y0229880D03*
X0067245Y0228880D03*
X0057245Y0229880D03*
X0057245Y0189880D03*
X0067245Y0188880D03*
X0077245Y0189880D03*
X0087245Y0188880D03*
X0097245Y0189880D03*
X0107245Y0188880D03*
D12*
X0309253Y0510305D03*
X0329253Y0510305D03*
X0341772Y0510305D03*
X0361772Y0510305D03*
X0374213Y0510305D03*
X0394213Y0510305D03*
X0406654Y0510305D03*
X0426654Y0510305D03*
X0439253Y0510305D03*
X0459253Y0510305D03*
D13*
X0306536Y0327116D03*
X0298505Y0327116D03*
X0290473Y0327116D03*
X0294489Y0317116D03*
X0302520Y0317116D03*
X0310552Y0317116D03*
X0338820Y0312392D03*
X0338820Y0304360D03*
X0338820Y0296329D03*
X0348820Y0300344D03*
X0348820Y0308376D03*
X0348820Y0316407D03*
X0353465Y0268061D03*
X0361497Y0268061D03*
X0369528Y0268061D03*
X0365513Y0258061D03*
X0373544Y0258061D03*
X0357481Y0258061D03*
X0306536Y0201132D03*
X0298505Y0201132D03*
X0290473Y0201132D03*
X0294489Y0191132D03*
X0302520Y0191132D03*
X0310552Y0191132D03*
X0247560Y0258061D03*
X0239528Y0258061D03*
X0231497Y0258061D03*
X0235513Y0268061D03*
X0243544Y0268061D03*
X0227481Y0268061D03*
X0252206Y0296329D03*
X0252206Y0304360D03*
X0252206Y0312392D03*
X0262206Y0316407D03*
X0262206Y0308376D03*
X0262206Y0300344D03*
X0543544Y0279990D03*
X0543544Y0271959D03*
X0553544Y0275974D03*
X0553544Y0267943D03*
X0553544Y0259911D03*
X0543544Y0263927D03*
D14*
X0054961Y0291919D03*
X0044961Y0291919D03*
D15*
X0045977Y0527112D03*
X0055977Y0527112D03*
X0065977Y0527112D03*
X0075977Y0527112D03*
X0085977Y0527112D03*
X0095977Y0527112D03*
X0105977Y0527112D03*
X0115977Y0527112D03*
X0125977Y0527112D03*
X0135977Y0527112D03*
X0145977Y0527112D03*
X0155977Y0527112D03*
X0165977Y0527112D03*
X0175977Y0527112D03*
X0185977Y0527112D03*
X0195977Y0527112D03*
X0205977Y0527112D03*
X0215977Y0527112D03*
X0225977Y0527112D03*
X0235977Y0527112D03*
X0245977Y0527112D03*
X0245977Y0587112D03*
X0235977Y0587112D03*
X0225977Y0587112D03*
X0215977Y0587112D03*
X0205977Y0587112D03*
X0195977Y0587112D03*
X0185977Y0587112D03*
X0175977Y0587112D03*
X0165977Y0587112D03*
X0155977Y0587112D03*
X0145977Y0587112D03*
X0135977Y0587112D03*
X0125977Y0587112D03*
X0115977Y0587112D03*
X0105977Y0587112D03*
X0095977Y0587112D03*
X0085977Y0587112D03*
X0075977Y0587112D03*
X0065977Y0587112D03*
X0065977Y0577112D03*
X0055977Y0577112D03*
X0045977Y0577112D03*
X0045977Y0587112D03*
X0055977Y0587112D03*
X0035977Y0587112D03*
X0025977Y0587112D03*
X0025977Y0577112D03*
X0015977Y0587112D03*
X0015977Y0527112D03*
X0025977Y0527112D03*
X0035977Y0527112D03*
D16*
X0151872Y0176014D02*
X0157421Y0176014D01*
X0157421Y0166014D02*
X0151872Y0166014D01*
X0151872Y0156014D02*
X0157421Y0156014D01*
X0157421Y0146014D02*
X0151872Y0146014D01*
X0151872Y0136014D02*
X0157421Y0136014D01*
X0157421Y0126014D02*
X0151872Y0126014D01*
X0151872Y0116014D02*
X0157421Y0116014D01*
X0157421Y0106014D02*
X0151872Y0106014D01*
X0151872Y0096014D02*
X0157421Y0096014D01*
X0157421Y0086014D02*
X0151872Y0086014D01*
X0151872Y0076014D02*
X0157421Y0076014D01*
X0157421Y0066014D02*
X0151872Y0066014D01*
X0151872Y0056014D02*
X0157421Y0056014D01*
X0157421Y0046014D02*
X0151872Y0046014D01*
X0151872Y0036014D02*
X0157421Y0036014D01*
X0211872Y0036014D02*
X0217421Y0036014D01*
X0217421Y0046014D02*
X0211872Y0046014D01*
X0211872Y0056014D02*
X0217421Y0056014D01*
X0217421Y0066014D02*
X0211872Y0066014D01*
X0211872Y0076014D02*
X0217421Y0076014D01*
X0217421Y0086014D02*
X0211872Y0086014D01*
X0211872Y0096014D02*
X0217421Y0096014D01*
X0217421Y0106014D02*
X0211872Y0106014D01*
X0211872Y0116014D02*
X0217421Y0116014D01*
X0217421Y0126014D02*
X0211872Y0126014D01*
X0211872Y0136014D02*
X0217421Y0136014D01*
X0217421Y0146014D02*
X0211872Y0146014D01*
X0211872Y0156014D02*
X0217421Y0156014D01*
X0217421Y0166014D02*
X0211872Y0166014D01*
X0211872Y0176014D02*
X0217421Y0176014D01*
D17*
X0161300Y0486093D03*
X0061300Y0486093D03*
X0486300Y0556093D03*
X0486300Y0581093D03*
D18*
X0486044Y0580974D01*
X0469804Y0580974D01*
X0469804Y0578022D01*
X0463406Y0580482D02*
X0463406Y0567687D01*
X0262619Y0567687D01*
X0256713Y0573593D01*
X0256713Y0582451D01*
X0259174Y0584911D01*
X0259174Y0596722D01*
X0253761Y0596722D01*
X0253761Y0591309D02*
X0248347Y0596722D01*
X0196182Y0596722D01*
X0196182Y0587372D01*
X0195977Y0587112D01*
X0231615Y0581467D02*
X0136143Y0581467D01*
X0136143Y0586880D01*
X0135977Y0587112D01*
X0106123Y0586880D02*
X0106123Y0576053D01*
X0238997Y0576053D01*
X0242934Y0572116D02*
X0076103Y0572116D01*
X0076103Y0586880D01*
X0075977Y0587112D01*
X0055977Y0587112D02*
X0055926Y0587372D01*
X0050513Y0592785D01*
X0010158Y0592785D01*
X0010158Y0514537D01*
X0053465Y0524380D02*
X0053465Y0346230D01*
X0061831Y0337864D01*
X0061831Y0242884D01*
X0051005Y0232057D01*
X0051005Y0173986D01*
X0119410Y0105581D01*
X0119883Y0105415D01*
X0119883Y0115415D02*
X0119410Y0115423D01*
X0113505Y0121329D01*
X0113505Y0128219D01*
X0119410Y0134124D01*
X0119410Y0233041D01*
X0098741Y0253711D01*
X0098741Y0323593D01*
X0094804Y0327530D01*
X0094804Y0525856D01*
X0095788Y0526841D01*
X0095977Y0527112D01*
X0090867Y0512077D02*
X0090867Y0406270D01*
X0101202Y0398396D02*
X0101202Y0475659D01*
X0101300Y0476093D01*
X0070690Y0459419D02*
X0086930Y0443179D01*
X0086930Y0331467D01*
X0095788Y0322608D01*
X0095788Y0252726D01*
X0116457Y0232057D01*
X0116457Y0209419D01*
X0097265Y0190226D01*
X0097245Y0189880D01*
X0107599Y0207943D02*
X0113505Y0213848D01*
X0113505Y0231073D01*
X0092835Y0251742D01*
X0092835Y0321624D01*
X0066753Y0347707D01*
X0066753Y0468770D01*
X0057402Y0478120D01*
X0090867Y0512077D02*
X0076103Y0526841D01*
X0075977Y0527112D01*
X0066261Y0527333D02*
X0065977Y0527112D01*
X0066261Y0527333D02*
X0091851Y0552923D01*
X0242934Y0552923D01*
X0238013Y0546033D02*
X0235060Y0546033D01*
X0238013Y0546033D02*
X0256713Y0527333D01*
X0256713Y0516506D01*
X0259174Y0513553D02*
X0260650Y0515030D01*
X0260650Y0525364D01*
X0264587Y0531270D02*
X0252776Y0543081D01*
X0246871Y0543081D01*
X0246871Y0576053D01*
X0236044Y0586880D01*
X0235977Y0587112D01*
X0241950Y0592785D02*
X0248347Y0592785D01*
X0252776Y0588356D01*
X0252776Y0548986D01*
X0271477Y0548986D01*
X0289194Y0531270D01*
X0289194Y0411191D01*
X0289686Y0410699D01*
X0292146Y0419065D02*
X0292146Y0532254D01*
X0271477Y0552923D01*
X0267048Y0552923D02*
X0267048Y0554892D01*
X0269509Y0557352D01*
X0412717Y0557352D01*
X0412717Y0476152D01*
X0479154Y0409715D01*
X0481123Y0409715D01*
X0481143Y0409518D01*
X0541654Y0409715D02*
X0581024Y0449085D01*
X0581143Y0449518D01*
X0541654Y0409715D02*
X0541654Y0338848D01*
X0539194Y0336388D01*
X0539194Y0319163D01*
X0558879Y0299478D01*
X0558879Y0148396D01*
X0582009Y0125266D01*
X0582394Y0125226D01*
X0511635Y0104596D02*
X0482599Y0075561D01*
X0482394Y0075226D01*
X0482394Y0065226D02*
X0360552Y0065226D01*
X0261143Y0164636D01*
X0248839Y0170049D02*
X0354154Y0170049D01*
X0422560Y0238455D01*
X0422560Y0250266D01*
X0493426Y0321132D01*
X0493426Y0573100D01*
X0505237Y0584911D01*
X0505237Y0585148D01*
X0511635Y0592293D02*
X0511635Y0104596D01*
X0525414Y0048986D02*
X0525414Y0254203D01*
X0543131Y0271919D01*
X0543544Y0271959D01*
X0553544Y0275974D02*
X0553465Y0276348D01*
X0553465Y0285699D01*
X0541654Y0285699D01*
X0515572Y0259616D01*
X0532796Y0318179D02*
X0515572Y0335404D01*
X0532796Y0329990D02*
X0539194Y0336388D01*
X0403859Y0422018D02*
X0403859Y0500758D01*
X0394509Y0510108D01*
X0394213Y0510305D01*
X0395985Y0520935D02*
X0406320Y0510600D01*
X0406654Y0510305D01*
X0399922Y0492392D02*
X0357599Y0534715D01*
X0299036Y0534715D01*
X0301005Y0520935D02*
X0297560Y0517490D01*
X0297560Y0513061D01*
X0297560Y0503711D02*
X0296576Y0502726D01*
X0296576Y0493868D01*
X0335946Y0454498D01*
X0335946Y0336880D01*
X0341359Y0331467D01*
X0348820Y0308376D02*
X0349233Y0308337D01*
X0354154Y0303415D01*
X0354154Y0298002D01*
X0347757Y0291604D01*
X0347757Y0266014D01*
X0348741Y0265030D01*
X0348741Y0190226D01*
X0335454Y0176939D01*
X0321182Y0194163D02*
X0331024Y0204006D01*
X0331024Y0280285D01*
X0324627Y0279301D02*
X0332993Y0287667D01*
X0332993Y0445640D01*
X0301497Y0477136D01*
X0300513Y0495344D02*
X0374824Y0421033D01*
X0374824Y0259124D01*
X0373839Y0258140D01*
X0373544Y0258061D01*
X0378761Y0255679D02*
X0379253Y0256171D01*
X0379253Y0449085D01*
X0280335Y0548002D01*
X0280335Y0549478D01*
X0276398Y0538652D02*
X0285749Y0529301D01*
X0285749Y0360010D01*
X0271969Y0346230D01*
X0265080Y0339341D02*
X0265080Y0379695D01*
X0279843Y0394459D01*
X0279843Y0504203D01*
X0272461Y0511585D01*
X0282796Y0516998D02*
X0253761Y0546033D01*
X0249824Y0546033D01*
X0249824Y0583435D01*
X0246379Y0586880D01*
X0245977Y0587112D01*
X0253761Y0591309D02*
X0255237Y0591309D01*
X0256713Y0552923D02*
X0267048Y0552923D01*
X0264587Y0531270D02*
X0264587Y0487470D01*
X0263111Y0485994D01*
X0259174Y0513553D02*
X0259174Y0457943D01*
X0263111Y0454006D01*
X0263111Y0392982D01*
X0231123Y0360994D01*
X0231123Y0271919D01*
X0227678Y0268474D01*
X0227481Y0268061D01*
X0222757Y0265030D02*
X0221772Y0266014D01*
X0221772Y0271919D01*
X0222757Y0265030D02*
X0222757Y0104104D01*
X0214883Y0096230D01*
X0214646Y0096014D01*
X0202087Y0068671D02*
X0202087Y0038652D01*
X0209961Y0030778D01*
X0263111Y0030778D01*
X0281320Y0048986D01*
X0525414Y0048986D01*
X0399922Y0226644D02*
X0388603Y0226644D01*
X0357599Y0257648D01*
X0357481Y0258061D01*
X0365513Y0258061D02*
X0365965Y0257648D01*
X0370887Y0252726D01*
X0378761Y0252726D01*
X0378761Y0255679D01*
X0361497Y0268061D02*
X0361536Y0268474D01*
X0366950Y0273888D01*
X0366950Y0344262D01*
X0329056Y0382156D02*
X0292146Y0419065D01*
X0275906Y0402333D02*
X0270001Y0396427D01*
X0270001Y0390030D01*
X0266064Y0391998D02*
X0266064Y0456467D01*
X0251792Y0432844D02*
X0251792Y0399380D01*
X0251733Y0399321D01*
X0241733Y0399321D02*
X0241457Y0399380D01*
X0228170Y0412667D01*
X0228170Y0505679D01*
X0137619Y0505679D01*
X0116457Y0526841D01*
X0115977Y0527112D01*
X0144509Y0514045D02*
X0231123Y0514045D01*
X0231123Y0431368D01*
X0236536Y0425955D01*
X0247855Y0425955D01*
X0259174Y0430384D02*
X0259174Y0392982D01*
X0238013Y0371821D01*
X0178465Y0371821D01*
X0168131Y0405778D02*
X0136143Y0373789D01*
X0115473Y0388061D02*
X0171576Y0331959D01*
X0171576Y0250266D01*
X0201103Y0220738D01*
X0205040Y0261585D02*
X0227186Y0283730D01*
X0227186Y0293573D01*
X0246871Y0294065D02*
X0246871Y0321132D01*
X0265080Y0339341D01*
X0234076Y0360010D02*
X0266064Y0391998D01*
X0268032Y0378711D02*
X0282796Y0393474D01*
X0282796Y0516998D01*
X0252776Y0520443D02*
X0252776Y0525856D01*
X0252776Y0520443D02*
X0238997Y0506663D01*
X0235060Y0526348D02*
X0235060Y0432844D01*
X0215375Y0483041D02*
X0174528Y0442195D01*
X0174528Y0307352D01*
X0209961Y0271919D01*
X0205040Y0261585D02*
X0205040Y0045541D01*
X0214391Y0036191D01*
X0214646Y0036014D01*
X0214646Y0046014D02*
X0214883Y0046033D01*
X0244902Y0076053D01*
X0244902Y0177923D01*
X0297560Y0230581D01*
X0297560Y0254203D01*
X0278859Y0272904D01*
X0278859Y0293081D01*
X0302481Y0316703D01*
X0302520Y0317116D01*
X0315276Y0320148D02*
X0316261Y0319163D01*
X0316261Y0303415D01*
X0311831Y0298986D01*
X0311831Y0288159D01*
X0321674Y0278317D01*
X0321674Y0251742D01*
X0311339Y0241407D01*
X0311300Y0241093D01*
X0321300Y0241093D02*
X0321674Y0241407D01*
X0324627Y0244360D01*
X0324627Y0279301D01*
X0315276Y0320148D02*
X0315276Y0350167D01*
X0289686Y0375758D01*
X0268032Y0378711D02*
X0268032Y0292589D01*
X0256713Y0281270D01*
X0253269Y0279301D02*
X0252284Y0280285D01*
X0252284Y0288652D01*
X0246871Y0294065D01*
X0253269Y0279301D02*
X0253269Y0256171D01*
X0252776Y0255679D01*
X0252776Y0252726D01*
X0244902Y0252726D01*
X0239981Y0257648D01*
X0239528Y0258061D01*
X0235513Y0268061D02*
X0235060Y0268474D01*
X0234076Y0269459D01*
X0234076Y0360010D01*
X0168131Y0405778D02*
X0168131Y0485994D01*
X0181418Y0499281D01*
X0181733Y0499321D01*
X0235060Y0526348D02*
X0235552Y0526841D01*
X0235977Y0527112D01*
X0115473Y0409222D02*
X0115473Y0388061D01*
X0101202Y0398396D02*
X0157304Y0342293D01*
X0157304Y0193179D01*
X0201103Y0149380D01*
X0154843Y0115915D02*
X0154646Y0116014D01*
X0154843Y0115915D02*
X0202087Y0068671D01*
X0122363Y0128219D02*
X0119902Y0125758D01*
X0119883Y0125415D01*
X0122363Y0128219D02*
X0122363Y0253219D01*
X0148938Y0279793D01*
X0115473Y0409222D02*
X0105139Y0419557D01*
X0053465Y0524380D02*
X0055926Y0526841D01*
X0055977Y0527112D01*
X0106123Y0586880D02*
X0105977Y0587112D01*
X0374213Y0510305D02*
X0374331Y0510108D01*
X0395985Y0488455D01*
X0395985Y0230581D01*
X0399922Y0226644D02*
X0399922Y0492392D01*
X0416654Y0477628D02*
X0486044Y0547018D01*
X0486044Y0555876D01*
X0486300Y0556093D01*
X0463406Y0580482D02*
X0475217Y0592293D01*
X0511635Y0592293D01*
X0326595Y0222707D02*
X0295099Y0222707D01*
X0280335Y0207943D01*
D19*
X0280335Y0207943D03*
X0321182Y0194163D03*
X0335454Y0176939D03*
X0326595Y0222707D03*
X0272954Y0258140D03*
X0256713Y0281270D03*
X0227186Y0293573D03*
X0221772Y0271919D03*
X0209961Y0271919D03*
X0201103Y0220738D03*
X0248839Y0170049D03*
X0261143Y0164636D03*
X0201103Y0149380D03*
X0107599Y0207943D03*
X0148938Y0279793D03*
X0136143Y0373789D03*
X0178465Y0371821D03*
X0235060Y0432844D03*
X0247855Y0425955D03*
X0251792Y0432844D03*
X0259174Y0430384D03*
X0275906Y0402333D03*
X0270001Y0390030D03*
X0289686Y0375758D03*
X0271969Y0346230D03*
X0329056Y0382156D03*
X0289686Y0410699D03*
X0266064Y0456467D03*
X0263111Y0485994D03*
X0238997Y0506663D03*
X0256713Y0516506D03*
X0260650Y0525364D03*
X0252776Y0525856D03*
X0243426Y0535207D03*
X0236536Y0540620D03*
X0235060Y0546033D03*
X0242934Y0552923D03*
X0256713Y0552923D03*
X0271477Y0552923D03*
X0280335Y0549478D03*
X0276398Y0538652D03*
X0299036Y0534715D03*
X0301005Y0520935D03*
X0297560Y0513061D03*
X0297560Y0503711D03*
X0300513Y0495344D03*
X0301497Y0477136D03*
X0272461Y0511585D03*
X0215375Y0483041D03*
X0144509Y0514045D03*
X0070690Y0459419D03*
X0057402Y0478120D03*
X0010158Y0514537D03*
X0105139Y0419557D03*
X0090867Y0406270D03*
X0242934Y0572116D03*
X0238997Y0576053D03*
X0231615Y0581467D03*
X0241950Y0592785D03*
X0253761Y0596722D03*
X0255237Y0591309D03*
X0395985Y0520935D03*
X0416654Y0477628D03*
X0403859Y0422018D03*
X0366950Y0344262D03*
X0341359Y0331467D03*
X0331024Y0280285D03*
X0395985Y0230581D03*
X0515572Y0259616D03*
X0515572Y0335404D03*
M02*
