G75*
%MOIN*%
%OFA0B0*%
%FSLAX25Y25*%
%IPPOS*%
%LPD*%
%AMOC8*
5,1,8,0,0,1.08239X$1,22.5*
%
%ADD10C,0.48044*%
%ADD11C,0.12611*%
%ADD12C,0.08674*%
%ADD13C,0.08200*%
%ADD14OC8,0.07100*%
%ADD15C,0.06743*%
%ADD16C,0.09855*%
%ADD17C,0.06400*%
%ADD18C,0.11824*%
%ADD19C,0.11627*%
%ADD20C,0.07000*%
%ADD21C,0.06350*%
%ADD22C,0.09658*%
D10*
X0033780Y0326053D03*
X0568229Y0329990D03*
D11*
X0576103Y0367392D03*
X0461457Y0471289D03*
X0454056Y0452037D03*
X0333977Y0578022D03*
X0267048Y0578022D03*
X0139568Y0471289D03*
X0146969Y0452037D03*
X0024922Y0367392D03*
X0146969Y0318179D03*
X0146969Y0263061D03*
X0139568Y0149321D03*
X0024922Y0239439D03*
X0276891Y0239439D03*
X0322166Y0294557D03*
X0450119Y0318179D03*
X0450119Y0263061D03*
X0461457Y0149321D03*
X0576103Y0239439D03*
D12*
X0019883Y0055415D03*
X0019883Y0065415D03*
X0019883Y0115415D03*
X0019883Y0125415D03*
X0119883Y0125415D03*
X0119883Y0115415D03*
X0119883Y0105415D03*
X0119883Y0095415D03*
X0119883Y0085415D03*
X0119883Y0075415D03*
X0119883Y0065415D03*
X0119883Y0055415D03*
X0246851Y0049006D03*
X0246851Y0039006D03*
X0291300Y0241093D03*
X0311300Y0241093D03*
X0321300Y0241093D03*
X0315316Y0275581D03*
X0305316Y0275581D03*
X0295316Y0275581D03*
X0285316Y0275581D03*
X0406469Y0284100D03*
X0406469Y0294100D03*
X0406469Y0252100D03*
X0406469Y0242100D03*
X0479469Y0242100D03*
X0479469Y0252100D03*
X0479469Y0284100D03*
X0479469Y0294100D03*
X0532796Y0318179D03*
X0532796Y0329990D03*
X0532796Y0341801D03*
X0581143Y0389518D03*
X0581143Y0399518D03*
X0581143Y0449518D03*
X0581143Y0459518D03*
X0589017Y0489833D03*
X0589017Y0499833D03*
X0589017Y0509833D03*
X0589017Y0519833D03*
X0481143Y0459518D03*
X0481143Y0449518D03*
X0481143Y0439518D03*
X0481143Y0429518D03*
X0481143Y0419518D03*
X0481143Y0409518D03*
X0481143Y0399518D03*
X0481143Y0389518D03*
X0469804Y0568022D03*
X0469804Y0578022D03*
X0251733Y0499321D03*
X0241733Y0499321D03*
X0191733Y0499321D03*
X0181733Y0499321D03*
X0121300Y0476093D03*
X0111300Y0476093D03*
X0101300Y0476093D03*
X0122087Y0460502D03*
X0122087Y0450502D03*
X0122087Y0440502D03*
X0122087Y0430502D03*
X0122087Y0420502D03*
X0122087Y0410502D03*
X0122087Y0400502D03*
X0122087Y0390502D03*
X0181733Y0399321D03*
X0191733Y0399321D03*
X0201733Y0399321D03*
X0211733Y0399321D03*
X0221733Y0399321D03*
X0231733Y0399321D03*
X0241733Y0399321D03*
X0251733Y0399321D03*
X0135394Y0298573D03*
X0125394Y0298573D03*
X0115394Y0298573D03*
X0105394Y0298573D03*
X0069213Y0316053D03*
X0069213Y0326053D03*
X0069213Y0336447D03*
X0022087Y0390502D03*
X0022087Y0400502D03*
X0022087Y0450502D03*
X0022087Y0460502D03*
X0019095Y0476368D03*
X0029095Y0476368D03*
X0482394Y0125226D03*
X0482394Y0115226D03*
X0482394Y0105226D03*
X0482394Y0095226D03*
X0482394Y0085226D03*
X0482394Y0075226D03*
X0482394Y0065226D03*
X0482394Y0055226D03*
X0582394Y0055226D03*
X0582394Y0065226D03*
X0582394Y0115226D03*
X0582394Y0125226D03*
D13*
X0505237Y0555148D03*
X0505237Y0585148D03*
X0107245Y0228880D03*
X0097245Y0229880D03*
X0087245Y0228880D03*
X0077245Y0229880D03*
X0067245Y0228880D03*
X0057245Y0229880D03*
X0057245Y0189880D03*
X0067245Y0188880D03*
X0077245Y0189880D03*
X0087245Y0188880D03*
X0097245Y0189880D03*
X0107245Y0188880D03*
D14*
X0309253Y0510305D03*
X0329253Y0510305D03*
X0341772Y0510305D03*
X0361772Y0510305D03*
X0374213Y0510305D03*
X0394213Y0510305D03*
X0406654Y0510305D03*
X0426654Y0510305D03*
X0439253Y0510305D03*
X0459253Y0510305D03*
D15*
X0306536Y0327116D03*
X0298505Y0327116D03*
X0290473Y0327116D03*
X0294489Y0317116D03*
X0302520Y0317116D03*
X0310552Y0317116D03*
X0338820Y0312392D03*
X0338820Y0304360D03*
X0338820Y0296329D03*
X0348820Y0300344D03*
X0348820Y0308376D03*
X0348820Y0316407D03*
X0353465Y0268061D03*
X0361497Y0268061D03*
X0369528Y0268061D03*
X0365513Y0258061D03*
X0373544Y0258061D03*
X0357481Y0258061D03*
X0306536Y0201132D03*
X0298505Y0201132D03*
X0290473Y0201132D03*
X0294489Y0191132D03*
X0302520Y0191132D03*
X0310552Y0191132D03*
X0247560Y0258061D03*
X0239528Y0258061D03*
X0231497Y0258061D03*
X0235513Y0268061D03*
X0243544Y0268061D03*
X0227481Y0268061D03*
X0252206Y0296329D03*
X0252206Y0304360D03*
X0252206Y0312392D03*
X0262206Y0316407D03*
X0262206Y0308376D03*
X0262206Y0300344D03*
X0543544Y0279990D03*
X0543544Y0271959D03*
X0553544Y0275974D03*
X0553544Y0267943D03*
X0553544Y0259911D03*
X0543544Y0263927D03*
D16*
X0534489Y0246329D03*
X0534489Y0293573D03*
X0387127Y0249006D03*
X0357875Y0282746D03*
X0339883Y0249006D03*
X0324135Y0182077D03*
X0276891Y0182077D03*
X0261143Y0249006D03*
X0243150Y0282746D03*
X0213898Y0249006D03*
X0243150Y0329990D03*
X0276891Y0336171D03*
X0324135Y0336171D03*
X0357875Y0329990D03*
D17*
X0054961Y0291919D03*
X0044961Y0291919D03*
D18*
X0269017Y0475659D03*
X0269017Y0597707D03*
X0564292Y0597707D03*
X0564292Y0475659D03*
D19*
X0499331Y0217785D03*
X0499331Y0024872D03*
X0270985Y0024872D03*
X0270985Y0217785D03*
D20*
X0245977Y0527112D03*
X0235977Y0527112D03*
X0225977Y0527112D03*
X0215977Y0527112D03*
X0205977Y0527112D03*
X0195977Y0527112D03*
X0185977Y0527112D03*
X0175977Y0527112D03*
X0165977Y0527112D03*
X0155977Y0527112D03*
X0145977Y0527112D03*
X0135977Y0527112D03*
X0125977Y0527112D03*
X0115977Y0527112D03*
X0105977Y0527112D03*
X0095977Y0527112D03*
X0085977Y0527112D03*
X0075977Y0527112D03*
X0065977Y0527112D03*
X0055977Y0527112D03*
X0045977Y0527112D03*
X0035977Y0527112D03*
X0025977Y0527112D03*
X0015977Y0527112D03*
X0025977Y0577112D03*
X0025977Y0587112D03*
X0035977Y0587112D03*
X0045977Y0587112D03*
X0055977Y0587112D03*
X0055977Y0577112D03*
X0045977Y0577112D03*
X0065977Y0577112D03*
X0065977Y0587112D03*
X0075977Y0587112D03*
X0085977Y0587112D03*
X0095977Y0587112D03*
X0105977Y0587112D03*
X0115977Y0587112D03*
X0125977Y0587112D03*
X0135977Y0587112D03*
X0145977Y0587112D03*
X0155977Y0587112D03*
X0165977Y0587112D03*
X0175977Y0587112D03*
X0185977Y0587112D03*
X0195977Y0587112D03*
X0205977Y0587112D03*
X0215977Y0587112D03*
X0225977Y0587112D03*
X0235977Y0587112D03*
X0245977Y0587112D03*
X0015977Y0587112D03*
D21*
X0151872Y0176014D02*
X0157421Y0176014D01*
X0157421Y0166014D02*
X0151872Y0166014D01*
X0151872Y0156014D02*
X0157421Y0156014D01*
X0157421Y0146014D02*
X0151872Y0146014D01*
X0151872Y0136014D02*
X0157421Y0136014D01*
X0157421Y0126014D02*
X0151872Y0126014D01*
X0151872Y0116014D02*
X0157421Y0116014D01*
X0157421Y0106014D02*
X0151872Y0106014D01*
X0151872Y0096014D02*
X0157421Y0096014D01*
X0157421Y0086014D02*
X0151872Y0086014D01*
X0151872Y0076014D02*
X0157421Y0076014D01*
X0157421Y0066014D02*
X0151872Y0066014D01*
X0151872Y0056014D02*
X0157421Y0056014D01*
X0157421Y0046014D02*
X0151872Y0046014D01*
X0151872Y0036014D02*
X0157421Y0036014D01*
X0211872Y0036014D02*
X0217421Y0036014D01*
X0217421Y0046014D02*
X0211872Y0046014D01*
X0211872Y0056014D02*
X0217421Y0056014D01*
X0217421Y0066014D02*
X0211872Y0066014D01*
X0211872Y0076014D02*
X0217421Y0076014D01*
X0217421Y0086014D02*
X0211872Y0086014D01*
X0211872Y0096014D02*
X0217421Y0096014D01*
X0217421Y0106014D02*
X0211872Y0106014D01*
X0211872Y0116014D02*
X0217421Y0116014D01*
X0217421Y0126014D02*
X0211872Y0126014D01*
X0211872Y0136014D02*
X0217421Y0136014D01*
X0217421Y0146014D02*
X0211872Y0146014D01*
X0211872Y0156014D02*
X0217421Y0156014D01*
X0217421Y0166014D02*
X0211872Y0166014D01*
X0211872Y0176014D02*
X0217421Y0176014D01*
D22*
X0161300Y0486093D03*
X0061300Y0486093D03*
X0486300Y0556093D03*
X0486300Y0581093D03*
M02*
